if (_typeface_js && _typeface_js.loadFace) _typeface_js.loadFace({"glyphs":{"¦":{"x_min":133.328125,"x_max":169.4375,"ha":303,"o":"m 169 468 l 169 1036 l 133 1036 l 133 468 l 169 468 m 133 269 l 133 -298 l 169 -298 l 169 269 l 133 269 "},"ǻ":{"x_min":40.578125,"x_max":493.359375,"ha":488,"o":"m 166 -7 b 312 93 225 -7 273 31 l 316 93 b 404 -6 323 17 358 -6 b 493 31 436 -6 458 5 l 489 45 b 414 118 423 21 414 50 l 414 467 b 244 645 414 592 355 645 b 54 514 135 645 54 595 b 112 441 54 474 75 441 b 173 514 150 441 173 473 b 150 581 173 539 164 559 b 229 621 166 610 198 621 b 312 470 289 621 312 570 l 312 373 b 103 275 291 356 178 334 b 40 138 61 243 40 193 b 166 -7 40 63 79 -7 m 223 51 b 146 168 171 51 146 102 b 312 350 146 260 180 304 l 312 131 b 223 51 293 88 261 51 m 251 744 b 366 888 322 744 366 812 b 250 1033 366 965 321 1033 b 135 888 180 1033 135 965 b 251 744 135 812 180 744 m 251 766 b 198 888 208 766 198 815 b 250 1011 198 976 208 1011 b 303 888 293 1011 303 976 b 251 766 303 815 293 766 m 203 1079 l 236 1079 l 308 1179 b 378 1302 365 1258 378 1287 b 326 1351 378 1327 354 1351 b 244 1211 293 1351 282 1330 l 203 1079 "},"Ő":{"x_min":48.609375,"x_max":687.5,"ha":736,"o":"m 368 -19 b 687 486 543 -19 687 197 b 368 988 687 778 547 988 b 48 482 193 988 48 771 b 368 -19 48 190 187 -19 m 372 6 b 173 485 248 6 173 136 b 362 961 173 831 238 961 b 562 483 487 961 562 832 b 372 6 562 137 495 6 m 440 1070 l 473 1070 l 545 1170 b 615 1294 602 1249 615 1278 b 563 1342 615 1319 591 1342 b 481 1202 530 1342 519 1321 l 440 1070 m 270 1070 l 304 1070 l 376 1170 b 445 1294 433 1249 445 1278 b 394 1342 445 1319 422 1342 b 312 1202 361 1342 350 1321 l 270 1070 "},"Ž":{"x_min":42.9375,"x_max":608.0625,"ha":643,"o":"m 42 0 l 592 0 l 608 305 l 585 308 b 372 27 508 98 455 27 l 170 27 l 606 947 l 606 968 l 83 968 l 65 674 l 87 671 b 299 941 158 871 226 941 l 478 941 l 42 20 l 42 0 m 324 1070 l 353 1070 l 480 1324 l 452 1324 l 340 1191 l 227 1324 l 199 1324 l 324 1070 "},"Á":{"x_min":-24.96875,"x_max":701.40625,"ha":675,"o":"m 473 140 b 383 18 494 56 479 23 l 383 0 l 701 0 l 701 18 b 581 162 625 31 606 58 l 366 992 l 325 992 l 104 201 b -24 18 70 84 44 29 l -24 0 l 204 0 l 204 18 b 138 211 105 34 102 79 l 181 373 l 413 373 l 473 140 m 188 400 l 300 810 l 304 810 l 406 400 l 188 400 m 320 1070 l 354 1070 l 426 1170 b 495 1294 483 1249 495 1278 b 444 1342 495 1319 472 1342 b 362 1202 411 1342 400 1321 l 320 1070 "},"Î":{"x_min":40.28125,"x_max":370.828125,"ha":411,"o":"m 40 0 l 370 0 l 370 18 b 261 118 280 22 261 56 l 261 852 b 370 952 261 911 280 947 l 370 968 l 40 968 l 40 952 b 151 852 131 947 151 911 l 151 118 b 40 18 151 56 131 22 l 40 0 m 65 1070 l 93 1070 l 205 1203 l 318 1070 l 345 1070 l 220 1324 l 191 1324 l 65 1070 "},"e":{"x_min":34.9375,"x_max":453.671875,"ha":479,"o":"m 259 -11 b 451 152 361 -11 414 61 l 434 164 b 296 37 398 82 350 37 b 144 326 190 37 144 169 l 144 336 l 453 336 b 257 649 461 497 393 649 b 34 312 134 649 34 503 b 259 -11 34 129 125 -11 m 250 624 b 346 358 326 624 355 508 l 144 358 b 250 624 147 535 187 624 "},"»":{"x_min":49,"x_max":471.046875,"ha":507,"o":"m 273 40 l 450 274 b 471 311 464 292 471 304 b 450 347 471 317 464 329 l 273 582 l 254 569 l 386 311 l 254 52 l 273 40 m 68 40 l 244 274 b 265 311 258 292 265 304 b 244 347 265 317 258 329 l 68 582 l 49 569 l 180 311 l 49 52 l 68 40 "},"ļ":{"x_min":15.28125,"x_max":270.828125,"ha":292,"o":"m 25 0 l 270 0 l 270 16 b 198 71 211 17 198 24 l 198 996 l 15 990 l 15 973 b 97 903 87 971 97 953 l 97 71 b 25 16 97 24 83 17 l 25 0 m 93 -377 b 216 -183 179 -325 216 -260 b 147 -83 216 -121 187 -83 b 83 -156 108 -83 83 -117 b 133 -220 83 -190 102 -220 b 161 -208 147 -220 154 -215 l 166 -210 b 80 -360 166 -260 141 -315 l 93 -377 "},"Ĕ":{"x_min":33.328125,"x_max":636.109375,"ha":690,"o":"m 33 0 l 631 0 l 636 294 l 616 296 b 372 27 555 97 512 27 l 252 27 l 252 483 l 298 483 b 445 312 380 483 418 465 l 465 312 l 465 682 l 445 682 b 298 511 418 529 380 511 l 252 511 l 252 941 l 373 941 b 587 681 491 941 527 867 l 606 682 l 602 968 l 33 968 l 33 952 b 141 852 119 947 141 911 l 141 118 b 33 18 141 56 119 22 l 33 0 m 361 1077 b 495 1284 437 1077 493 1137 l 468 1284 b 362 1152 459 1206 422 1152 b 255 1284 300 1152 263 1206 l 227 1284 b 361 1077 230 1137 286 1077 "}," ":{"x_min":0,"x_max":0,"ha":694},"ò":{"x_min":34.71875,"x_max":495.828125,"ha":532,"o":"m 266 -11 b 495 322 391 -11 495 127 b 266 649 495 515 395 649 b 34 316 138 649 34 510 b 266 -11 34 122 133 -11 m 270 13 b 145 319 193 13 145 90 b 261 624 145 549 184 624 b 384 319 338 624 384 549 b 270 13 384 90 345 13 m 261 736 l 294 736 l 252 868 b 170 1009 215 988 204 1009 b 119 960 143 1009 119 985 b 188 836 119 945 131 916 l 261 736 "},"ﬄ":{"x_min":17.640625,"x_max":873.203125,"ha":893,"o":"m 339 1 l 570 1 l 570 18 b 502 73 517 19 502 26 l 502 600 l 699 600 l 699 73 b 638 18 699 26 684 19 l 638 1 l 873 1 l 873 18 b 800 73 813 19 800 26 l 800 1006 l 710 981 b 612 1006 684 996 650 1006 b 456 932 541 1006 489 978 b 313 1000 431 972 380 1000 b 157 926 242 1000 191 972 b 102 687 119 872 102 783 l 102 638 l 17 614 l 17 600 l 102 600 l 102 73 b 31 18 102 26 89 19 l 31 1 l 271 1 l 271 18 b 203 73 219 19 203 26 l 203 600 l 400 600 l 400 73 b 339 18 400 26 385 19 l 339 1 m 699 636 l 502 636 l 502 775 b 535 947 502 844 516 921 b 606 982 552 971 577 982 b 680 942 638 982 667 967 b 655 878 666 925 655 897 b 699 807 655 836 673 814 l 699 636 m 400 693 l 400 636 l 203 636 l 203 769 b 237 942 203 839 217 915 b 307 976 253 965 278 976 b 381 936 339 976 369 961 b 356 871 367 919 356 893 b 407 800 356 826 377 803 b 400 693 402 767 400 731 "},"ţ":{"x_min":4.171875,"x_max":348.609375,"ha":353,"o":"m 219 -11 b 348 122 280 -11 325 32 l 329 128 b 256 39 311 62 284 39 b 198 135 218 39 198 64 l 198 600 l 343 600 l 343 636 l 198 636 l 198 867 l 98 817 l 98 638 l 4 614 l 4 600 l 97 600 l 97 150 b 219 -11 97 33 140 -11 m 137 -377 b 261 -183 223 -325 261 -260 b 191 -83 261 -121 231 -83 b 127 -155 152 -83 127 -116 b 177 -220 127 -190 147 -220 b 205 -208 191 -220 198 -215 l 211 -210 b 125 -360 211 -260 186 -315 l 137 -377 "},"^":{"x_min":25,"x_max":340,"ha":365,"o":"m 25 762 l 62 762 l 181 955 l 302 762 l 340 762 l 198 1056 l 167 1056 l 25 762 "},"«":{"x_min":35.953125,"x_max":458,"ha":507,"o":"m 438 40 l 458 52 l 326 311 l 458 569 l 438 582 l 262 347 b 241 311 248 329 241 317 b 262 274 241 304 248 292 l 438 40 m 233 40 l 252 52 l 120 311 l 252 569 l 233 582 l 56 347 b 35 311 42 329 35 317 b 56 274 35 304 42 292 l 233 40 "},"í":{"x_min":26.71875,"x_max":287.828125,"ha":292,"o":"m 26 1 l 275 1 l 275 18 b 200 73 212 19 200 26 l 200 642 l 26 636 l 26 619 b 98 549 83 618 98 590 l 98 73 b 26 18 98 26 83 19 l 26 1 m 112 738 l 146 738 l 218 838 b 287 961 275 917 287 946 b 236 1010 287 986 264 1010 b 154 870 203 1010 192 989 l 112 738 "},"ˆ":{"x_min":15,"x_max":296,"ha":311,"o":"m 15 736 l 42 736 l 155 870 l 268 736 l 296 736 l 170 991 l 141 991 l 15 736 "},"ū":{"x_min":11.109375,"x_max":547.21875,"ha":557,"o":"m 209 -5 b 376 133 275 -5 334 40 l 376 1 l 547 1 l 547 16 b 475 68 490 18 475 34 l 475 642 l 301 636 l 301 619 b 373 551 358 618 373 593 l 373 175 b 265 54 343 95 311 54 b 184 198 205 54 184 108 l 184 642 l 11 636 l 11 619 b 81 551 68 618 81 593 l 81 157 b 209 -5 81 52 130 -5 m 150 779 l 406 779 l 406 833 l 150 833 l 150 779 "},"Ẅ":{"x_min":-6.421875,"x_max":1019.859375,"ha":999,"o":"m 504 726 l 356 183 l 352 183 l 218 831 b 292 952 203 904 213 945 l 292 968 l -6 968 l -6 952 b 110 807 67 935 88 910 l 293 -22 l 337 -22 l 518 663 l 675 -22 l 718 -22 l 894 771 b 1019 952 921 886 946 935 l 1019 968 l 785 968 l 785 952 b 865 782 861 932 890 892 l 733 187 l 729 187 l 591 831 b 666 952 572 918 584 945 l 666 968 l 370 968 l 370 952 b 486 807 437 941 458 925 l 504 726 m 616 1077 b 677 1153 651 1077 677 1106 b 616 1231 677 1200 652 1231 b 557 1153 582 1231 557 1200 b 616 1077 557 1106 582 1077 m 425 1077 b 486 1153 460 1077 486 1106 b 425 1231 486 1200 461 1231 b 365 1153 390 1231 365 1200 b 425 1077 365 1106 390 1077 "},"ņ":{"x_min":22.21875,"x_max":559.71875,"ha":565,"o":"m 22 0 l 255 0 l 255 16 b 195 72 209 18 195 25 l 195 465 b 306 586 225 544 262 586 b 386 441 368 586 386 532 l 386 72 b 326 16 386 25 372 18 l 326 0 l 559 0 l 559 16 b 487 72 500 18 487 25 l 487 483 b 366 646 487 587 444 646 b 193 507 298 646 236 600 l 193 642 l 22 636 l 22 619 b 94 548 80 618 94 590 l 94 72 b 22 16 94 25 80 18 l 22 0 m 227 -377 b 351 -183 313 -325 351 -260 b 281 -83 351 -121 322 -83 b 218 -155 243 -83 218 -116 b 268 -220 218 -190 237 -220 b 295 -208 281 -220 288 -215 l 301 -210 b 215 -360 301 -260 276 -315 l 227 -377 "},"ỳ":{"x_min":-12.28125,"x_max":494.625,"ha":481,"o":"m 239 17 l 225 -31 b 118 -234 174 -200 147 -229 b 134 -175 129 -218 134 -200 b 77 -104 134 -133 110 -104 b 18 -178 39 -104 18 -138 b 104 -264 18 -224 50 -264 b 250 -39 156 -264 189 -235 l 412 494 b 494 622 437 573 464 616 l 494 638 l 325 638 l 325 622 b 364 427 396 609 407 572 l 283 163 l 180 527 b 233 622 165 581 169 616 l 233 638 l -12 638 l -12 622 b 77 511 36 615 51 588 l 239 17 m 264 737 l 297 737 l 256 869 b 174 1010 218 989 207 1010 b 123 961 147 1010 123 986 b 192 837 123 946 136 916 l 264 737 "},"č":{"x_min":35.265625,"x_max":450.640625,"ha":464,"o":"m 256 -11 b 450 144 357 -11 410 59 l 433 155 b 296 37 393 79 350 37 b 144 337 190 37 144 172 b 271 624 144 514 199 624 b 346 582 307 624 331 610 b 313 508 332 571 313 546 b 376 439 313 467 336 439 b 433 518 413 439 433 473 b 268 649 433 579 383 649 b 35 312 138 649 35 505 b 256 -11 35 127 121 -11 m 263 736 l 292 736 l 418 991 l 390 991 l 278 857 l 165 991 l 138 991 l 263 736 "},"’":{"x_min":20.828125,"x_max":194.4375,"ha":240,"o":"m 33 643 b 194 881 150 706 194 782 b 113 985 194 943 162 985 b 45 904 73 985 45 948 b 102 834 45 857 76 834 b 133 846 113 834 126 838 l 137 843 b 20 663 133 782 93 706 l 33 643 "},"-":{"x_min":55.5625,"x_max":311.109375,"ha":367,"o":"m 55 330 l 311 330 l 311 387 l 55 387 l 55 330 "},"Q":{"x_min":49,"x_max":715.65625,"ha":736,"o":"m 372 6 b 174 485 249 6 174 136 b 362 961 174 831 239 961 b 562 483 487 961 562 832 b 372 6 562 137 496 6 m 408 -15 b 687 486 564 15 687 219 b 368 988 687 778 547 988 b 49 482 193 988 49 771 b 305 -9 49 225 157 31 b 143 -134 253 -23 199 -61 l 160 -151 b 299 -56 212 -88 257 -56 b 565 -254 378 -56 429 -254 b 715 -118 654 -254 715 -197 b 653 -36 715 -73 687 -36 b 597 -98 619 -36 597 -66 b 644 -186 597 -147 644 -152 b 619 -218 644 -205 637 -218 b 408 -15 544 -218 504 -58 "},"M":{"x_min":33.328125,"x_max":926.390625,"ha":960,"o":"m 33 0 l 300 0 l 300 18 b 180 187 200 34 180 79 l 180 881 l 186 881 l 440 0 l 465 0 l 704 878 l 709 878 l 709 118 b 609 18 709 54 694 22 l 609 0 l 926 0 l 926 18 b 819 118 840 22 819 56 l 819 852 b 926 952 819 911 840 947 l 926 968 l 695 968 l 491 207 l 487 207 l 276 968 l 33 968 l 33 952 b 150 793 118 949 150 878 l 150 187 b 33 18 150 79 126 36 l 33 0 "},"̦":{"x_min":83.328125,"x_max":219.4375,"ha":301,"o":"m 95 -377 b 219 -182 181 -325 219 -259 b 150 -82 219 -120 190 -82 b 86 -155 111 -82 86 -116 b 136 -219 86 -189 105 -219 b 163 -207 150 -219 156 -214 l 169 -209 b 83 -360 169 -259 144 -315 l 95 -377 "},"œ":{"x_min":34.9375,"x_max":803.671875,"ha":829,"o":"m 609 -11 b 801 152 711 -11 764 61 l 784 164 b 646 37 748 82 700 37 b 494 326 540 37 494 169 l 494 336 l 803 336 b 607 649 811 497 743 649 b 441 524 537 649 479 600 b 266 649 404 601 343 649 b 34 316 139 649 34 510 b 266 -11 34 122 133 -11 b 437 111 339 -11 398 34 b 609 -11 473 36 532 -11 m 384 319 b 271 13 384 90 346 13 b 146 319 193 13 146 90 b 261 624 146 549 184 624 b 384 319 339 624 384 549 m 600 624 b 696 358 676 624 705 508 l 494 358 b 600 624 497 535 537 624 "},"ě":{"x_min":34.921875,"x_max":453.671875,"ha":479,"o":"m 259 -11 b 451 152 361 -11 414 61 l 434 164 b 296 37 398 82 350 37 b 144 326 190 37 144 169 l 144 336 l 453 336 b 257 649 461 497 393 649 b 34 312 134 649 34 503 b 259 -11 34 129 125 -11 m 250 624 b 346 358 326 624 355 508 l 144 358 b 250 624 147 535 187 624 m 241 736 l 271 736 l 397 991 l 369 991 l 257 857 l 144 991 l 116 991 l 241 736 "},"ŭ":{"x_min":11.109375,"x_max":547.21875,"ha":557,"o":"m 209 -5 b 376 133 275 -5 334 40 l 376 1 l 547 1 l 547 16 b 475 68 490 18 475 34 l 475 642 l 301 636 l 301 619 b 373 551 358 618 373 593 l 373 175 b 265 54 343 95 311 54 b 184 198 205 54 184 108 l 184 642 l 11 636 l 11 619 b 81 551 68 618 81 593 l 81 157 b 209 -5 81 52 130 -5 m 277 745 b 412 952 354 745 409 804 l 384 952 b 279 820 376 874 338 820 b 172 952 216 820 180 874 l 144 952 b 277 745 147 804 202 745 "},"{":{"x_min":34.71875,"x_max":433.328125,"ha":428,"o":"m 433 -221 l 433 -202 b 290 27 313 -189 290 -95 b 294 198 290 75 294 137 b 102 426 294 339 251 401 l 102 432 b 294 654 251 457 294 514 b 290 820 294 715 290 772 b 433 1043 290 943 313 1029 l 433 1061 b 184 810 277 1055 184 982 b 201 611 184 742 201 658 b 34 440 201 504 172 455 l 34 418 b 201 241 172 403 201 348 b 184 37 201 194 184 105 b 433 -221 184 -134 277 -214 "},"#":{"x_min":35.9375,"x_max":662.0625,"ha":699,"o":"m 319 977 l 287 977 l 244 663 l 78 663 l 78 633 l 240 633 l 192 284 l 35 284 l 35 255 l 188 255 l 145 -58 l 177 -58 l 220 255 l 421 255 l 378 -58 l 410 -58 l 453 255 l 619 255 l 619 284 l 457 284 l 505 633 l 662 633 l 662 663 l 509 663 l 552 977 l 520 977 l 477 663 l 276 663 l 319 977 m 271 633 l 473 633 l 426 284 l 224 284 l 271 633 "},"Ê":{"x_min":33.59375,"x_max":636.375,"ha":690,"o":"m 33 0 l 632 0 l 636 294 l 616 296 b 372 27 555 97 512 27 l 253 27 l 253 483 l 298 483 b 446 312 380 483 418 465 l 465 312 l 465 682 l 446 682 b 298 511 418 529 380 511 l 253 511 l 253 941 l 373 941 b 587 681 491 941 528 867 l 607 682 l 603 968 l 33 968 l 33 952 b 141 852 119 947 141 911 l 141 118 b 33 18 141 56 119 22 l 33 0 m 221 1070 l 248 1070 l 361 1203 l 473 1070 l 501 1070 l 376 1324 l 347 1324 l 221 1070 "},")":{"x_min":-18.0625,"x_max":319.4375,"ha":397,"o":"m -8 -231 b 319 416 151 -137 319 67 b -8 1062 319 765 151 968 l -18 1046 b 212 414 122 938 212 768 b -18 -215 212 59 122 -107 l -8 -231 "},"ș":{"x_min":41.671875,"x_max":386.109375,"ha":422,"o":"m 41 -11 l 63 -11 l 97 35 b 218 -11 127 6 181 -11 b 386 196 327 -11 386 85 b 240 381 386 315 311 349 b 115 515 176 411 115 438 b 201 623 115 580 154 623 b 340 454 252 623 284 573 l 362 454 l 362 648 l 341 648 l 319 609 b 215 648 295 629 254 648 b 44 451 112 648 44 563 b 187 276 44 337 116 308 b 318 124 254 245 318 212 b 229 13 318 73 286 13 b 65 202 169 13 136 56 l 41 202 l 41 -11 m 144 -377 b 268 -183 230 -325 268 -260 b 198 -83 268 -121 238 -83 b 134 -156 159 -83 134 -117 b 184 -220 134 -190 154 -220 b 212 -208 198 -220 205 -215 l 218 -210 b 131 -360 218 -260 193 -315 l 144 -377 "},"Å":{"x_min":-24.8125,"x_max":701.40625,"ha":675,"o":"m 344 993 b 291 1115 301 993 291 1042 b 343 1238 291 1203 301 1238 b 396 1115 386 1238 396 1203 b 344 993 396 1042 386 993 m 183 373 l 415 373 l 473 140 b 383 17 494 56 479 23 l 383 0 l 701 0 l 701 17 b 581 162 625 31 606 58 b 371 974 581 162 371 975 b 459 1115 426 989 459 1049 b 343 1260 459 1192 414 1260 b 227 1115 273 1260 227 1192 b 319 974 227 1049 264 987 l 104 201 b -24 17 71 84 44 28 l -24 0 l 204 0 l 204 17 b 139 210 105 34 102 78 l 183 373 m 408 399 l 190 399 l 300 809 l 304 809 l 408 399 "},"¸":{"x_min":52.640625,"x_max":244.296875,"ha":292,"o":"m 141 -307 b 244 -198 205 -307 244 -259 b 134 -105 244 -140 204 -101 l 131 -98 l 197 -6 l 165 -6 l 83 -123 l 91 -133 b 122 -126 101 -129 112 -126 b 174 -205 158 -126 174 -152 b 124 -283 174 -250 158 -283 b 67 -247 105 -283 84 -269 l 52 -261 b 141 -307 72 -289 102 -307 "},"a":{"x_min":39.765625,"x_max":492.546875,"ha":488,"o":"m 166 -7 b 311 93 224 -7 273 31 l 316 93 b 403 -6 323 17 357 -6 b 492 31 435 -6 457 5 l 488 45 b 413 118 423 21 413 50 l 413 467 b 243 645 413 592 355 645 b 53 514 134 645 53 595 b 111 441 53 474 74 441 b 173 514 149 441 173 473 b 149 581 173 539 163 559 b 228 621 166 610 198 621 b 311 470 288 621 311 570 l 311 373 b 102 275 291 356 177 334 b 39 138 60 243 39 193 b 166 -7 39 63 78 -7 m 223 51 b 145 168 170 51 145 102 b 311 350 145 260 180 304 l 311 131 b 223 51 292 88 260 51 "},"Ę":{"x_min":33.328125,"x_max":636.109375,"ha":690,"o":"m 33 0 l 554 0 l 526 -29 b 427 -193 444 -116 427 -152 b 518 -282 427 -250 466 -282 b 612 -230 566 -282 602 -243 l 601 -218 b 551 -243 586 -233 569 -243 b 497 -173 518 -243 497 -218 b 572 -13 497 -134 511 -91 l 583 0 l 631 0 l 636 294 l 616 296 b 372 27 555 97 512 27 l 252 27 l 252 483 l 298 483 b 445 312 380 483 418 465 l 465 312 l 465 682 l 445 682 b 298 511 418 529 380 511 l 252 511 l 252 941 l 373 941 b 587 681 491 941 527 867 l 606 682 l 602 968 l 33 968 l 33 952 b 141 852 119 947 141 911 l 141 118 b 33 18 141 56 119 22 l 33 0 "},"=":{"x_min":58.328125,"x_max":505.5625,"ha":564,"o":"m 58 339 l 505 339 l 505 369 l 58 369 l 58 339 m 58 530 l 505 530 l 505 561 l 58 561 l 58 530 "},"˚":{"x_min":25,"x_max":256.9375,"ha":282,"o":"m 141 743 b 256 888 212 743 256 811 b 140 1032 256 964 211 1032 b 25 888 70 1032 25 964 b 141 743 25 811 70 743 m 141 765 b 88 888 98 765 88 814 b 140 1010 88 975 98 1010 b 193 888 183 1010 193 975 b 141 765 193 814 183 765 "},"ú":{"x_min":11.109375,"x_max":547.21875,"ha":557,"o":"m 209 -5 b 376 133 275 -5 334 40 l 376 1 l 547 1 l 547 16 b 475 68 490 18 475 34 l 475 642 l 301 636 l 301 619 b 373 551 358 618 373 593 l 373 175 b 265 54 343 95 311 54 b 184 198 205 54 184 108 l 184 642 l 11 636 l 11 619 b 81 551 68 618 81 593 l 81 157 b 209 -5 81 52 130 -5 m 251 738 l 284 738 l 356 838 b 426 961 413 917 426 946 b 375 1010 426 986 402 1010 b 293 870 341 1010 330 989 l 251 738 "},"¯":{"x_min":34.71875,"x_max":291.671875,"ha":326,"o":"m 34 778 l 291 778 l 291 832 l 34 832 l 34 778 "},"Z":{"x_min":42.9375,"x_max":608.21875,"ha":643,"o":"m 42 0 l 592 0 l 608 305 l 586 308 b 372 27 508 98 455 27 l 170 27 l 606 947 l 606 968 l 83 968 l 65 674 l 87 671 b 299 941 158 871 226 941 l 479 941 l 42 20 l 42 0 "},"u":{"x_min":11.109375,"x_max":547.21875,"ha":557,"o":"m 209 -5 b 376 133 275 -5 334 40 l 376 1 l 547 1 l 547 16 b 475 68 490 18 475 34 l 475 642 l 301 636 l 301 619 b 373 551 358 618 373 593 l 373 175 b 265 54 343 95 311 54 b 184 198 205 54 184 108 l 184 642 l 11 636 l 11 619 b 81 551 68 618 81 593 l 81 157 b 209 -5 81 52 130 -5 "},"k":{"x_min":2.65625,"x_max":540.15625,"ha":524,"o":"m 184 259 l 234 325 l 348 93 b 312 16 372 45 365 25 l 312 0 l 540 0 l 540 16 b 441 126 497 23 485 37 l 299 412 l 365 499 b 508 621 433 589 454 610 l 508 638 l 294 638 l 294 621 b 334 510 363 608 373 564 l 184 298 l 184 996 l 2 991 l 2 974 b 83 903 73 971 83 953 l 83 72 b 10 16 83 25 67 18 l 10 0 l 235 0 l 235 16 b 184 72 198 18 184 25 l 184 259 "},"Ù":{"x_min":16.671875,"x_max":747.21875,"ha":750,"o":"m 390 -19 b 636 283 565 -19 636 98 l 636 782 b 747 952 636 890 652 932 l 747 968 l 476 968 l 476 952 b 605 782 576 935 605 890 l 605 298 b 556 87 605 195 590 136 b 431 26 530 50 480 26 b 234 282 302 26 234 104 l 234 852 b 334 952 234 914 250 947 l 334 968 l 16 968 l 16 952 b 123 852 102 947 123 911 l 123 254 b 390 -19 123 70 220 -19 m 398 1070 l 431 1070 l 390 1202 b 308 1342 352 1321 341 1342 b 256 1294 280 1342 256 1319 b 326 1170 256 1278 269 1249 l 398 1070 "},"Ů":{"x_min":16.671875,"x_max":747.21875,"ha":750,"o":"m 390 -19 b 636 283 565 -19 636 98 l 636 782 b 747 952 636 890 652 932 l 747 968 l 476 968 l 476 952 b 605 782 576 935 605 890 l 605 298 b 556 87 605 195 590 136 b 431 26 530 50 480 26 b 234 282 302 26 234 104 l 234 852 b 334 952 234 914 250 947 l 334 968 l 16 968 l 16 952 b 123 852 102 947 123 911 l 123 254 b 390 -19 123 70 220 -19 m 404 1077 b 519 1221 475 1077 519 1145 b 402 1366 519 1298 473 1366 b 287 1221 333 1366 287 1298 b 404 1077 287 1145 333 1077 m 404 1099 b 351 1221 361 1099 351 1148 b 402 1344 351 1309 361 1344 b 455 1221 445 1344 455 1309 b 404 1099 455 1148 445 1099 "},"¢":{"x_min":48.875,"x_max":475.265625,"ha":519,"o":"m 269 -119 l 303 -119 l 303 -8 b 475 144 387 2 439 68 l 458 155 b 315 37 418 79 369 37 l 301 37 l 301 624 b 387 568 341 621 372 601 b 353 489 373 557 353 526 b 416 419 353 447 376 419 b 473 499 453 419 473 454 b 303 649 473 558 411 643 l 303 743 l 269 743 l 269 647 b 48 312 143 632 48 494 b 269 -11 48 130 130 -6 l 269 -119 m 158 337 b 269 619 158 493 204 597 l 269 45 b 158 337 190 79 158 197 "},"Ş":{"x_min":56.9375,"x_max":538.890625,"ha":583,"o":"m 287 -307 b 390 -198 351 -307 390 -259 b 280 -105 390 -140 350 -101 l 277 -98 l 336 -15 b 538 293 483 6 538 159 b 344 549 538 426 441 496 b 156 779 251 600 156 650 b 290 961 156 900 220 961 b 484 694 372 961 430 871 l 505 694 l 505 996 l 486 996 l 454 946 b 305 988 420 967 365 988 b 69 696 170 988 69 878 b 268 439 69 554 169 492 b 458 197 362 390 458 334 b 308 8 458 97 409 8 b 77 309 198 8 137 133 l 56 309 l 56 -25 l 76 -25 l 131 40 b 295 -19 173 8 238 -19 l 301 -19 l 229 -123 l 237 -133 b 268 -126 247 -129 258 -126 b 320 -205 304 -126 320 -152 b 270 -283 320 -250 304 -283 b 213 -247 251 -283 230 -269 l 198 -261 b 287 -307 218 -289 248 -307 "},"é":{"x_min":34.9375,"x_max":453.671875,"ha":479,"o":"m 259 -11 b 451 152 361 -11 414 61 l 434 164 b 296 37 398 82 350 37 b 144 326 190 37 144 169 l 144 336 l 453 336 b 257 649 461 497 393 649 b 34 312 134 649 34 503 b 259 -11 34 129 125 -11 m 250 624 b 346 358 326 624 355 508 l 144 358 b 250 624 147 535 187 624 m 230 736 l 264 736 l 336 836 b 405 960 393 916 405 945 b 354 1009 405 985 382 1009 b 272 868 321 1009 309 988 l 230 736 "},"B":{"x_min":33.328125,"x_max":640.28125,"ha":676,"o":"m 33 0 l 345 0 b 640 278 562 0 640 141 b 412 510 640 417 562 497 l 412 515 b 612 735 551 535 612 635 b 336 968 612 859 541 968 l 33 968 l 33 952 b 141 852 119 947 141 911 l 141 118 b 33 18 141 56 119 22 l 33 0 m 252 526 l 252 941 l 338 941 b 497 731 456 941 497 850 b 343 526 497 599 450 526 l 252 526 m 252 27 l 252 499 l 345 499 b 523 273 469 499 523 415 b 352 27 523 97 476 27 l 252 27 "},"…":{"x_min":51.390625,"x_max":656.953125,"ha":708,"o":"m 588 -19 b 656 61 629 -19 656 16 b 588 141 656 105 630 141 b 519 61 548 141 519 105 b 588 -19 519 16 547 -19 m 355 -19 b 423 61 395 -19 423 16 b 355 141 423 105 397 141 b 286 61 315 141 286 105 b 355 -19 286 16 313 -19 m 120 -19 b 188 61 161 -19 188 16 b 120 141 188 105 162 141 b 51 61 80 141 51 105 b 120 -19 51 16 79 -19 "},"ē":{"x_min":35.9375,"x_max":454.671875,"ha":479,"o":"m 260 -11 b 452 152 362 -11 415 61 l 435 164 b 297 37 399 82 351 37 b 145 326 191 37 145 169 l 145 336 l 454 336 b 258 649 462 497 394 649 b 35 312 135 649 35 503 b 260 -11 35 129 126 -11 m 251 624 b 347 358 327 624 356 508 l 145 358 b 251 624 148 535 188 624 m 130 778 l 387 778 l 387 832 l 130 832 l 130 778 "},"H":{"x_min":33.328125,"x_max":781.953125,"ha":815,"o":"m 33 0 l 352 0 l 352 18 b 252 116 265 22 252 52 l 252 489 l 565 489 l 565 116 b 465 18 565 52 551 22 l 465 0 l 781 0 l 781 18 b 675 116 695 22 675 55 l 675 853 b 781 952 675 913 695 947 l 781 968 l 465 968 l 465 952 b 565 853 551 947 565 916 l 565 517 l 252 517 l 252 853 b 352 952 252 916 265 947 l 352 968 l 33 968 l 33 952 b 141 853 119 947 141 913 l 141 116 b 33 18 141 55 119 22 l 33 0 "},"î":{"x_min":-1.390625,"x_max":279.171875,"ha":292,"o":"m 26 1 l 275 1 l 275 18 b 200 73 212 19 200 26 l 200 642 l 26 636 l 26 619 b 98 549 83 618 98 590 l 98 73 b 26 18 98 26 83 19 l 26 1 m -1 738 l 26 738 l 138 871 l 251 738 l 279 738 l 154 992 l 125 992 l -1 738 "},"−":{"x_min":54.171875,"x_max":495.828125,"ha":550,"o":"m 54 436 l 495 436 l 495 467 l 54 467 l 54 436 "},"¥":{"x_min":17.3125,"x_max":668.703125,"ha":685,"o":"m 89 430 l 274 430 l 288 397 l 288 321 l 89 321 l 89 291 l 288 291 l 288 118 b 177 18 288 57 268 22 l 177 0 l 508 0 l 508 18 b 397 118 417 22 397 57 l 397 291 l 595 291 l 595 321 l 397 321 l 397 398 l 410 430 l 595 430 l 595 460 l 422 460 l 529 727 b 668 899 571 831 611 884 l 668 917 l 440 917 l 440 899 b 486 706 529 874 532 817 l 379 439 l 247 778 b 318 899 218 853 227 892 l 318 917 l 17 917 l 17 899 b 127 783 77 879 99 850 l 261 460 l 89 460 l 89 430 "},"U":{"x_min":16.671875,"x_max":747.21875,"ha":750,"o":"m 390 -19 b 636 283 565 -19 636 98 l 636 782 b 747 952 636 890 652 932 l 747 968 l 476 968 l 476 952 b 605 782 576 935 605 890 l 605 298 b 556 87 605 195 590 136 b 431 26 530 50 480 26 b 234 282 302 26 234 104 l 234 852 b 334 952 234 914 250 947 l 334 968 l 16 968 l 16 952 b 123 852 102 947 123 911 l 123 254 b 390 -19 123 70 220 -19 "},"Ñ":{"x_min":33.328125,"x_max":770.828125,"ha":776,"o":"m 623 -11 l 661 -11 l 661 782 b 770 952 661 890 677 932 l 770 968 l 501 968 l 501 952 b 630 782 600 935 630 890 l 630 214 l 629 214 l 236 968 l 33 968 l 33 952 b 150 793 118 949 150 878 l 150 187 b 33 18 150 79 126 36 l 33 0 l 301 0 l 301 18 b 180 187 200 34 180 79 l 180 832 l 181 832 l 623 -11 m 251 1071 l 277 1071 b 326 1155 288 1135 306 1155 b 480 1075 365 1155 427 1075 b 568 1242 533 1075 559 1116 l 541 1242 b 493 1159 530 1178 512 1159 b 338 1238 454 1159 391 1238 b 251 1071 286 1238 259 1198 "},"F":{"x_min":33.328125,"x_max":606.9375,"ha":654,"o":"m 33 0 l 361 0 l 361 18 b 252 118 272 22 252 56 l 252 473 l 300 473 b 445 304 380 473 416 457 l 463 304 l 463 669 l 445 669 b 300 503 418 517 380 503 l 252 503 l 252 941 l 359 941 b 587 674 481 941 529 872 l 606 675 l 600 968 l 33 968 l 33 950 b 141 852 119 946 141 911 l 141 118 b 33 18 141 56 119 22 l 33 0 "},"ā":{"x_min":39.0625,"x_max":491.84375,"ha":488,"o":"m 165 -7 b 311 93 223 -7 272 31 l 315 93 b 402 -6 322 17 357 -6 b 491 31 434 -6 457 5 l 487 45 b 412 118 422 21 412 50 l 412 467 b 243 645 412 592 354 645 b 52 514 133 645 52 595 b 111 441 52 474 73 441 b 172 514 148 441 172 473 b 148 581 172 539 162 559 b 227 621 165 610 197 621 b 311 470 287 621 311 570 l 311 373 b 101 275 290 356 176 334 b 39 138 59 243 39 193 b 165 -7 39 63 77 -7 m 222 51 b 144 168 169 51 144 102 b 311 350 144 260 179 304 l 311 131 b 222 51 291 88 259 51 m 121 778 l 377 778 l 377 833 l 121 833 l 121 778 "},"ă":{"x_min":39.765625,"x_max":492.546875,"ha":488,"o":"m 166 -7 b 311 93 224 -7 273 31 l 316 93 b 403 -6 323 17 357 -6 b 492 31 435 -6 457 5 l 488 45 b 413 118 423 21 413 50 l 413 467 b 243 645 413 592 355 645 b 53 514 134 645 53 595 b 111 441 53 474 74 441 b 173 514 149 441 173 473 b 149 581 173 539 163 559 b 228 621 166 610 198 621 b 311 470 288 621 311 570 l 311 373 b 102 275 291 356 177 334 b 39 138 60 243 39 193 b 166 -7 39 63 78 -7 m 223 51 b 145 168 170 51 145 102 b 311 350 145 260 180 304 l 311 131 b 223 51 292 88 260 51 m 249 744 b 384 951 325 744 381 803 l 356 951 b 250 819 348 873 310 819 b 143 951 188 819 152 873 l 116 951 b 249 744 118 803 174 744 "},"*":{"x_min":44.375,"x_max":344.609375,"ha":349,"o":"m 233 691 b 248 744 252 697 257 716 b 196 834 243 763 218 798 l 198 840 b 300 813 239 827 277 813 b 344 847 327 813 344 823 b 300 879 344 868 327 879 b 198 852 277 879 237 865 l 193 860 b 250 947 216 894 244 928 b 233 1003 257 974 254 997 b 187 970 212 1008 196 995 b 180 864 180 949 183 907 l 172 863 b 105 942 147 896 125 928 b 50 942 83 958 64 960 b 68 889 37 926 46 904 b 165 850 87 876 125 865 l 165 843 b 68 802 125 829 86 813 b 50 751 46 787 37 766 b 105 752 64 733 82 734 b 172 831 121 763 147 798 l 180 829 b 187 724 183 786 182 744 b 233 691 196 698 212 686 "},"†":{"x_min":29.71875,"x_max":529.28125,"ha":558,"o":"m 270 -148 l 289 -148 b 343 428 295 95 332 365 l 301 517 b 293 561 295 528 293 544 b 350 644 293 607 302 644 b 476 594 391 644 436 594 b 529 644 500 594 529 608 b 444 708 529 683 494 708 b 293 638 404 708 347 678 l 289 642 l 309 785 b 330 968 319 853 330 918 b 279 1035 330 1013 308 1035 b 228 968 250 1035 228 1013 b 249 785 228 918 239 853 l 270 642 l 265 638 b 114 708 211 678 154 708 b 29 644 64 708 29 683 b 82 594 29 608 58 594 b 208 644 122 594 167 644 b 265 561 256 644 265 607 b 257 517 265 544 263 528 l 215 428 b 270 -148 226 365 263 95 "},"°":{"x_min":45.828125,"x_max":341.671875,"ha":388,"o":"m 194 603 b 341 800 280 603 341 693 b 193 993 341 907 284 993 b 45 797 108 993 45 903 b 194 603 45 690 102 603 m 197 629 b 109 800 148 629 109 681 b 190 967 109 916 143 967 b 277 797 238 967 277 916 b 197 629 277 681 243 629 "},"å":{"x_min":40.578125,"x_max":493.359375,"ha":488,"o":"m 166 -7 b 312 93 225 -7 273 31 l 316 93 b 404 -6 323 17 358 -6 b 493 31 436 -6 458 5 l 489 45 b 414 118 423 21 414 50 l 414 467 b 244 645 414 592 355 645 b 54 514 135 645 54 595 b 112 441 54 474 75 441 b 173 514 150 441 173 473 b 150 581 173 539 164 559 b 229 621 166 610 198 621 b 312 470 289 621 312 570 l 312 373 b 103 275 291 356 178 334 b 40 138 61 243 40 193 b 166 -7 40 63 79 -7 m 223 51 b 146 168 171 51 146 102 b 312 350 146 260 180 304 l 312 131 b 223 51 293 88 261 51 m 251 744 b 366 888 322 744 366 812 b 250 1033 366 965 321 1033 b 135 888 180 1033 135 965 b 251 744 135 812 180 744 m 251 766 b 198 888 208 766 198 815 b 250 1011 198 976 208 1011 b 303 888 293 1011 303 976 b 251 766 303 815 293 766 "},"0":{"x_min":41.671875,"x_max":556.9375,"ha":599,"o":"m 298 -15 b 556 460 447 -15 556 182 b 298 932 556 739 451 932 b 41 454 151 932 41 733 b 298 -15 41 175 144 -15 m 302 9 b 166 457 204 9 166 108 b 294 907 166 806 195 907 b 431 457 394 907 431 806 b 302 9 431 108 402 9 "},"ō":{"x_min":34.71875,"x_max":495.828125,"ha":532,"o":"m 266 -11 b 495 322 391 -11 495 127 b 266 649 495 515 395 649 b 34 316 138 649 34 510 b 266 -11 34 122 133 -11 m 270 13 b 145 319 193 13 145 90 b 261 624 145 549 184 624 b 384 319 338 624 384 549 b 270 13 384 90 345 13 m 137 778 l 394 778 l 394 832 l 137 832 l 137 778 "},"”":{"x_min":20.828125,"x_max":391.671875,"ha":438,"o":"m 230 643 b 391 881 347 706 391 782 b 311 985 391 943 359 985 b 243 904 270 985 243 948 b 300 834 243 857 273 834 b 330 846 311 834 323 838 l 334 843 b 218 663 330 782 290 706 l 230 643 m 33 643 b 194 881 150 706 194 782 b 113 985 194 943 162 985 b 45 904 73 985 45 948 b 102 834 45 857 76 834 b 133 846 113 834 126 838 l 137 843 b 20 663 133 782 93 706 l 33 643 "},"ŵ":{"x_min":-7.84375,"x_max":747.875,"ha":735,"o":"m 371 444 l 279 137 l 274 137 l 176 524 b 169 569 172 542 169 557 b 225 621 169 600 185 617 l 225 638 l -7 638 l -7 621 b 79 510 43 615 56 600 l 217 -12 l 261 -12 l 383 393 l 481 -12 l 528 -12 l 654 493 b 747 621 674 571 708 615 l 747 638 l 565 638 l 565 621 b 631 546 610 612 631 592 b 615 451 631 521 625 490 l 540 144 l 536 144 l 450 524 b 443 571 446 543 443 562 b 503 621 443 604 460 617 l 503 638 l 275 638 l 275 621 b 356 510 321 615 333 603 l 371 444 m 249 736 l 276 736 l 389 870 l 502 736 l 529 736 l 404 991 l 375 991 l 249 736 "},"Ķ":{"x_min":33.5,"x_max":738.75,"ha":740,"o":"m 252 440 l 252 853 b 352 951 252 915 265 947 l 352 968 l 33 968 l 33 951 b 141 853 119 947 141 912 l 141 116 b 33 17 141 55 119 21 l 33 0 l 343 0 l 343 17 b 252 116 262 21 252 52 l 252 392 l 322 491 l 488 145 b 463 17 533 53 536 26 l 463 0 l 738 0 l 738 17 b 587 192 666 35 652 55 l 396 594 l 507 751 b 715 951 602 886 631 928 l 715 968 l 462 968 l 462 951 b 490 778 562 933 549 862 l 252 440 m 297 -377 b 420 -183 383 -325 420 -260 b 351 -83 420 -121 391 -83 b 287 -156 312 -83 287 -117 b 337 -220 287 -190 307 -220 b 365 -208 351 -220 358 -215 l 371 -210 b 284 -360 371 -260 346 -315 l 297 -377 "},"ö":{"x_min":34.71875,"x_max":495.828125,"ha":532,"o":"m 266 -11 b 495 322 391 -11 495 127 b 266 649 495 515 395 649 b 34 316 138 649 34 510 b 266 -11 34 122 133 -11 m 270 13 b 145 319 193 13 145 90 b 261 624 145 549 184 624 b 384 319 338 624 384 549 b 270 13 384 90 345 13 m 361 743 b 422 820 395 743 422 772 b 361 897 422 867 397 897 b 301 820 326 897 301 867 b 361 743 301 772 326 743 m 169 743 b 230 820 204 743 230 772 b 169 897 230 867 205 897 b 109 820 134 897 109 867 b 169 743 109 772 134 743 "},"ǽ":{"x_min":39.765625,"x_max":735.671875,"ha":761,"o":"m 538 648 b 387 555 480 648 427 613 b 244 644 366 618 319 644 b 53 513 134 644 53 594 b 112 440 53 473 74 440 b 173 513 149 440 173 472 b 149 580 173 538 163 558 b 228 620 166 609 198 620 b 325 469 288 620 325 569 l 325 371 b 102 274 305 355 177 333 b 39 137 60 242 39 192 b 159 -8 39 62 78 -8 b 345 138 252 -8 317 53 l 350 138 b 541 -11 381 53 449 -11 b 733 152 643 -11 696 60 l 716 163 b 577 37 680 81 632 37 b 426 326 472 37 426 169 l 426 335 l 735 335 b 538 648 743 497 675 648 m 531 623 b 627 358 608 623 637 508 l 426 358 b 531 623 428 534 469 623 m 223 50 b 145 167 170 50 145 100 b 325 349 145 259 193 303 l 325 141 b 223 50 303 84 263 50 m 389 736 l 423 736 l 495 836 b 565 959 552 915 565 944 b 513 1008 565 984 541 1008 b 431 868 480 1008 469 987 l 389 736 "},"Ļ":{"x_min":33.328125,"x_max":604.171875,"ha":618,"o":"m 33 0 l 595 0 l 604 288 l 583 290 b 333 27 527 73 466 27 l 252 27 l 252 851 b 355 951 252 914 262 947 l 355 968 l 33 968 l 33 951 b 141 851 119 947 141 911 l 141 117 b 33 17 141 56 119 21 l 33 0 m 290 -377 b 413 -183 376 -325 413 -260 b 344 -83 413 -121 384 -83 b 280 -156 305 -83 280 -117 b 330 -220 280 -190 300 -220 b 358 -208 344 -220 351 -215 l 363 -210 b 277 -360 363 -260 338 -315 l 290 -377 "},"Õ":{"x_min":48.609375,"x_max":687.5,"ha":736,"o":"m 368 -19 b 687 486 543 -19 687 197 b 368 988 687 778 547 988 b 48 482 193 988 48 771 b 368 -19 48 190 187 -19 m 372 6 b 173 485 248 6 173 136 b 362 961 173 831 238 961 b 562 483 487 961 562 832 b 372 6 562 137 495 6 m 209 1071 l 236 1071 b 284 1155 247 1135 265 1155 b 438 1075 323 1155 386 1075 b 526 1242 491 1075 518 1116 l 500 1242 b 451 1159 488 1178 470 1159 b 297 1238 412 1159 350 1238 b 209 1071 244 1238 218 1198 "},"ć":{"x_min":35.265625,"x_max":450.546875,"ha":464,"o":"m 256 -11 b 450 144 357 -11 410 59 l 433 155 b 296 37 393 79 350 37 b 144 337 190 37 144 172 b 271 624 144 514 199 624 b 346 582 307 624 331 610 b 313 508 332 571 313 546 b 376 439 313 467 336 439 b 433 518 413 439 433 473 b 268 649 433 579 383 649 b 35 312 138 649 35 505 b 256 -11 35 127 121 -11 m 251 736 l 285 736 l 357 836 b 426 960 414 916 426 945 b 375 1009 426 985 403 1009 b 293 868 342 1009 331 988 l 251 736 "},"þ":{"x_min":-12.5,"x_max":501.390625,"ha":538,"o":"m 170 996 l -12 991 l -12 974 b 69 903 58 971 69 953 l 69 -180 b -1 -236 69 -227 55 -234 l -1 -252 l 265 -252 l 265 -236 b 170 -180 190 -236 170 -227 l 170 30 b 291 -11 206 2 240 -11 b 501 329 422 -11 501 140 b 320 649 501 511 437 649 b 170 554 259 649 211 615 l 170 996 m 276 13 b 170 116 229 13 193 34 l 170 525 b 273 601 202 578 233 601 b 391 322 361 601 391 473 b 276 13 391 130 362 13 "},"]":{"x_min":-16.671875,"x_max":272.21875,"ha":374,"o":"m -16 -229 l 272 -229 l 272 1061 l -16 1061 l -16 1032 l 184 1032 l 184 -200 l -16 -200 l -16 -229 "},"ẁ":{"x_min":-7.78125,"x_max":747.8125,"ha":735,"o":"m 371 444 l 279 137 l 274 137 l 176 524 b 170 569 172 542 170 557 b 225 621 170 600 185 617 l 225 638 l -7 638 l -7 621 b 79 510 43 615 56 600 l 217 -12 l 261 -12 l 383 393 l 481 -12 l 528 -12 l 654 493 b 747 621 674 571 708 615 l 747 638 l 565 638 l 565 621 b 631 546 610 612 631 592 b 615 451 631 521 625 490 l 540 144 l 536 144 l 450 524 b 443 571 446 543 443 562 b 503 621 443 604 460 617 l 503 638 l 275 638 l 275 621 b 356 510 321 615 333 603 l 371 444 m 385 736 l 418 736 l 376 868 b 295 1009 339 988 328 1009 b 243 960 267 1009 243 985 b 313 836 243 945 256 916 l 385 736 "},"ĭ":{"x_min":5.5625,"x_max":275,"ha":292,"o":"m 26 1 l 275 1 l 275 18 b 200 73 212 19 200 26 l 200 642 l 26 636 l 26 619 b 98 549 83 618 98 590 l 98 73 b 26 18 98 26 83 19 l 26 1 m 138 745 b 273 952 215 745 270 804 l 245 952 b 140 820 237 874 200 820 b 33 952 77 820 41 874 l 5 952 b 138 745 8 804 63 745 "},"8":{"x_min":43.0625,"x_max":508.328125,"ha":551,"o":"m 43 218 b 281 -15 43 84 131 -15 b 508 243 397 -15 508 95 b 344 501 508 350 459 433 b 488 725 438 561 488 622 b 277 932 488 840 400 932 b 65 683 155 932 65 825 b 197 455 65 586 111 512 b 43 218 105 407 43 314 m 240 430 b 405 197 365 366 405 301 b 273 9 405 52 351 9 b 140 225 187 9 140 83 b 222 440 140 321 172 400 b 240 430 227 436 233 433 m 162 729 b 273 906 162 860 209 906 b 394 710 352 906 394 838 b 322 512 394 625 379 560 l 322 514 b 162 729 213 571 162 629 "},"R":{"x_min":33.328125,"x_max":727.78125,"ha":701,"o":"m 252 499 l 252 941 l 323 941 b 500 729 459 941 500 857 b 336 499 500 592 472 499 l 252 499 m 252 471 l 330 471 b 483 303 445 471 475 442 l 493 170 b 626 -8 501 43 523 -8 b 727 11 659 -8 695 -1 l 727 26 b 612 175 643 26 623 43 l 605 232 b 411 482 591 382 558 471 l 411 486 b 620 733 563 517 620 612 b 340 968 620 867 541 968 l 33 968 l 33 952 b 141 852 119 947 141 911 l 141 118 b 33 18 141 56 119 22 l 33 0 l 356 0 l 356 18 b 252 118 269 22 252 54 l 252 471 "},"ť":{"x_min":4.171875,"x_max":383.328125,"ha":353,"o":"m 219 -9 b 348 123 280 -9 325 33 l 329 129 b 256 40 311 63 284 40 b 198 136 218 40 198 65 l 198 600 l 343 600 l 343 636 l 198 636 l 198 867 l 98 817 l 98 638 l 4 614 l 4 600 l 97 600 l 97 151 b 219 -9 97 34 140 -9 m 286 738 l 300 738 l 358 902 b 383 1003 375 950 383 982 b 333 1050 383 1036 358 1050 b 281 978 305 1050 281 1039 b 283 889 281 959 283 913 l 286 738 "},"Ľ":{"x_min":33.328125,"x_max":604.171875,"ha":618,"o":"m 33 0 l 595 0 l 604 289 l 583 290 b 333 27 527 73 466 27 l 252 27 l 252 852 b 355 952 252 914 262 947 l 355 968 l 33 968 l 33 952 b 141 852 119 947 141 911 l 141 118 b 33 18 141 56 119 22 l 33 0 m 441 736 l 455 736 l 513 900 b 538 1002 530 949 538 981 b 488 1049 538 1035 513 1049 b 437 977 461 1049 437 1038 b 438 888 437 957 438 911 l 441 736 "},"Ż":{"x_min":43.0625,"x_max":608.328125,"ha":643,"o":"m 43 0 l 593 0 l 608 305 l 586 308 b 372 27 508 98 455 27 l 170 27 l 606 947 l 606 968 l 83 968 l 65 674 l 87 671 b 300 941 158 871 226 941 l 479 941 l 43 20 l 43 0 m 340 1077 b 404 1156 380 1077 404 1110 b 341 1234 404 1202 380 1234 b 277 1153 301 1234 277 1199 b 340 1077 277 1107 301 1077 "},"o":{"x_min":34.71875,"x_max":495.828125,"ha":532,"o":"m 266 -11 b 495 322 391 -11 495 127 b 266 649 495 515 395 649 b 34 316 138 649 34 510 b 266 -11 34 122 133 -11 m 270 13 b 145 319 193 13 145 90 b 261 624 145 549 184 624 b 384 319 338 624 384 549 b 270 13 384 90 345 13 "},"5":{"x_min":39.78125,"x_max":496,"ha":536,"o":"m 252 -15 b 496 284 406 -15 496 139 b 273 569 496 429 434 569 b 110 486 209 569 153 544 l 121 807 l 464 807 l 473 917 l 95 917 l 81 447 l 105 435 b 256 542 150 511 198 542 b 377 284 333 542 377 458 b 245 9 377 102 340 9 b 127 76 180 9 143 44 b 173 169 155 97 173 125 b 110 248 173 209 152 248 b 39 157 66 248 39 208 b 252 -15 39 50 142 -15 "},"ħ":{"x_min":2.78125,"x_max":548.609375,"ha":556,"o":"m 11 0 l 244 0 l 244 16 b 184 72 198 18 184 25 l 184 464 b 295 585 215 543 252 585 b 376 440 356 585 376 530 l 376 72 b 315 16 376 25 362 18 l 315 0 l 548 0 l 548 16 b 477 72 490 18 477 25 l 477 482 b 355 644 477 586 433 644 b 184 505 288 644 227 599 l 184 795 l 323 795 l 323 825 l 184 825 l 184 996 l 2 991 l 2 974 b 83 903 73 971 83 953 l 83 825 l 15 825 l 15 795 l 83 795 l 83 72 b 11 16 83 25 68 18 l 11 0 "},"õ":{"x_min":34.71875,"x_max":495.828125,"ha":532,"o":"m 266 -11 b 495 322 391 -11 495 127 b 266 649 495 515 395 649 b 34 316 138 649 34 510 b 266 -11 34 122 133 -11 m 270 13 b 145 319 193 13 145 90 b 261 624 145 549 184 624 b 384 319 338 624 384 549 b 270 13 384 90 345 13 m 106 738 l 133 738 b 181 821 144 802 162 821 b 336 742 220 821 283 742 b 423 909 388 742 415 782 l 397 909 b 348 825 386 845 368 825 b 194 904 309 825 247 904 b 106 738 141 904 115 864 "},",":{"x_min":20.828125,"x_max":194.4375,"ha":240,"o":"m 33 -200 b 194 37 150 -137 194 -61 b 113 141 194 99 162 141 b 45 60 73 141 45 104 b 102 -9 45 13 76 -9 b 133 2 113 -9 126 -5 l 137 0 b 20 -180 133 -61 93 -137 l 33 -200 "},"d":{"x_min":34.71875,"x_max":538.890625,"ha":544,"o":"m 230 -11 b 366 68 288 -11 333 22 l 366 -5 l 538 0 l 538 15 b 466 66 481 16 466 33 l 466 996 l 284 990 l 284 974 b 365 903 355 971 365 953 l 365 624 b 266 649 337 639 313 649 b 34 312 130 649 34 505 b 230 -11 34 133 106 -11 m 275 38 b 144 312 183 38 144 155 b 270 624 144 501 184 624 b 365 565 315 624 338 604 l 365 101 b 275 38 343 65 318 38 "},"\"":{"x_min":62.5,"x_max":400,"ha":428,"o":"m 262 615 l 316 726 b 393 892 356 810 377 849 b 400 927 397 903 400 917 b 344 972 400 956 373 972 b 295 929 319 972 304 956 b 263 742 287 902 280 847 l 244 621 l 262 615 m 80 615 l 134 726 b 211 892 175 810 195 849 b 218 927 215 903 218 917 b 162 972 218 956 191 972 b 113 929 137 972 122 956 b 81 742 105 902 98 847 l 62 621 l 80 615 "},"˙":{"x_min":43.0625,"x_max":169.4375,"ha":213,"o":"m 105 743 b 169 822 145 743 169 777 b 106 900 169 868 145 900 b 43 820 66 900 43 865 b 105 743 43 774 66 743 "},"ê":{"x_min":35.21875,"x_max":453.671875,"ha":479,"o":"m 260 -11 b 451 152 361 -11 414 61 l 434 164 b 296 37 398 82 350 37 b 144 326 190 37 144 169 l 144 336 l 453 336 b 257 649 461 497 393 649 b 35 312 135 649 35 503 b 260 -11 35 129 125 -11 m 250 624 b 346 358 326 624 355 508 l 144 358 b 250 624 147 535 187 624 m 117 736 l 144 736 l 257 870 l 369 736 l 397 736 l 272 991 l 243 991 l 117 736 "},"„":{"x_min":20.828125,"x_max":391.671875,"ha":438,"o":"m 230 -200 b 391 37 347 -137 391 -61 b 311 141 391 99 359 141 b 243 60 270 141 243 104 b 300 -9 243 13 273 -9 b 330 2 311 -9 323 -5 l 334 0 b 218 -180 330 -61 290 -137 l 230 -200 m 33 -200 b 194 37 150 -137 194 -61 b 113 141 194 99 162 141 b 45 60 73 141 45 104 b 102 -9 45 13 76 -9 b 133 2 113 -9 126 -5 l 137 0 b 20 -180 133 -61 93 -137 l 33 -200 "},"ľ":{"x_min":15.28125,"x_max":390.28125,"ha":292,"o":"m 25 0 l 270 0 l 270 16 b 198 72 211 18 198 25 l 198 996 l 15 991 l 15 974 b 97 903 87 971 97 953 l 97 72 b 25 16 97 25 83 18 l 25 0 m 293 736 l 306 736 l 365 900 b 390 1002 381 949 390 981 b 340 1049 390 1035 365 1049 b 288 977 312 1049 288 1038 b 290 888 288 957 290 911 l 293 736 "},"Â":{"x_min":-24.953125,"x_max":701.40625,"ha":675,"o":"m 473 140 b 383 18 494 56 479 23 l 383 0 l 701 0 l 701 18 b 581 162 625 31 606 58 l 366 992 l 325 992 l 104 201 b -24 18 70 84 44 29 l -24 0 l 204 0 l 204 18 b 138 211 105 34 102 79 l 181 373 l 413 373 l 473 140 m 188 400 l 300 810 l 304 810 l 406 400 l 188 400 m 206 1070 l 234 1070 l 347 1203 l 459 1070 l 487 1070 l 362 1324 l 333 1324 l 206 1070 "},"Į":{"x_min":39.078125,"x_max":369.640625,"ha":411,"o":"m 39 0 l 229 0 l 201 -29 b 102 -193 119 -116 102 -152 b 193 -282 102 -250 141 -282 b 287 -230 241 -282 277 -243 l 276 -218 b 226 -243 261 -233 244 -243 b 172 -173 193 -243 172 -218 b 247 -13 172 -134 186 -91 l 258 0 l 369 0 l 369 18 b 259 118 279 22 259 56 l 259 852 b 369 952 259 911 279 947 l 369 968 l 39 968 l 39 952 b 150 852 130 947 150 911 l 150 118 b 39 18 150 56 130 22 l 39 0 "},"ė":{"x_min":34.9375,"x_max":453.671875,"ha":479,"o":"m 259 -11 b 451 152 361 -11 414 61 l 434 164 b 296 37 398 82 350 37 b 144 326 190 37 144 169 l 144 336 l 453 336 b 257 649 461 497 393 649 b 34 312 134 649 34 503 b 259 -11 34 129 125 -11 m 250 624 b 346 358 326 624 355 508 l 144 358 b 250 624 147 535 187 624 m 257 743 b 321 822 297 743 321 777 b 258 900 321 868 297 900 b 194 820 218 900 194 865 b 257 743 194 774 218 743 "},"Ţ":{"x_min":36.109375,"x_max":652.78125,"ha":686,"o":"m 172 0 l 516 0 l 516 17 b 400 117 429 21 400 56 l 400 940 l 441 940 b 633 672 518 940 580 836 l 652 673 l 647 968 l 43 968 l 36 673 l 56 672 b 248 940 112 847 176 940 l 288 940 l 288 117 b 172 17 288 56 261 21 l 172 0 m 294 -377 b 418 -183 380 -325 418 -260 b 348 -83 418 -121 388 -83 b 284 -156 309 -83 284 -117 b 334 -220 284 -190 304 -220 b 362 -208 348 -220 355 -215 l 368 -210 b 281 -360 368 -260 343 -315 l 294 -377 "},"Í":{"x_min":39.953125,"x_max":370.515625,"ha":411,"o":"m 39 0 l 370 0 l 370 18 b 260 118 280 22 260 56 l 260 852 b 370 952 260 911 280 947 l 370 968 l 39 968 l 39 952 b 151 852 131 947 151 911 l 151 118 b 39 18 151 56 131 22 l 39 0 m 178 1070 l 212 1070 l 284 1170 b 353 1294 341 1249 353 1278 b 302 1342 353 1319 330 1342 b 220 1202 269 1342 258 1321 l 178 1070 "},"´":{"x_min":43,"x_max":218,"ha":246,"o":"m 43 736 l 76 736 l 148 836 b 218 960 205 916 218 945 b 166 1009 218 985 194 1009 b 84 868 133 1009 122 988 l 43 736 "},"Ú":{"x_min":16.671875,"x_max":747.21875,"ha":750,"o":"m 390 -19 b 636 283 565 -19 636 98 l 636 782 b 747 952 636 890 652 932 l 747 968 l 476 968 l 476 952 b 605 782 576 935 605 890 l 605 298 b 556 87 605 195 590 136 b 431 26 530 50 480 26 b 234 282 302 26 234 104 l 234 852 b 334 952 234 914 250 947 l 334 968 l 16 968 l 16 952 b 123 852 102 947 123 911 l 123 254 b 390 -19 123 70 220 -19 m 376 1070 l 409 1070 l 481 1170 b 551 1294 538 1249 551 1278 b 500 1342 551 1319 527 1342 b 418 1202 466 1342 455 1321 l 376 1070 "}," ":{"x_min":0,"x_max":0,"ha":185},"Ŷ":{"x_min":-8.421875,"x_max":684.640625,"ha":674,"o":"m 369 478 l 224 828 b 302 952 194 902 205 943 l 302 968 l -8 968 l -8 952 b 105 836 56 936 69 921 l 276 429 l 276 118 b 165 18 276 56 256 22 l 165 0 l 495 0 l 495 18 b 384 118 405 22 384 56 l 384 430 l 537 796 b 684 952 587 914 619 935 l 684 968 l 449 968 l 449 952 b 504 802 545 931 545 900 l 369 478 m 224 1070 l 252 1070 l 365 1203 l 477 1070 l 505 1070 l 380 1324 l 351 1324 l 224 1070 "},"Ý":{"x_min":-8.421875,"x_max":684.140625,"ha":674,"o":"m 368 478 l 224 828 b 302 952 194 902 205 943 l 302 968 l -8 968 l -8 952 b 105 836 56 936 69 921 l 276 429 l 276 118 b 165 18 276 56 256 22 l 165 0 l 495 0 l 495 18 b 384 118 404 22 384 56 l 384 430 l 536 796 b 684 952 586 914 618 935 l 684 968 l 449 968 l 449 952 b 503 802 545 931 545 900 l 368 478 m 338 1070 l 371 1070 l 443 1170 b 513 1294 500 1249 513 1278 b 461 1342 513 1319 489 1342 b 379 1202 428 1342 417 1321 l 338 1070 "}," ":{"x_min":0,"x_max":0,"ha":1389},"ą":{"x_min":39.765625,"x_max":492.546875,"ha":488,"o":"m 492 31 l 488 45 b 413 118 423 21 413 50 l 413 467 b 243 645 413 592 355 645 b 53 514 134 645 53 595 b 111 441 53 474 74 441 b 173 514 149 441 173 473 b 149 581 173 539 163 559 b 228 621 166 610 198 621 b 311 470 288 621 311 570 l 311 373 b 102 275 291 356 177 334 b 39 138 60 243 39 193 b 166 -7 39 63 78 -7 b 311 93 224 -7 273 31 l 316 93 b 403 -6 323 17 357 -6 b 434 -1 413 -6 424 -4 l 409 -26 b 305 -192 339 -96 305 -138 b 395 -281 305 -249 343 -281 b 489 -229 443 -281 480 -242 l 478 -217 b 428 -242 463 -232 446 -242 b 374 -172 395 -242 374 -217 b 452 -14 374 -133 388 -88 l 492 31 m 223 51 b 145 168 170 51 145 102 b 311 350 145 260 180 304 l 311 131 b 223 51 292 88 260 51 "},"Ö":{"x_min":48.609375,"x_max":687.5,"ha":736,"o":"m 368 -19 b 687 486 543 -19 687 197 b 368 988 687 778 547 988 b 48 482 193 988 48 771 b 368 -19 48 190 187 -19 m 372 6 b 173 485 248 6 173 136 b 362 961 173 831 238 961 b 562 483 487 961 562 832 b 372 6 562 137 495 6 m 463 1077 b 525 1153 498 1077 525 1106 b 463 1231 525 1200 500 1231 b 404 1153 429 1231 404 1200 b 463 1077 404 1106 429 1077 m 272 1077 b 333 1153 306 1077 333 1106 b 272 1231 333 1200 308 1231 b 212 1153 237 1231 212 1200 b 272 1077 212 1106 237 1077 "},"z":{"x_min":32.140625,"x_max":444.640625,"ha":472,"o":"m 32 0 l 426 0 l 440 219 l 418 222 b 261 27 362 77 326 27 l 148 27 l 444 621 l 444 638 l 66 638 l 52 428 l 75 425 b 225 610 134 567 165 610 l 329 610 l 32 16 l 32 0 "},"™":{"x_min":44.4375,"x_max":686.109375,"ha":715,"o":"m 326 629 l 431 629 l 431 642 b 391 710 395 649 391 664 l 391 927 l 397 927 l 483 629 l 506 629 l 587 927 l 593 927 l 593 669 b 556 644 593 651 584 646 l 556 629 l 686 629 l 686 644 b 645 669 655 646 645 651 l 645 928 b 686 954 645 946 655 952 l 686 968 l 576 968 l 511 726 l 505 726 l 440 968 l 326 968 l 326 954 b 369 907 359 953 369 932 l 369 710 b 326 642 369 664 362 647 l 326 629 m 95 629 l 238 629 l 238 644 b 193 669 202 644 193 651 l 193 952 l 204 952 b 275 856 237 952 255 921 l 290 856 l 287 968 l 47 968 l 44 856 l 59 856 b 129 952 79 921 97 952 l 141 952 l 141 669 b 95 644 141 651 130 644 l 95 629 "},"Ř":{"x_min":33.828125,"x_max":728.28125,"ha":701,"o":"m 253 499 l 253 941 l 324 941 b 500 729 460 941 500 857 b 336 499 500 592 472 499 l 253 499 m 253 471 l 331 471 b 483 303 446 471 475 442 l 493 170 b 626 -8 501 43 524 -8 b 728 11 660 -8 696 -1 l 728 26 b 613 175 643 26 624 43 l 606 232 b 411 482 592 382 558 471 l 411 486 b 621 733 564 517 621 612 b 340 968 621 867 542 968 l 33 968 l 33 952 b 142 852 119 947 142 911 l 142 118 b 33 18 142 56 119 22 l 33 0 l 357 0 l 357 18 b 253 118 269 22 253 54 l 253 471 m 332 1070 l 361 1070 l 488 1324 l 460 1324 l 347 1191 l 235 1324 l 207 1324 l 332 1070 "},"ã":{"x_min":39.765625,"x_max":492.546875,"ha":488,"o":"m 166 -7 b 311 93 224 -7 273 31 l 316 93 b 403 -6 323 17 357 -6 b 492 31 435 -6 457 5 l 488 45 b 413 118 423 21 413 50 l 413 467 b 243 645 413 592 355 645 b 53 514 134 645 53 595 b 111 441 53 474 74 441 b 173 514 149 441 173 473 b 149 581 173 539 163 559 b 228 621 166 610 198 621 b 311 470 288 621 311 570 l 311 373 b 102 275 291 356 177 334 b 39 138 60 243 39 193 b 166 -7 39 63 78 -7 m 223 51 b 145 168 170 51 145 102 b 311 350 145 260 180 304 l 311 131 b 223 51 292 88 260 51 m 91 738 l 117 738 b 166 822 128 802 146 822 b 320 742 205 822 267 742 b 407 909 373 742 399 783 l 381 909 b 332 826 370 845 352 826 b 178 905 293 826 231 905 b 91 738 125 905 99 865 "},"Ň":{"x_min":33.328125,"x_max":770.828125,"ha":776,"o":"m 623 -11 l 661 -11 l 661 782 b 770 952 661 890 677 932 l 770 968 l 501 968 l 501 952 b 630 782 600 935 630 890 l 630 214 l 629 214 l 236 968 l 33 968 l 33 952 b 150 793 118 949 150 878 l 150 187 b 33 18 150 79 126 36 l 33 0 l 301 0 l 301 18 b 180 187 200 34 180 79 l 180 832 l 181 832 l 623 -11 m 394 1070 l 423 1070 l 550 1324 l 522 1324 l 409 1191 l 297 1324 l 269 1324 l 394 1070 "},"æ":{"x_min":39.765625,"x_max":735.671875,"ha":761,"o":"m 538 648 b 387 555 480 648 427 613 b 244 644 366 618 319 644 b 53 513 134 644 53 594 b 112 440 53 473 74 440 b 173 513 149 440 173 472 b 149 580 173 538 163 558 b 228 620 166 609 198 620 b 326 469 288 620 326 569 l 326 371 b 102 274 305 355 177 333 b 39 137 60 242 39 192 b 159 -8 39 62 78 -8 b 345 138 252 -8 317 53 l 351 138 b 541 -11 381 53 449 -11 b 733 152 643 -11 696 60 l 716 163 b 577 37 680 81 632 37 b 426 326 472 37 426 169 l 426 335 l 735 335 b 538 648 743 497 675 648 m 531 623 b 627 358 608 623 637 508 l 426 358 b 531 623 429 534 469 623 m 223 50 b 145 167 170 50 145 100 b 326 349 145 259 193 303 l 326 141 b 223 50 303 84 263 50 "},"É":{"x_min":33.328125,"x_max":636.109375,"ha":690,"o":"m 33 0 l 631 0 l 636 294 l 616 296 b 372 27 555 97 512 27 l 252 27 l 252 483 l 298 483 b 445 312 380 483 418 465 l 465 312 l 465 682 l 445 682 b 298 511 418 529 380 511 l 252 511 l 252 941 l 373 941 b 587 681 491 941 527 867 l 606 682 l 602 968 l 33 968 l 33 952 b 141 852 119 947 141 911 l 141 118 b 33 18 141 56 119 22 l 33 0 m 334 1070 l 368 1070 l 440 1170 b 509 1294 497 1249 509 1278 b 458 1342 509 1319 486 1342 b 376 1202 425 1342 413 1321 l 334 1070 "},"ŀ":{"x_min":15.28125,"x_max":388.890625,"ha":361,"o":"m 327 403 b 388 479 366 403 388 435 b 329 554 388 524 366 554 b 268 476 290 554 268 521 b 327 403 268 432 290 403 m 25 0 l 270 0 l 270 16 b 198 72 211 18 198 25 l 198 996 l 15 991 l 15 974 b 97 903 87 971 97 953 l 97 72 b 25 16 97 25 83 18 l 25 0 "},"~":{"x_min":41.671875,"x_max":358.328125,"ha":400,"o":"m 41 394 l 68 394 b 113 478 79 458 97 478 b 261 398 152 478 215 398 b 358 565 320 398 350 439 l 331 565 b 286 482 320 501 302 482 b 138 561 247 482 184 561 b 41 394 79 561 50 521 "},"Ċ":{"x_min":48.609375,"x_max":633.328125,"ha":667,"o":"m 366 -19 b 633 301 527 -19 590 115 l 609 309 b 400 23 566 132 505 23 b 173 494 284 23 173 180 b 375 961 173 833 276 961 b 583 664 462 961 523 861 l 602 664 l 602 996 l 586 996 l 547 924 b 379 988 494 967 448 988 b 48 472 219 988 48 768 b 366 -19 48 166 204 -19 m 381 1077 b 445 1156 422 1077 445 1110 b 383 1234 445 1202 422 1234 b 319 1153 343 1234 319 1199 b 381 1077 319 1107 343 1077 "},"¡":{"x_min":65.28125,"x_max":202.78125,"ha":268,"o":"m 133 840 b 202 921 173 840 202 877 b 133 1002 202 966 175 1002 b 65 921 93 1002 65 966 b 133 840 65 877 91 840 m 133 -19 b 200 80 177 -19 200 12 b 143 724 200 209 156 428 l 123 724 b 65 80 108 428 65 209 b 133 -19 65 12 88 -19 "},"ẅ":{"x_min":-8.328125,"x_max":747.21875,"ha":735,"o":"m 370 444 l 279 137 l 273 137 l 176 524 b 169 569 172 542 169 557 b 225 621 169 600 184 617 l 225 638 l -8 638 l -8 621 b 79 510 43 615 55 600 l 216 -12 l 261 -12 l 383 393 l 480 -12 l 527 -12 l 654 493 b 747 621 673 571 708 615 l 747 638 l 565 638 l 565 621 b 630 546 609 612 630 592 b 615 451 630 521 625 490 l 540 144 l 536 144 l 450 524 b 443 571 445 543 443 562 b 502 621 443 604 459 617 l 502 638 l 275 638 l 275 621 b 355 510 320 615 333 603 l 370 444 m 484 743 b 545 820 519 743 545 772 b 484 897 545 867 520 897 b 425 820 450 897 425 867 b 484 743 425 772 450 743 m 293 743 b 354 820 327 743 354 772 b 293 897 354 867 329 897 b 233 820 258 897 233 867 b 293 743 233 772 258 743 "},"[":{"x_min":101.390625,"x_max":390.28125,"ha":374,"o":"m 101 -229 l 390 -229 l 390 -200 l 188 -200 l 188 1032 l 390 1032 l 390 1061 l 101 1061 l 101 -229 "},"%":{"x_min":42.421875,"x_max":775.765625,"ha":821,"o":"m 603 22 b 538 139 566 22 538 65 b 686 468 538 274 593 468 b 745 341 722 468 745 427 b 603 22 745 192 677 22 m 584 -14 b 775 342 706 -14 775 202 b 663 521 775 455 732 521 b 445 181 549 521 445 335 b 584 -14 445 63 495 -14 m 342 752 b 200 434 342 603 274 434 b 135 550 163 434 135 477 b 250 872 135 669 177 833 b 339 801 278 837 307 815 b 342 752 341 787 342 770 m 260 933 b 42 592 146 933 42 746 b 181 396 42 474 92 396 b 372 753 303 396 372 613 b 371 790 372 766 372 778 b 431 783 389 784 410 783 b 582 866 491 783 545 819 l 588 862 l 138 -34 l 191 -34 l 668 956 l 632 956 b 446 820 570 860 503 820 b 359 847 410 820 382 831 b 260 933 342 902 307 933 "},"P":{"x_min":33.328125,"x_max":622.21875,"ha":653,"o":"m 33 0 l 366 0 l 366 18 b 252 118 272 22 252 54 l 252 411 l 326 411 b 622 699 540 411 622 564 b 331 968 622 843 543 968 l 33 968 l 33 952 b 141 852 119 947 141 911 l 141 118 b 33 18 141 56 119 22 l 33 0 m 252 439 l 252 941 l 331 941 b 500 696 461 941 500 828 b 329 439 500 543 463 439 l 252 439 "},"_":{"x_min":-1.390625,"x_max":447.21875,"ha":446,"o":"m -1 0 l 447 0 l 447 43 l -1 43 l -1 0 "},"Ŕ":{"x_min":33.328125,"x_max":727.78125,"ha":701,"o":"m 252 499 l 252 941 l 323 941 b 500 729 459 941 500 857 b 336 499 500 592 472 499 l 252 499 m 252 471 l 330 471 b 483 303 445 471 475 442 l 493 170 b 626 -8 501 43 523 -8 b 727 11 659 -8 695 -1 l 727 26 b 612 175 643 26 623 43 l 605 232 b 411 482 591 382 558 471 l 411 486 b 620 733 563 517 620 612 b 340 968 620 867 541 968 l 33 968 l 33 952 b 141 852 119 947 141 911 l 141 118 b 33 18 141 56 119 22 l 33 0 l 356 0 l 356 18 b 252 118 269 22 252 54 l 252 471 m 320 1070 l 354 1070 l 426 1170 b 495 1294 483 1249 495 1278 b 444 1342 495 1319 472 1342 b 362 1202 411 1342 400 1321 l 320 1070 "},"ñ":{"x_min":22.21875,"x_max":559.71875,"ha":565,"o":"m 22 1 l 255 1 l 255 18 b 195 73 209 19 195 26 l 195 465 b 306 586 225 544 262 586 b 386 442 368 586 386 532 l 386 73 b 326 18 386 26 372 19 l 326 1 l 559 1 l 559 18 b 487 73 500 19 487 26 l 487 483 b 366 646 487 587 444 646 b 193 507 298 646 236 600 l 193 642 l 22 636 l 22 619 b 94 549 80 618 94 590 l 94 73 b 22 18 94 26 80 19 l 22 1 m 147 739 l 173 739 b 222 822 184 803 202 822 b 376 743 261 822 323 743 b 463 910 429 743 455 783 l 437 910 b 388 827 426 846 408 827 b 234 906 350 827 287 906 b 147 739 181 906 155 865 "},"‚":{"x_min":20.828125,"x_max":194.4375,"ha":240,"o":"m 33 -200 b 194 37 150 -137 194 -61 b 113 141 194 99 162 141 b 45 60 73 141 45 104 b 102 -9 45 13 76 -9 b 133 2 113 -9 126 -5 l 137 0 b 20 -180 133 -61 93 -137 l 33 -200 "},"Æ":{"x_min":-41.671875,"x_max":968.0625,"ha":1026,"o":"m 240 391 l 477 391 l 477 118 b 369 18 477 56 455 22 l 369 0 l 968 0 l 968 294 l 952 296 b 708 27 891 97 848 27 l 588 27 l 588 483 l 634 483 b 781 312 716 483 754 465 l 801 312 l 801 682 l 781 682 b 634 511 754 529 716 511 l 588 511 l 588 941 l 709 941 b 923 681 827 941 863 867 l 943 682 l 943 968 l 309 968 l 309 952 b 411 881 383 936 411 916 b 395 827 411 867 405 849 l 138 246 b -41 18 84 125 30 41 l -41 0 l 190 0 l 190 18 b 126 91 145 30 126 54 b 165 221 126 123 141 166 l 240 391 m 477 418 l 251 418 l 470 914 l 477 914 l 477 418 "},"ğ":{"x_min":17.515625,"x_max":487.5,"ha":474,"o":"m 248 -242 b 95 -109 141 -242 95 -182 b 171 4 95 -53 120 -14 l 270 4 b 400 -96 368 4 400 -32 b 248 -242 400 -188 333 -242 m 238 232 b 146 427 181 232 146 299 b 230 622 146 555 173 622 b 322 427 290 622 322 541 b 238 232 322 299 295 232 m 235 645 b 42 424 138 645 42 558 b 131 239 42 335 80 274 b 53 120 80 206 53 162 b 141 10 53 63 77 32 l 141 6 b 17 -131 64 -7 17 -67 b 221 -264 17 -211 98 -264 b 468 -60 383 -264 468 -170 b 283 105 468 63 404 105 l 207 105 b 110 163 125 105 110 135 b 155 227 110 188 124 207 b 235 209 180 214 207 209 b 427 430 330 209 427 295 b 350 602 427 508 394 566 b 397 666 359 630 377 661 b 445 608 397 624 422 608 b 487 661 470 608 487 630 b 429 720 487 695 469 720 b 329 617 380 720 349 676 b 235 645 298 636 266 645 m 242 744 b 377 951 319 744 375 804 l 350 951 b 244 819 341 873 304 819 b 136 951 181 819 145 873 l 109 951 b 242 744 111 804 167 744 "},"Ū":{"x_min":16.671875,"x_max":747.21875,"ha":750,"o":"m 390 -19 b 636 283 565 -19 636 98 l 636 782 b 747 952 636 890 652 932 l 747 968 l 476 968 l 476 952 b 605 782 576 935 605 890 l 605 298 b 556 87 605 195 590 136 b 431 26 530 50 480 26 b 234 282 302 26 234 104 l 234 852 b 334 952 234 914 250 947 l 334 968 l 16 968 l 16 952 b 123 852 102 947 123 911 l 123 254 b 390 -19 123 70 220 -19 m 275 1111 l 531 1111 l 531 1166 l 275 1166 l 275 1111 "},"ª":{"x_min":50.15625,"x_max":397.375,"ha":431,"o":"m 147 459 b 257 537 191 459 227 490 l 259 537 b 329 460 265 478 293 460 b 397 490 352 460 369 469 l 393 500 b 337 557 343 481 337 504 l 337 824 b 207 960 337 920 291 960 b 61 856 122 960 61 917 b 105 799 61 825 76 799 b 152 856 134 799 152 824 b 134 907 152 875 144 889 b 194 938 147 929 170 938 b 257 821 240 938 257 897 l 257 753 b 97 678 241 740 154 722 b 50 572 65 653 50 614 b 147 459 50 513 80 459 m 194 510 b 139 594 154 510 139 544 b 257 731 139 661 164 699 l 257 572 b 194 510 241 537 223 510 "},"Œ":{"x_min":44.4375,"x_max":998.609375,"ha":1053,"o":"m 416 0 l 994 0 l 998 294 l 979 296 b 734 27 918 97 875 27 l 615 27 l 615 483 l 661 483 b 808 312 743 483 780 465 l 827 312 l 827 682 l 808 682 b 661 511 780 529 743 511 l 615 511 l 615 941 l 736 941 b 950 681 854 941 890 867 l 969 682 l 965 968 l 405 968 b 44 468 154 968 44 721 b 416 0 44 204 172 0 m 419 27 b 169 476 262 27 169 112 b 423 941 169 835 243 941 b 504 852 476 941 504 911 l 504 118 b 419 27 504 56 475 27 "},"ﬀ":{"x_min":17.640625,"x_max":710.71875,"ha":624,"o":"m 313 1000 b 157 927 242 1000 191 972 b 102 688 119 872 102 783 l 102 638 l 17 614 l 17 600 l 102 600 l 102 73 b 31 18 102 26 89 19 l 31 1 l 271 1 l 271 18 b 203 73 219 19 203 26 l 203 600 l 400 600 l 400 73 b 339 18 400 26 385 19 l 339 1 l 598 1 l 598 18 b 502 73 525 19 502 26 l 502 600 l 631 600 l 631 636 l 502 636 l 502 778 b 531 957 502 886 513 932 b 575 982 544 975 556 982 b 609 963 589 982 601 975 b 594 906 602 949 594 921 b 653 836 594 857 620 836 b 710 907 688 836 710 863 b 582 1006 710 960 667 1006 b 457 939 535 1006 491 984 b 455 935 456 938 455 936 b 313 1000 428 974 377 1000 m 400 693 l 400 636 l 203 636 l 203 770 b 237 942 203 839 217 916 b 307 977 253 966 278 977 b 381 936 339 977 369 961 b 356 871 367 920 356 893 b 407 800 356 828 377 804 b 400 693 402 770 400 733 "},"Ą":{"x_min":-25.96875,"x_max":700.109375,"ha":675,"o":"m 554 -282 b 648 -230 602 -282 639 -243 l 637 -218 b 587 -243 622 -233 605 -243 b 533 -173 554 -243 533 -218 b 608 -13 533 -134 547 -91 l 619 0 l 700 0 l 700 18 b 580 162 623 31 605 58 l 365 992 l 324 992 l 103 201 b -25 18 69 84 43 29 l -25 0 l 203 0 l 203 18 b 137 211 104 34 101 79 l 180 373 l 412 373 l 472 140 b 382 18 493 56 478 23 l 382 0 l 590 0 l 562 -29 b 464 -193 480 -116 464 -152 b 554 -282 464 -250 503 -282 m 187 400 l 299 810 l 303 810 l 405 400 l 187 400 "},"T":{"x_min":36.109375,"x_max":652.78125,"ha":686,"o":"m 172 0 l 516 0 l 516 18 b 400 118 429 22 400 56 l 400 941 l 441 941 b 633 672 518 941 580 836 l 652 674 l 647 968 l 43 968 l 36 674 l 56 672 b 248 941 112 847 176 941 l 288 941 l 288 118 b 172 18 288 56 261 22 l 172 0 "},"š":{"x_min":42.109375,"x_max":386.5625,"ha":422,"o":"m 42 -11 l 64 -11 l 97 36 b 218 -11 128 6 182 -11 b 386 197 328 -11 386 86 b 240 382 386 315 311 350 b 115 515 176 411 115 439 b 201 624 115 581 154 624 b 340 454 253 624 285 574 l 362 454 l 362 649 l 342 649 l 319 610 b 215 649 296 629 254 649 b 44 451 112 649 44 564 b 187 276 44 337 117 308 b 318 125 254 246 318 212 b 229 13 318 73 286 13 b 65 202 169 13 136 56 l 42 202 l 42 -11 m 200 736 l 229 736 l 356 991 l 328 991 l 215 857 l 103 991 l 75 991 l 200 736 "},"Þ":{"x_min":33.328125,"x_max":608.328125,"ha":643,"o":"m 33 0 l 366 0 l 366 18 b 252 118 272 22 252 54 l 252 230 l 322 230 b 608 504 536 230 608 369 b 327 767 608 649 538 767 l 252 767 l 252 850 b 366 950 252 914 272 946 l 366 968 l 33 968 l 33 950 b 141 850 119 946 141 911 l 141 118 b 33 18 141 56 119 22 l 33 0 m 252 258 l 252 739 l 327 739 b 486 501 456 739 486 633 b 325 258 486 348 459 258 l 252 258 "},"j":{"x_min":-80.75,"x_max":209.53125,"ha":283,"o":"m 144 767 b 209 846 184 767 209 800 b 145 924 209 892 184 924 b 80 843 105 924 80 889 b 144 767 80 797 105 767 m 38 -264 b 152 -209 80 -264 123 -250 b 201 20 190 -158 201 -94 l 201 642 l 17 636 l 17 619 b 99 549 83 619 99 590 l 99 -118 b 48 -240 99 -207 80 -240 b 10 -222 31 -240 19 -233 b 35 -169 24 -208 35 -190 b -21 -104 35 -123 13 -104 b -80 -173 -52 -104 -80 -130 b 38 -264 -80 -226 -34 -264 "},"1":{"x_min":37.5,"x_max":402.78125,"ha":428,"o":"m 40 0 l 402 0 l 402 18 b 276 109 308 19 276 40 l 276 920 l 37 889 l 37 872 b 166 763 148 872 166 846 l 166 109 b 40 18 166 40 131 19 l 40 0 "},"›":{"x_min":49,"x_max":265.859375,"ha":303,"o":"m 68 40 l 245 274 b 265 311 258 292 265 304 b 245 347 265 317 258 329 l 68 582 l 49 569 l 181 311 l 49 52 l 68 40 "},"<":{"x_min":83.0625,"x_max":480.28125,"ha":564,"o":"m 83 437 l 480 139 l 480 177 l 115 450 l 480 725 l 480 763 l 83 464 l 83 437 "},"t":{"x_min":4.171875,"x_max":348.609375,"ha":353,"o":"m 219 -9 b 348 123 280 -9 325 33 l 329 129 b 256 40 311 63 284 40 b 198 136 218 40 198 65 l 198 600 l 343 600 l 343 636 l 198 636 l 198 867 l 98 817 l 98 638 l 4 614 l 4 600 l 97 600 l 97 151 b 219 -9 97 34 140 -9 "},"ù":{"x_min":11.109375,"x_max":547.21875,"ha":557,"o":"m 209 -5 b 376 133 275 -5 334 40 l 376 1 l 547 1 l 547 16 b 475 68 490 18 475 34 l 475 642 l 301 636 l 301 619 b 373 551 358 618 373 593 l 373 175 b 265 54 343 95 311 54 b 184 198 205 54 184 108 l 184 642 l 11 636 l 11 619 b 81 551 68 618 81 593 l 81 157 b 209 -5 81 52 130 -5 m 273 738 l 306 738 l 265 870 b 183 1010 227 989 216 1010 b 131 961 155 1010 131 986 b 201 838 131 946 144 917 l 273 738 "},"ï":{"x_min":-16.671875,"x_max":295.828125,"ha":292,"o":"m 26 1 l 275 1 l 275 18 b 200 73 212 19 200 26 l 200 642 l 26 636 l 26 619 b 98 549 83 618 98 590 l 98 73 b 26 18 98 26 83 19 l 26 1 m 234 745 b 295 821 269 745 295 774 b 234 899 295 868 270 899 b 175 821 200 899 175 868 b 234 745 175 774 200 745 m 43 745 b 104 821 77 745 104 774 b 43 899 104 868 79 899 b -16 821 8 899 -16 868 b 43 745 -16 774 8 745 "},"ī":{"x_min":11.109375,"x_max":275,"ha":292,"o":"m 11 779 l 268 779 l 268 833 l 11 833 l 11 779 m 26 1 l 275 1 l 275 18 b 200 73 212 19 200 26 l 200 642 l 26 636 l 26 619 b 98 549 83 618 98 590 l 98 73 b 26 18 98 26 83 19 l 26 1 "},"Ò":{"x_min":48.609375,"x_max":687.5,"ha":736,"o":"m 368 -19 b 687 486 543 -19 687 197 b 368 988 687 778 547 988 b 48 482 193 988 48 771 b 368 -19 48 190 187 -19 m 372 6 b 173 485 248 6 173 136 b 362 961 173 831 238 961 b 562 483 487 961 562 832 b 372 6 562 137 495 6 m 363 1070 l 397 1070 l 355 1202 b 273 1342 318 1321 306 1342 b 222 1294 245 1342 222 1319 b 291 1170 222 1278 234 1249 l 363 1070 "},"Ď":{"x_min":33.328125,"x_max":706.953125,"ha":756,"o":"m 33 0 l 345 0 b 706 500 597 0 706 254 b 334 968 706 757 579 968 l 33 968 l 33 952 b 141 852 119 947 141 911 l 141 118 b 33 18 141 56 119 22 l 33 0 m 252 27 l 252 941 l 318 941 b 581 492 494 941 581 849 b 313 27 581 140 516 27 l 252 27 m 375 1070 l 404 1070 l 530 1324 l 502 1324 l 390 1191 l 277 1324 l 250 1324 l 375 1070 "},"&":{"x_min":52.734375,"x_max":728,"ha":756,"o":"m 329 533 b 243 758 274 606 243 682 b 327 900 243 841 274 900 b 408 754 384 900 408 847 b 329 533 408 659 387 598 m 249 465 b 428 155 323 376 387 255 b 292 48 378 70 342 48 b 161 226 212 48 161 121 b 249 465 161 334 190 410 m 487 266 b 345 513 454 351 404 440 b 495 750 459 591 495 661 b 338 921 495 848 434 921 b 156 705 226 921 156 830 b 236 483 156 618 183 561 b 52 212 124 429 52 341 b 244 -21 52 95 112 -21 b 440 127 327 -21 391 24 b 581 -19 477 30 509 -19 b 728 89 626 -19 679 17 l 714 103 b 641 53 682 66 664 53 b 502 235 594 53 554 106 b 617 444 540 345 576 416 l 619 440 b 612 408 615 431 612 419 b 668 345 612 376 633 345 b 728 420 704 345 728 376 b 655 504 728 469 701 504 b 487 266 588 504 537 416 "},"˝":{"x_min":7,"x_max":351.21875,"ha":339,"o":"m 176 736 l 209 736 l 281 836 b 351 960 338 916 351 945 b 299 1009 351 985 327 1009 b 217 868 266 1009 255 988 l 176 736 m 7 736 l 40 736 l 112 836 b 181 960 169 916 181 945 b 130 1009 181 985 158 1009 b 48 868 97 1009 86 988 l 7 736 "},"I":{"x_min":40.28125,"x_max":370.828125,"ha":411,"o":"m 40 0 l 370 0 l 370 18 b 261 118 280 22 261 56 l 261 852 b 370 952 261 911 280 947 l 370 968 l 40 968 l 40 952 b 151 852 131 947 151 911 l 151 118 b 40 18 151 56 131 22 l 40 0 "},"ə":{"x_min":25.328125,"x_max":444.0625,"ha":479,"o":"m 219 649 b 27 485 117 649 64 576 l 44 473 b 182 600 80 555 128 600 b 334 311 288 600 334 468 l 334 301 l 26 301 b 221 -11 17 140 85 -11 b 444 325 344 -11 444 134 b 219 649 444 508 353 649 m 228 13 b 132 279 152 13 123 129 l 334 279 b 228 13 331 102 291 13 "},"G":{"x_min":48.609375,"x_max":715.28125,"ha":732,"o":"m 394 -19 b 638 77 475 -19 569 15 l 638 350 b 715 444 638 428 651 439 l 715 462 l 412 462 l 412 444 b 529 350 498 440 529 410 l 529 70 b 398 6 498 31 458 6 b 173 485 284 6 173 147 b 391 961 173 824 277 961 b 606 675 486 961 537 863 l 625 675 l 625 996 l 608 996 l 569 934 b 400 988 525 967 477 988 b 48 482 215 988 48 778 b 394 -19 48 154 208 -19 "},"`":{"x_min":28,"x_max":203,"ha":246,"o":"m 169 736 l 203 736 l 161 868 b 79 1009 123 988 112 1009 b 28 960 51 1009 28 985 b 97 836 28 945 40 916 l 169 736 "},"·":{"x_min":51.390625,"x_max":188.890625,"ha":240,"o":"m 120 375 b 188 455 161 375 188 411 b 120 536 188 500 162 536 b 51 455 80 536 51 500 b 120 375 51 411 79 375 "},"ŏ":{"x_min":34.71875,"x_max":495.828125,"ha":532,"o":"m 266 -11 b 495 322 391 -11 495 127 b 266 649 495 515 395 649 b 34 316 138 649 34 510 b 266 -11 34 122 133 -11 m 270 13 b 145 319 193 13 145 90 b 261 624 145 549 184 624 b 384 319 338 624 384 549 b 270 13 384 90 345 13 m 265 743 b 400 950 341 743 397 803 l 372 950 b 266 818 363 872 326 818 b 159 950 204 818 168 872 l 131 950 b 265 743 134 803 190 743 "},"¿":{"x_min":26.90625,"x_max":454.6875,"ha":476,"o":"m 267 840 b 336 921 307 840 336 877 b 267 1002 336 966 308 1002 b 199 921 226 1002 199 966 b 267 840 199 877 225 840 m 247 -19 b 454 165 367 -19 454 51 b 382 258 454 216 424 258 b 317 172 339 258 317 216 b 369 82 317 136 335 98 b 257 5 361 44 314 5 b 136 230 178 5 136 84 b 288 507 136 378 174 473 l 288 724 l 250 724 l 250 525 b 26 222 96 480 26 382 b 247 -19 26 102 104 -19 "},"ý":{"x_min":-12.28125,"x_max":494.625,"ha":481,"o":"m 239 17 l 225 -31 b 118 -234 174 -200 147 -229 b 134 -175 129 -218 134 -200 b 77 -104 134 -133 110 -104 b 18 -178 39 -104 18 -138 b 104 -264 18 -224 50 -264 b 250 -39 156 -264 189 -235 l 412 494 b 494 622 437 573 464 616 l 494 638 l 325 638 l 325 622 b 364 427 396 609 407 572 l 283 163 l 180 527 b 233 622 165 581 169 616 l 233 638 l -12 638 l -12 622 b 77 511 36 615 51 588 l 239 17 m 241 737 l 275 737 l 347 837 b 416 961 404 916 416 946 b 365 1010 416 986 393 1010 b 283 869 332 1010 321 989 l 241 737 "},"º":{"x_min":44.4375,"x_max":397.21875,"ha":442,"o":"m 222 455 b 397 710 318 455 397 561 b 222 960 397 859 320 960 b 44 706 123 960 44 854 b 222 455 44 557 119 455 m 223 476 b 133 708 165 476 133 543 b 216 938 133 874 158 938 b 308 707 276 938 308 872 b 223 476 308 542 281 476 "},"ź":{"x_min":32.140625,"x_max":444.75,"ha":472,"o":"m 32 0 l 426 0 l 440 219 l 418 222 b 261 27 362 77 326 27 l 148 27 l 444 621 l 444 638 l 66 638 l 52 428 l 75 425 b 225 610 134 567 165 610 l 329 610 l 32 16 l 32 0 m 230 736 l 264 736 l 336 836 b 405 960 393 916 405 945 b 354 1009 405 985 382 1009 b 272 868 321 1009 310 988 l 230 736 "},"ű":{"x_min":11.390625,"x_max":547.5,"ha":557,"o":"m 210 -5 b 376 133 275 -5 334 40 l 376 1 l 547 1 l 547 16 b 475 68 490 18 475 34 l 475 642 l 301 636 l 301 619 b 373 551 358 618 373 593 l 373 175 b 265 54 343 95 311 54 b 185 198 205 54 185 108 l 185 642 l 11 636 l 11 619 b 82 551 68 618 82 593 l 82 157 b 210 -5 82 52 130 -5 m 350 738 l 383 738 l 455 838 b 525 961 512 917 525 946 b 473 1010 525 986 501 1010 b 391 870 440 1010 429 989 l 350 738 m 180 738 l 214 738 l 286 838 b 355 961 343 917 355 946 b 304 1010 355 986 332 1010 b 222 870 271 1010 260 989 l 180 738 "},"Ǽ":{"x_min":-41.5,"x_max":968.21875,"ha":1026,"o":"m 240 391 l 477 391 l 477 118 b 369 18 477 56 455 22 l 369 0 l 968 0 l 968 294 l 952 296 b 708 27 891 97 848 27 l 589 27 l 589 483 l 634 483 b 782 312 716 483 754 465 l 801 312 l 801 682 l 782 682 b 634 511 754 529 716 511 l 589 511 l 589 941 l 709 941 b 923 681 827 941 864 867 l 943 682 l 943 968 l 309 968 l 309 952 b 411 881 383 936 411 916 b 396 827 411 867 405 849 l 139 246 b -41 18 84 125 30 41 l -41 0 l 190 0 l 190 18 b 126 91 146 30 126 54 b 165 221 126 123 141 166 l 240 391 m 477 418 l 251 418 l 471 914 l 477 914 l 477 418 m 536 1070 l 569 1070 l 641 1170 b 711 1294 698 1249 711 1278 b 659 1342 711 1319 687 1342 b 577 1202 626 1342 615 1321 l 536 1070 "},"ń":{"x_min":22.21875,"x_max":559.71875,"ha":565,"o":"m 22 1 l 255 1 l 255 18 b 195 73 209 19 195 26 l 195 465 b 306 586 225 544 262 586 b 386 442 368 586 386 532 l 386 73 b 326 18 386 26 372 19 l 326 1 l 559 1 l 559 18 b 487 73 500 19 487 26 l 487 483 b 366 646 487 587 444 646 b 193 507 298 646 236 600 l 193 642 l 22 636 l 22 619 b 94 549 80 618 94 590 l 94 73 b 22 18 94 26 80 19 l 22 1 m 279 738 l 312 738 l 384 838 b 454 961 441 917 454 946 b 402 1010 454 986 430 1010 b 320 870 369 1010 358 989 l 279 738 "},"Ș":{"x_min":56.9375,"x_max":538.890625,"ha":583,"o":"m 56 -25 l 76 -25 l 131 39 b 295 -19 173 7 238 -19 b 538 292 473 -19 538 148 b 344 548 538 426 441 495 b 156 779 251 600 156 650 b 290 961 156 900 220 961 b 484 694 372 961 430 871 l 505 694 l 505 996 l 486 996 l 454 946 b 305 987 420 967 365 987 b 69 695 170 987 69 878 b 268 438 69 554 169 491 b 458 196 362 390 458 334 b 308 7 458 96 409 7 b 77 309 198 7 137 133 l 56 309 l 56 -25 m 248 -377 b 372 -183 334 -325 372 -260 b 302 -83 372 -121 343 -83 b 238 -156 263 -83 238 -117 b 288 -220 238 -190 258 -220 b 316 -208 302 -220 309 -215 l 322 -210 b 236 -360 322 -260 297 -315 l 248 -377 "},";":{"x_min":27.78125,"x_max":201.390625,"ha":254,"o":"m 127 395 b 195 476 168 395 195 432 b 127 557 195 521 169 557 b 58 476 87 557 58 521 b 127 395 58 432 86 395 m 40 -200 b 201 37 156 -137 201 -61 b 120 141 201 99 169 141 b 52 60 80 141 52 104 b 109 -9 52 13 83 -9 b 140 2 120 -9 133 -5 l 144 0 b 27 -180 140 -61 100 -137 l 40 -200 "}," ":{"x_min":0,"x_max":0,"ha":347},"Ġ":{"x_min":48.609375,"x_max":715.28125,"ha":732,"o":"m 394 -19 b 638 77 475 -19 569 15 l 638 350 b 715 444 638 428 651 439 l 715 462 l 412 462 l 412 444 b 529 350 498 440 529 410 l 529 70 b 398 6 498 31 458 6 b 173 485 284 6 173 147 b 391 961 173 824 277 961 b 606 675 486 961 537 863 l 625 675 l 625 996 l 608 996 l 569 934 b 400 988 525 967 477 988 b 48 482 215 988 48 778 b 394 -19 48 154 208 -19 m 402 1077 b 466 1156 443 1077 466 1110 b 404 1234 466 1202 443 1234 b 340 1153 363 1234 340 1199 b 402 1077 340 1107 363 1077 "},"6":{"x_min":44.4375,"x_max":525,"ha":561,"o":"m 290 -15 b 525 323 437 -15 525 140 b 329 599 525 489 445 599 b 163 464 261 599 195 562 l 158 465 b 476 922 177 746 304 860 l 476 939 b 147 736 316 907 223 846 b 44 358 79 643 44 519 b 290 -15 44 145 140 -15 m 295 8 b 162 276 220 8 162 97 b 294 568 162 492 233 568 b 408 305 370 568 408 486 b 295 8 408 116 383 8 "},"n":{"x_min":22.21875,"x_max":559.71875,"ha":565,"o":"m 22 1 l 255 1 l 255 18 b 195 73 209 19 195 26 l 195 465 b 306 586 225 544 262 586 b 386 442 368 586 386 532 l 386 73 b 326 18 386 26 372 19 l 326 1 l 559 1 l 559 18 b 487 73 500 19 487 26 l 487 483 b 366 646 487 587 444 646 b 193 507 298 646 236 600 l 193 642 l 22 636 l 22 619 b 94 549 80 618 94 590 l 94 73 b 22 18 94 26 80 19 l 22 1 "},"ģ":{"x_min":16.859375,"x_max":487.390625,"ha":474,"o":"m 247 -242 b 94 -109 140 -242 94 -182 b 171 4 94 -53 119 -14 l 270 4 b 399 -96 367 4 399 -32 b 247 -242 399 -188 332 -242 m 238 232 b 146 427 181 232 146 299 b 229 621 146 555 172 621 b 321 427 289 621 321 541 b 238 232 321 299 295 232 m 235 645 b 41 424 138 645 41 557 b 130 239 41 335 79 274 b 52 120 79 206 52 162 b 140 10 52 63 76 32 l 140 6 b 16 -131 64 -7 16 -67 b 221 -264 16 -211 97 -264 b 467 -60 383 -264 467 -170 b 282 105 467 63 403 105 l 207 105 b 109 163 125 105 109 135 b 154 227 109 188 123 207 b 235 209 179 214 207 209 b 427 430 330 209 427 295 b 349 602 427 507 394 566 b 397 666 359 630 377 660 b 445 607 397 624 422 607 b 487 660 470 607 487 630 b 429 720 487 695 469 720 b 328 617 380 720 349 675 b 235 645 298 635 266 645 m 296 1037 b 172 843 210 985 172 920 b 242 743 172 781 201 743 b 306 816 281 743 306 777 b 256 880 306 850 287 880 b 228 868 242 880 235 875 l 222 870 b 309 1020 222 920 248 975 l 296 1037 "},"℗":{"x_min":41.671875,"x_max":722.21875,"ha":764,"o":"m 381 -19 b 722 485 577 -19 722 182 b 381 988 722 783 577 988 b 41 485 187 988 41 783 b 381 -19 41 182 187 -19 m 381 4 b 72 485 202 4 72 204 b 381 964 72 765 202 964 b 691 485 561 964 691 765 b 381 4 691 204 561 4 m 231 218 l 415 218 l 415 236 b 358 276 366 239 358 248 l 358 446 l 394 446 b 552 606 505 446 552 521 b 397 761 552 697 505 761 l 231 761 l 231 743 b 286 703 277 740 286 729 l 286 276 b 231 237 286 250 277 240 l 231 218 m 358 468 l 358 739 l 395 739 b 476 606 451 739 476 693 b 393 468 476 507 452 468 l 358 468 "},"p":{"x_min":6.9375,"x_max":509.71875,"ha":546,"o":"m 6 -251 l 273 -251 l 273 -234 b 179 -179 198 -234 179 -226 l 179 31 b 300 -9 215 4 248 -9 b 509 330 430 -9 509 141 b 329 650 509 512 445 650 b 177 555 268 650 219 617 l 177 642 l 6 636 l 6 619 b 77 549 63 618 77 590 l 77 -179 b 6 -234 77 -226 63 -233 l 6 -251 m 284 15 b 179 118 237 15 201 36 l 179 526 b 281 603 211 579 241 603 b 400 323 369 603 400 475 b 284 15 400 132 370 15 "},"‡":{"x_min":29.09375,"x_max":528.90625,"ha":558,"o":"m 279 -140 b 330 -77 308 -140 330 -119 b 309 95 330 -30 320 27 l 288 230 l 292 233 b 444 165 346 195 403 165 b 528 229 494 165 528 190 b 476 279 528 265 499 279 b 349 229 435 279 391 229 b 290 296 308 229 290 259 b 303 357 290 315 295 337 l 340 446 l 303 536 b 290 597 295 555 290 578 b 349 664 290 633 308 664 b 476 614 391 664 435 614 b 528 664 499 614 528 628 b 444 728 528 703 494 728 b 292 660 403 728 346 697 l 288 663 l 309 797 b 330 971 320 865 330 924 b 279 1034 330 1013 308 1034 b 227 971 249 1034 227 1013 b 248 797 227 924 237 865 l 269 663 l 265 660 b 113 728 211 697 154 728 b 29 664 63 728 29 703 b 81 614 29 628 58 614 b 208 664 122 614 166 664 b 267 597 249 664 267 633 b 254 536 267 578 262 555 l 217 446 l 254 357 b 267 296 262 337 267 315 b 208 229 267 259 249 229 b 81 279 166 229 122 279 b 29 229 58 279 29 265 b 113 165 29 190 63 165 b 265 233 154 165 211 195 l 269 230 l 248 95 b 227 -77 237 27 227 -30 b 279 -140 227 -119 249 -140 "},"ň":{"x_min":21.890625,"x_max":559.390625,"ha":565,"o":"m 21 1 l 255 1 l 255 18 b 195 73 209 19 195 26 l 195 465 b 306 586 224 544 262 586 b 385 442 367 586 385 532 l 385 73 b 326 18 385 26 371 19 l 326 1 l 559 1 l 559 18 b 487 73 499 19 487 26 l 487 483 b 366 646 487 587 444 646 b 192 507 298 646 235 600 l 192 642 l 21 636 l 21 619 b 94 549 80 618 94 590 l 94 73 b 21 18 94 26 80 19 l 21 1 m 289 738 l 319 738 l 445 992 l 417 992 l 305 859 l 192 992 l 164 992 l 289 738 "},"ę":{"x_min":34.90625,"x_max":453.640625,"ha":479,"o":"m 434 164 b 296 37 398 82 350 37 b 144 326 190 37 144 169 l 144 336 l 452 336 b 257 649 461 497 393 649 b 34 312 134 649 34 503 b 259 -10 34 129 125 -10 b 332 4 282 -10 308 -6 l 298 -31 b 202 -192 219 -117 202 -152 b 293 -281 202 -249 241 -281 b 387 -230 341 -281 377 -243 l 376 -217 b 326 -243 361 -233 344 -243 b 272 -173 293 -243 272 -218 b 346 -15 272 -134 287 -94 l 397 54 b 451 153 416 80 434 112 l 434 164 m 250 624 b 346 358 326 624 355 508 l 144 358 b 250 624 147 535 187 624 "},"S":{"x_min":56.9375,"x_max":538.890625,"ha":583,"o":"m 56 -25 l 76 -25 l 131 40 b 295 -19 173 8 238 -19 b 538 293 473 -19 538 148 b 344 549 538 426 441 496 b 156 779 251 600 156 650 b 290 961 156 900 220 961 b 484 694 372 961 430 871 l 505 694 l 505 996 l 486 996 l 454 946 b 305 988 420 967 365 988 b 69 696 170 988 69 878 b 268 439 69 554 169 492 b 458 197 362 390 458 334 b 308 8 458 97 409 8 b 77 309 198 8 137 133 l 56 309 l 56 -25 "},"/":{"x_min":6,"x_max":459,"ha":453,"o":"m 6 -298 l 46 -298 l 250 368 l 459 1036 l 418 1036 l 214 368 l 6 -298 "},"į":{"x_min":25.484375,"x_max":274.09375,"ha":292,"o":"m 25 1 l 174 1 l 146 -27 b 47 -191 64 -115 47 -151 b 137 -280 47 -248 86 -280 b 232 -229 186 -280 222 -241 l 221 -216 b 171 -241 206 -232 189 -241 b 117 -172 137 -241 117 -216 b 192 -12 117 -133 131 -90 l 203 1 l 274 1 l 274 18 b 199 73 211 19 199 26 l 199 642 l 25 636 l 25 619 b 97 549 82 618 97 590 l 97 73 b 25 18 97 26 82 19 l 25 1 m 143 767 b 208 846 183 767 208 800 b 144 924 208 892 183 924 b 79 843 104 924 79 889 b 143 767 79 797 104 767 "},"y":{"x_min":-12.28125,"x_max":494.625,"ha":481,"o":"m 239 17 l 225 -31 b 118 -234 174 -200 147 -229 b 134 -175 129 -218 134 -200 b 77 -104 134 -133 110 -104 b 18 -178 39 -104 18 -138 b 104 -264 18 -224 50 -264 b 250 -39 156 -264 189 -235 l 412 494 b 494 622 437 573 464 616 l 494 638 l 325 638 l 325 622 b 364 427 396 609 407 572 l 283 163 l 180 527 b 233 622 165 581 169 616 l 233 638 l -12 638 l -12 622 b 77 511 36 615 51 588 l 239 17 "},"ǿ":{"x_min":34.9375,"x_max":496.015625,"ha":532,"o":"m 82 -29 l 126 48 b 266 -11 165 9 212 -11 b 496 322 391 -11 496 127 b 425 562 496 422 469 505 l 484 667 l 448 667 l 404 589 b 266 649 365 626 318 649 b 34 316 139 649 34 510 b 104 73 34 215 61 132 l 46 -29 l 82 -29 m 146 319 b 261 624 146 549 184 624 b 365 521 308 624 344 594 l 157 158 b 146 319 150 201 146 254 m 271 13 b 165 116 222 13 186 43 l 373 479 b 384 319 380 437 384 385 b 271 13 384 90 346 13 m 239 736 l 272 736 l 344 836 b 414 960 401 916 414 945 b 362 1009 414 985 390 1009 b 280 868 329 1009 318 988 l 239 736 "},"g":{"x_min":16.859375,"x_max":487.390625,"ha":474,"o":"m 247 -242 b 94 -109 140 -242 94 -182 b 171 4 94 -53 119 -14 l 270 4 b 399 -96 367 4 399 -32 b 247 -242 399 -188 332 -242 m 238 232 b 146 427 181 232 146 299 b 229 622 146 555 172 622 b 321 427 289 622 321 541 b 238 232 321 299 295 232 m 235 645 b 41 424 138 645 41 558 b 130 239 41 335 79 274 b 52 120 79 206 52 162 b 140 10 52 63 76 32 l 140 6 b 16 -131 64 -7 16 -67 b 221 -264 16 -211 97 -264 b 467 -60 383 -264 467 -170 b 282 105 467 63 403 105 l 207 105 b 109 163 125 105 109 135 b 154 227 109 188 123 207 b 235 209 179 214 207 209 b 427 430 330 209 427 295 b 349 602 427 508 394 566 b 397 666 359 630 377 661 b 445 608 397 624 422 608 b 487 661 470 608 487 630 b 429 720 487 695 469 720 b 328 617 380 720 349 676 b 235 645 298 636 266 645 "},"–":{"x_min":52.78125,"x_max":487.5,"ha":540,"o":"m 52 348 l 487 348 l 487 379 l 52 379 l 52 348 "},"ë":{"x_min":34.9375,"x_max":453.671875,"ha":479,"o":"m 259 -11 b 451 152 361 -11 414 61 l 434 164 b 296 37 398 82 350 37 b 144 326 190 37 144 169 l 144 336 l 453 336 b 257 649 461 497 393 649 b 34 312 134 649 34 503 b 259 -11 34 129 125 -11 m 250 624 b 346 358 326 624 355 508 l 144 358 b 250 624 147 535 187 624 m 353 743 b 414 820 387 743 414 772 b 353 897 414 867 389 897 b 293 820 318 897 293 867 b 353 743 293 772 318 743 m 161 743 b 222 820 196 743 222 772 b 161 897 222 867 197 897 b 101 820 126 897 101 867 b 161 743 101 772 126 743 "},"J":{"x_min":26.109375,"x_max":535.828125,"ha":540,"o":"m 217 -19 b 428 257 356 -19 428 82 l 428 852 b 535 952 428 911 446 947 l 535 968 l 203 968 l 203 952 b 317 852 299 947 317 911 l 317 200 b 203 13 317 73 283 13 b 98 93 158 13 112 41 b 178 187 149 105 178 141 b 108 266 178 234 148 266 b 26 159 65 266 26 221 b 217 -19 26 51 110 -19 "},"Ã":{"x_min":-24.890625,"x_max":701.40625,"ha":675,"o":"m 473 140 b 383 18 494 56 479 23 l 383 0 l 701 0 l 701 18 b 581 162 625 31 606 58 l 366 992 l 325 992 l 104 201 b -24 18 70 84 44 29 l -24 0 l 204 0 l 204 18 b 139 211 105 34 102 79 l 182 373 l 413 373 l 473 140 m 189 400 l 300 810 l 304 810 l 407 400 l 189 400 m 189 1071 l 215 1071 b 263 1155 226 1135 244 1155 b 418 1075 302 1155 365 1075 b 505 1242 470 1075 497 1116 l 479 1242 b 430 1159 468 1178 450 1159 b 276 1238 391 1159 329 1238 b 189 1071 223 1238 197 1198 "},"ŷ":{"x_min":-12.28125,"x_max":494.640625,"ha":481,"o":"m 239 17 l 225 -31 b 118 -234 174 -200 147 -229 b 134 -175 129 -218 134 -200 b 77 -104 134 -133 111 -104 b 18 -178 39 -104 18 -138 b 104 -264 18 -224 50 -264 b 250 -39 156 -264 190 -235 l 412 494 b 494 622 437 573 464 616 l 494 638 l 325 638 l 325 622 b 364 427 396 609 407 572 l 283 163 l 180 527 b 233 622 165 581 169 616 l 233 638 l -12 638 l -12 622 b 77 511 36 615 51 588 l 239 17 m 129 737 l 156 737 l 268 871 l 380 737 l 408 737 l 283 991 l 254 991 l 129 737 "},"ŕ":{"x_min":21.390625,"x_max":406.0625,"ha":408,"o":"m 21 0 l 282 0 l 282 16 b 195 72 214 18 195 25 l 195 457 b 292 593 223 535 254 580 b 287 560 289 583 287 571 b 347 488 287 513 311 488 b 406 563 381 488 406 518 b 326 649 406 611 379 649 b 192 504 274 649 229 595 l 192 642 l 21 636 l 21 619 b 93 548 79 618 93 590 l 93 72 b 21 16 93 25 79 18 l 21 0 m 195 738 l 228 738 l 301 838 b 371 961 358 917 371 946 b 319 1010 371 986 347 1010 b 236 870 285 1010 274 989 l 195 738 "},"©":{"x_min":41.671875,"x_max":722.21875,"ha":764,"o":"m 381 -19 b 722 485 577 -19 722 182 b 381 988 722 783 577 988 b 41 485 187 988 41 783 b 381 -19 41 182 187 -19 m 381 4 b 72 485 202 4 72 204 b 381 964 72 765 202 964 b 691 485 561 964 691 765 b 381 4 691 204 561 4 m 387 207 b 538 372 470 207 515 283 l 520 378 b 405 241 493 293 462 241 b 284 494 336 241 284 341 b 388 749 284 646 329 749 b 505 574 440 749 473 696 l 526 574 l 526 772 l 509 772 l 490 731 b 395 771 466 751 434 771 b 205 479 291 771 205 647 b 387 207 205 321 277 207 "},"˘":{"x_min":37.5,"x_max":305.5625,"ha":343,"o":"m 170 743 b 305 950 247 743 302 803 l 277 950 b 172 818 269 872 231 818 b 65 950 109 818 73 872 l 37 950 b 170 743 40 803 95 743 "},"Ă":{"x_min":-24.96875,"x_max":701.40625,"ha":675,"o":"m 473 140 b 383 18 494 56 479 23 l 383 0 l 701 0 l 701 18 b 581 162 625 31 606 58 l 366 992 l 325 992 l 104 201 b -24 18 70 84 44 29 l -24 0 l 204 0 l 204 18 b 138 211 105 34 102 79 l 181 373 l 413 373 l 473 140 m 188 400 l 300 810 l 304 810 l 406 400 l 188 400 m 347 1077 b 481 1284 423 1077 479 1137 l 454 1284 b 348 1152 445 1206 408 1152 b 241 1284 286 1152 250 1206 l 213 1284 b 347 1077 216 1137 272 1077 "},"D":{"x_min":33.328125,"x_max":706.953125,"ha":756,"o":"m 33 0 l 345 0 b 706 500 597 0 706 254 b 334 968 706 757 579 968 l 33 968 l 33 952 b 141 852 119 947 141 911 l 141 118 b 33 18 141 56 119 22 l 33 0 m 252 27 l 252 941 l 318 941 b 581 492 494 941 581 849 b 313 27 581 140 516 27 l 252 27 "},"ÿ":{"x_min":-13.390625,"x_max":495.625,"ha":481,"o":"m 239 17 l 225 -31 b 117 -234 174 -200 146 -229 b 133 -175 128 -218 133 -200 b 76 -104 133 -133 110 -104 b 17 -178 38 -104 17 -138 b 103 -264 17 -224 49 -264 b 250 -39 156 -264 189 -235 l 413 494 b 495 622 438 573 465 616 l 495 638 l 325 638 l 325 622 b 364 427 396 609 408 572 l 284 163 l 181 527 b 234 622 165 581 170 616 l 234 638 l -13 638 l -13 622 b 76 511 35 615 50 588 l 239 17 m 364 744 b 426 821 399 744 426 773 b 364 898 426 868 401 898 b 305 821 330 898 305 868 b 364 744 305 773 330 744 m 172 744 b 234 821 207 744 234 773 b 172 898 234 868 209 898 b 113 821 138 898 113 868 b 172 744 113 773 138 744 "},"ĺ":{"x_min":15,"x_max":287.21875,"ha":292,"o":"m 24 0 l 270 0 l 270 16 b 198 72 210 18 198 25 l 198 996 l 15 991 l 15 974 b 96 903 87 971 96 953 l 96 72 b 24 16 96 25 83 18 l 24 0 m 112 1092 l 145 1092 l 217 1192 b 287 1316 274 1271 287 1301 b 235 1364 287 1341 263 1364 b 153 1224 202 1364 191 1344 l 112 1092 "},"ł":{"x_min":-1.390625,"x_max":297.21875,"ha":292,"o":"m 25 0 l 270 0 l 270 16 b 198 72 211 18 198 25 l 198 494 l 297 542 l 283 569 l 198 529 l 198 996 l 15 991 l 15 974 b 97 903 87 971 97 953 l 97 480 l -1 433 l 12 405 l 97 446 l 97 72 b 25 16 97 25 83 18 l 25 0 "},"Ł":{"x_min":33.328125,"x_max":604.171875,"ha":618,"o":"m 33 0 l 595 0 l 604 289 l 583 290 b 333 27 527 73 466 27 l 252 27 l 252 486 l 415 564 l 400 594 l 252 524 l 252 852 b 355 952 252 914 262 947 l 355 968 l 33 968 l 33 952 b 141 852 119 947 141 911 l 141 469 l 44 423 l 59 393 l 141 432 l 141 118 b 33 18 141 56 119 22 l 33 0 "},"$":{"x_min":56.984375,"x_max":500.328125,"ha":554,"o":"m 265 -88 l 303 -88 l 303 15 b 500 266 435 34 500 161 b 329 519 500 418 411 471 b 304 533 319 524 312 529 l 304 877 l 305 877 b 415 806 366 877 396 852 b 378 740 397 799 378 765 b 437 668 378 700 397 668 b 494 745 471 668 494 701 b 308 904 494 833 419 904 l 305 904 l 305 991 l 268 991 l 268 900 b 77 664 165 882 77 793 b 247 418 77 519 165 467 l 266 405 l 266 40 b 134 118 186 41 150 77 b 177 190 161 132 177 161 b 119 265 177 232 155 265 b 56 186 76 265 56 225 b 265 12 56 80 152 12 l 265 -88 m 417 207 b 301 43 417 122 373 58 l 301 386 b 417 207 373 340 417 300 m 168 717 b 269 872 168 806 209 857 l 269 555 b 168 717 201 599 168 636 "},"w":{"x_min":-7.78125,"x_max":747.78125,"ha":735,"o":"m 371 444 l 279 137 l 274 137 l 176 524 b 170 569 172 542 170 557 b 225 621 170 600 185 617 l 225 638 l -7 638 l -7 621 b 79 510 43 615 56 600 l 217 -12 l 261 -12 l 383 393 l 481 -12 l 528 -12 l 654 493 b 747 621 674 571 708 615 l 747 638 l 565 638 l 565 621 b 631 546 610 612 631 592 b 615 451 631 521 625 490 l 540 144 l 536 144 l 450 524 b 443 571 446 543 443 562 b 503 621 443 604 460 617 l 503 638 l 275 638 l 275 621 b 356 510 321 615 333 603 l 371 444 "},"\\":{"x_min":-6,"x_max":447,"ha":453,"o":"m 406 -298 l 447 -298 l 238 368 l 34 1036 l -6 1036 l 202 368 l 406 -298 "},"Ì":{"x_min":40.109375,"x_max":370.65625,"ha":411,"o":"m 40 0 l 370 0 l 370 18 b 260 118 280 22 260 56 l 260 852 b 370 952 260 911 280 947 l 370 968 l 40 968 l 40 952 b 151 852 131 947 151 911 l 151 118 b 40 18 151 56 131 22 l 40 0 m 201 1070 l 234 1070 l 192 1202 b 110 1342 155 1321 144 1342 b 59 1294 83 1342 59 1319 b 129 1170 59 1278 72 1249 l 201 1070 "},"Ç":{"x_min":48.609375,"x_max":633.328125,"ha":667,"o":"m 350 -307 b 452 -198 413 -307 452 -259 b 343 -105 452 -140 412 -101 l 340 -98 l 397 -18 b 633 301 536 -1 593 127 l 609 309 b 400 23 566 132 505 23 b 173 494 284 23 173 180 b 375 961 173 833 276 961 b 583 664 462 961 523 861 l 602 664 l 602 996 l 586 996 l 547 924 b 379 988 494 967 448 988 b 48 472 219 988 48 768 b 363 -19 48 168 202 -18 l 291 -123 l 300 -133 b 330 -126 309 -129 320 -126 b 383 -205 366 -126 383 -152 b 333 -283 383 -250 366 -283 b 276 -247 313 -283 293 -269 l 261 -261 b 350 -307 280 -289 311 -307 "},"C":{"x_min":48.609375,"x_max":633.328125,"ha":667,"o":"m 366 -19 b 633 301 527 -19 590 115 l 609 309 b 400 23 566 132 505 23 b 173 494 284 23 173 180 b 375 961 173 833 276 961 b 583 664 462 961 523 861 l 602 664 l 602 996 l 586 996 l 547 924 b 379 988 494 967 448 988 b 48 472 219 988 48 768 b 366 -19 48 166 204 -19 "},"Ē":{"x_min":33.328125,"x_max":636.109375,"ha":690,"o":"m 33 0 l 631 0 l 636 294 l 616 296 b 372 27 555 97 512 27 l 252 27 l 252 483 l 298 483 b 445 312 380 483 418 465 l 465 312 l 465 682 l 445 682 b 298 511 418 529 380 511 l 252 511 l 252 941 l 373 941 b 587 681 491 941 527 867 l 606 682 l 602 968 l 33 968 l 33 952 b 141 852 119 947 141 911 l 141 118 b 33 18 141 56 119 22 l 33 0 m 233 1111 l 490 1111 l 490 1166 l 233 1166 l 233 1111 "},"!":{"x_min":65.28125,"x_max":202.78125,"ha":268,"o":"m 125 258 l 144 258 b 202 902 159 554 202 772 b 134 1002 202 970 179 1002 b 68 902 90 1002 68 970 b 125 258 68 772 111 554 m 134 -19 b 202 61 175 -19 202 16 b 134 141 202 105 176 141 b 65 61 94 141 65 105 b 134 -19 65 16 93 -19 "},"ç":{"x_min":34.5625,"x_max":448.546875,"ha":464,"o":"m 252 -307 b 354 -198 315 -307 354 -259 b 245 -105 354 -140 314 -101 l 242 -98 l 308 -6 l 294 -6 b 448 144 370 8 414 70 l 431 155 b 294 37 391 79 348 37 b 144 337 189 37 144 172 b 269 624 144 514 198 624 b 344 582 305 624 329 610 b 312 508 330 571 312 546 b 375 439 312 467 335 439 b 431 518 411 439 431 473 b 267 649 431 579 382 649 b 34 312 137 649 34 505 b 255 -11 34 127 120 -11 b 273 -9 260 -11 267 -9 l 194 -123 l 202 -133 b 233 -126 212 -129 223 -126 b 285 -205 269 -126 285 -152 b 235 -283 285 -250 269 -283 b 179 -247 216 -283 195 -269 l 163 -261 b 252 -307 183 -289 213 -307 "},"È":{"x_min":33.328125,"x_max":636.109375,"ha":690,"o":"m 33 0 l 631 0 l 636 294 l 616 296 b 372 27 555 97 512 27 l 252 27 l 252 483 l 298 483 b 445 312 380 483 418 465 l 465 312 l 465 682 l 445 682 b 298 511 418 529 380 511 l 252 511 l 252 941 l 373 941 b 587 681 491 941 527 867 l 606 682 l 602 968 l 33 968 l 33 952 b 141 852 119 947 141 911 l 141 118 b 33 18 141 56 119 22 l 33 0 m 356 1070 l 390 1070 l 348 1202 b 266 1342 311 1321 300 1342 b 215 1294 238 1342 215 1319 b 284 1170 215 1278 227 1249 l 356 1070 "},"ﬁ":{"x_min":17.65625,"x_max":575.984375,"ha":594,"o":"m 31 1 l 271 1 l 271 18 b 203 73 219 19 203 26 l 203 600 l 400 600 l 400 73 b 339 18 400 26 385 19 l 339 1 l 575 1 l 575 18 b 502 73 514 19 502 26 l 502 642 l 366 636 l 203 636 l 203 779 b 239 946 203 888 219 918 b 320 982 257 971 288 982 b 405 935 360 982 389 964 b 377 870 389 917 377 890 b 439 796 377 821 402 796 b 499 871 474 796 499 824 b 324 1006 499 943 425 1006 b 159 928 238 1006 189 971 b 102 693 116 870 102 810 l 102 638 l 17 614 l 17 600 l 102 600 l 102 73 b 31 18 102 26 89 19 l 31 1 "},"X":{"x_min":1.03125,"x_max":714.421875,"ha":704,"o":"m 375 564 l 265 821 b 323 952 233 895 236 946 l 323 968 l 5 968 l 5 952 b 141 833 91 935 105 911 l 312 458 l 176 191 b 1 18 102 50 71 31 l 1 0 l 255 0 l 255 18 b 202 173 177 29 156 80 l 330 432 l 458 141 b 397 18 491 65 493 26 l 397 0 l 714 0 l 714 18 b 579 136 631 33 615 58 l 393 536 l 515 775 b 690 952 585 911 615 936 l 690 968 l 436 968 l 436 952 b 489 793 517 941 533 882 l 375 564 "},"ô":{"x_min":34.90625,"x_max":496.09375,"ha":532,"o":"m 266 -11 b 496 322 391 -11 496 127 b 266 649 496 515 396 649 b 34 316 139 649 34 510 b 266 -11 34 122 133 -11 m 271 13 b 146 319 193 13 146 90 b 261 624 146 549 184 624 b 384 319 339 624 384 549 b 271 13 384 90 346 13 m 125 736 l 152 736 l 265 870 l 378 736 l 405 736 l 280 991 l 251 991 l 125 736 "},"Ė":{"x_min":33.328125,"x_max":636.109375,"ha":690,"o":"m 33 0 l 631 0 l 636 294 l 616 296 b 372 27 555 97 512 27 l 252 27 l 252 483 l 298 483 b 445 312 380 483 418 465 l 465 312 l 465 682 l 445 682 b 298 511 418 529 380 511 l 252 511 l 252 941 l 373 941 b 587 681 491 941 527 867 l 606 682 l 602 968 l 33 968 l 33 952 b 141 852 119 947 141 911 l 141 118 b 33 18 141 56 119 22 l 33 0 m 361 1077 b 425 1156 401 1077 425 1110 b 362 1234 425 1202 401 1234 b 298 1153 322 1234 298 1199 b 361 1077 298 1107 322 1077 "},"Ā":{"x_min":-24.96875,"x_max":701.40625,"ha":675,"o":"m 473 140 b 383 18 494 56 479 23 l 383 0 l 701 0 l 701 18 b 581 162 625 31 606 58 l 366 992 l 325 992 l 104 201 b -24 18 70 84 44 29 l -24 0 l 204 0 l 204 18 b 138 211 105 34 102 79 l 181 373 l 413 373 l 473 140 m 188 400 l 300 810 l 304 810 l 406 400 l 188 400 m 219 1111 l 476 1111 l 476 1166 l 219 1166 l 219 1111 "},"ċ":{"x_min":34.265625,"x_max":449.546875,"ha":464,"o":"m 255 -11 b 449 144 356 -11 409 59 l 432 155 b 295 37 392 79 349 37 b 143 337 189 37 143 172 b 270 624 143 514 198 624 b 345 582 306 624 330 610 b 312 508 331 571 312 546 b 375 439 312 467 335 439 b 432 518 412 439 432 473 b 267 649 432 579 382 649 b 34 312 137 649 34 505 b 255 -11 34 127 120 -11 m 277 743 b 341 822 317 743 341 777 b 278 900 341 868 317 900 b 214 820 238 900 214 865 b 277 743 214 774 238 743 "},"đ":{"x_min":34.71875,"x_max":538.890625,"ha":544,"o":"m 230 -11 b 366 68 288 -11 333 22 l 366 -5 l 538 0 l 538 15 b 466 66 481 16 466 33 l 466 794 l 534 794 l 534 825 l 466 825 l 466 996 l 284 990 l 284 974 b 365 903 355 971 365 953 l 365 825 l 226 825 l 226 794 l 365 794 l 365 624 b 266 649 337 639 313 649 b 34 312 130 649 34 505 b 230 -11 34 133 106 -11 m 275 38 b 144 312 183 38 144 155 b 270 624 144 501 184 624 b 365 565 315 624 338 604 l 365 101 b 275 38 343 65 318 38 "},"℠":{"x_min":59.71875,"x_max":648.609375,"ha":678,"o":"m 59 745 l 59 620 l 69 620 l 88 642 b 155 621 105 631 131 621 b 252 731 226 621 252 681 b 176 823 252 782 215 805 b 105 899 138 841 105 857 b 152 959 105 938 129 959 b 225 864 180 959 202 926 l 240 864 l 240 978 l 229 978 l 219 961 b 159 975 205 968 183 975 b 63 874 105 975 63 936 b 143 780 63 821 102 798 b 215 702 180 763 215 747 b 161 638 215 670 197 638 b 75 745 122 638 98 684 l 59 745 m 288 628 l 394 628 l 394 641 b 354 709 358 648 354 663 l 354 926 l 359 926 l 445 628 l 469 628 l 550 926 l 555 926 l 555 669 b 519 644 555 651 547 645 l 519 628 l 648 628 l 648 644 b 608 669 618 645 608 651 l 608 928 b 648 954 608 946 618 952 l 648 968 l 538 968 l 473 726 l 468 726 l 402 968 l 288 968 l 288 954 b 331 907 322 953 331 932 l 331 709 b 288 641 331 663 325 646 l 288 628 "},"Ẃ":{"x_min":-6.421875,"x_max":1019.859375,"ha":999,"o":"m 504 726 l 356 183 l 352 183 l 218 831 b 292 952 203 904 213 945 l 292 968 l -6 968 l -6 952 b 110 807 67 935 88 910 l 293 -22 l 337 -22 l 518 663 l 675 -22 l 718 -22 l 894 771 b 1019 952 921 886 946 935 l 1019 968 l 785 968 l 785 952 b 865 782 861 932 890 892 l 733 187 l 729 187 l 592 831 b 667 952 572 918 585 945 l 667 968 l 370 968 l 370 952 b 486 807 437 941 458 925 l 504 726 m 494 1070 l 528 1070 l 600 1170 b 670 1294 657 1249 670 1278 b 618 1342 670 1319 646 1342 b 536 1202 585 1342 574 1321 l 494 1070 "},"Ŀ":{"x_min":33.328125,"x_max":604.171875,"ha":618,"o":"m 33 0 l 595 0 l 604 289 l 583 290 b 333 27 527 73 466 27 l 252 27 l 252 852 b 354 952 252 914 262 947 l 354 968 l 33 968 l 33 952 b 141 852 119 947 141 911 l 141 118 b 33 18 141 56 119 22 l 33 0 m 508 433 b 572 512 548 433 572 467 b 509 590 572 558 548 590 b 445 510 469 590 445 555 b 508 433 445 464 469 433 "},"}":{"x_min":-5.5625,"x_max":393.0625,"ha":428,"o":"m -5 -221 b 243 37 150 -214 243 -134 b 226 241 243 105 226 194 b 393 418 226 348 255 403 l 393 440 b 226 611 255 455 226 504 b 243 810 226 658 243 742 b -5 1061 243 982 150 1055 l -5 1043 b 137 820 113 1029 137 943 b 133 654 137 772 133 715 b 325 432 133 514 176 457 l 325 426 b 133 198 176 401 133 339 b 137 27 133 137 137 75 b -5 -202 137 -95 113 -189 l -5 -221 "},"â":{"x_min":39.90625,"x_max":493.265625,"ha":488,"o":"m 166 -7 b 312 93 224 -7 273 31 l 316 93 b 404 -6 323 17 358 -6 b 493 31 436 -6 458 5 l 489 45 b 414 118 423 21 414 50 l 414 467 b 244 645 414 592 355 645 b 53 514 134 645 53 595 b 112 441 53 474 74 441 b 173 514 149 441 173 473 b 149 581 173 539 163 559 b 228 621 166 610 198 621 b 312 470 288 621 312 570 l 312 373 b 102 275 291 356 177 334 b 39 138 60 243 39 193 b 166 -7 39 63 78 -7 m 223 51 b 145 168 170 51 145 102 b 312 350 145 260 180 304 l 312 131 b 223 51 292 88 260 51 m 109 737 l 137 737 l 249 870 l 362 737 l 390 737 l 265 991 l 235 991 l 109 737 "},"ø":{"x_min":34.9375,"x_max":496.015625,"ha":532,"o":"m 82 -29 l 126 48 b 266 -11 165 9 212 -11 b 496 322 391 -11 496 127 b 425 562 496 422 469 505 l 484 667 l 448 667 l 404 589 b 266 649 365 626 318 649 b 34 316 139 649 34 510 b 104 73 34 215 61 132 l 46 -29 l 82 -29 m 146 319 b 261 624 146 549 184 624 b 365 521 308 624 344 594 l 157 158 b 146 319 150 201 146 254 m 271 13 b 165 116 222 13 186 43 l 373 479 b 384 319 380 437 384 385 b 271 13 384 90 346 13 "},"Ä":{"x_min":-24.96875,"x_max":701.40625,"ha":675,"o":"m 473 140 b 383 18 494 56 479 23 l 383 0 l 701 0 l 701 18 b 581 162 625 31 606 58 l 366 992 l 325 992 l 104 201 b -24 18 70 84 44 29 l -24 0 l 204 0 l 204 18 b 138 211 105 34 102 79 l 181 373 l 413 373 l 473 140 m 188 400 l 300 810 l 304 810 l 406 400 l 188 400 m 443 1077 b 504 1153 477 1077 504 1106 b 443 1231 504 1200 479 1231 b 383 1153 408 1231 383 1200 b 443 1077 383 1106 408 1077 m 251 1077 b 312 1153 286 1077 312 1106 b 251 1231 312 1200 287 1231 b 191 1153 216 1231 191 1200 b 251 1077 191 1106 216 1077 "},"ř":{"x_min":22.734375,"x_max":406.03125,"ha":408,"o":"m 22 0 l 282 0 l 282 16 b 196 72 215 18 196 25 l 196 457 b 292 593 224 535 254 580 b 288 560 289 583 288 571 b 347 488 288 513 311 488 b 406 563 381 488 406 518 b 326 649 406 611 379 649 b 193 504 275 649 231 595 l 193 642 l 22 636 l 22 619 b 94 548 81 618 94 590 l 94 72 b 22 16 94 25 81 18 l 22 0 m 207 738 l 236 738 l 362 992 l 335 992 l 222 859 l 110 992 l 82 992 l 207 738 "},"—":{"x_min":52.78125,"x_max":737.5,"ha":790,"o":"m 52 348 l 737 348 l 737 379 l 52 379 l 52 348 "},"N":{"x_min":33.328125,"x_max":770.828125,"ha":776,"o":"m 623 -11 l 661 -11 l 661 782 b 770 952 661 890 677 932 l 770 968 l 501 968 l 501 952 b 630 782 600 935 630 890 l 630 214 l 629 214 l 236 968 l 33 968 l 33 952 b 150 793 118 949 150 878 l 150 187 b 33 18 150 79 126 36 l 33 0 l 301 0 l 301 18 b 180 187 200 34 180 79 l 180 832 l 181 832 l 623 -11 "},"⁄":{"x_min":39,"x_max":560,"ha":599,"o":"m 39 -43 l 82 -43 l 560 941 l 516 941 l 279 448 l 39 -43 "},"2":{"x_min":52.828125,"x_max":504.21875,"ha":549,"o":"m 61 0 l 500 0 l 504 254 l 484 255 b 359 102 456 130 437 102 l 112 102 l 112 109 l 273 305 b 493 699 444 512 493 592 b 272 932 493 822 416 932 b 52 732 163 932 52 852 b 125 638 52 674 82 638 b 193 726 169 638 193 679 b 137 822 193 765 175 799 b 258 907 156 871 209 907 b 377 697 336 907 377 840 b 208 276 377 544 336 433 l 61 94 l 61 0 "},"ü":{"x_min":11.109375,"x_max":547.21875,"ha":557,"o":"m 209 -5 b 376 133 275 -5 334 40 l 376 1 l 547 1 l 547 16 b 475 68 490 18 475 34 l 475 642 l 301 636 l 301 619 b 373 551 358 618 373 593 l 373 175 b 265 54 343 95 311 54 b 184 198 205 54 184 108 l 184 642 l 11 636 l 11 619 b 81 551 68 618 81 593 l 81 157 b 209 -5 81 52 130 -5 m 373 745 b 434 821 408 745 434 774 b 373 899 434 868 409 899 b 313 821 338 899 313 868 b 373 745 313 774 338 745 m 181 745 b 243 821 216 745 243 774 b 181 899 243 868 218 899 b 122 821 147 899 122 868 b 181 745 122 774 147 745 "},"˜":{"x_min":12.5,"x_max":329.171875,"ha":342,"o":"m 12 738 l 38 738 b 87 821 50 802 68 821 b 241 742 126 821 188 742 b 329 909 294 742 320 782 l 302 909 b 254 825 291 845 273 825 b 100 904 215 825 152 904 b 12 738 47 904 20 864 "},"Ó":{"x_min":48.609375,"x_max":687.5,"ha":736,"o":"m 368 -19 b 687 486 543 -19 687 197 b 368 988 687 778 547 988 b 48 482 193 988 48 771 b 368 -19 48 190 187 -19 m 372 6 b 173 485 248 6 173 136 b 362 961 173 831 238 961 b 562 483 487 961 562 832 b 372 6 562 137 495 6 m 341 1070 l 375 1070 l 447 1170 b 516 1294 504 1249 516 1278 b 465 1342 516 1319 493 1342 b 383 1202 431 1342 420 1321 l 341 1070 "},"ˇ":{"x_min":15.4375,"x_max":296,"ha":311,"o":"m 140 736 l 169 736 l 296 991 l 268 991 l 155 857 l 43 991 l 15 991 l 140 736 "},"Ÿ":{"x_min":-8.421875,"x_max":684.640625,"ha":674,"o":"m 369 478 l 224 828 b 302 952 194 902 205 943 l 302 968 l -8 968 l -8 952 b 105 836 56 936 69 921 l 276 429 l 276 118 b 165 18 276 56 256 22 l 165 0 l 495 0 l 495 18 b 384 118 405 22 384 56 l 384 430 l 537 796 b 684 952 587 914 619 935 l 684 968 l 449 968 l 449 952 b 504 802 545 931 545 900 l 369 478 m 461 1077 b 522 1153 495 1077 522 1106 b 461 1231 522 1200 497 1231 b 401 1153 426 1231 401 1200 b 461 1077 401 1106 426 1077 m 269 1077 b 330 1153 304 1077 330 1106 b 269 1231 330 1200 305 1231 b 209 1153 234 1231 209 1200 b 269 1077 209 1106 234 1077 "},"ų":{"x_min":11.109375,"x_max":547.21875,"ha":557,"o":"m 209 -5 b 376 133 275 -5 334 40 l 376 1 l 486 1 l 459 -27 b 361 -191 377 -115 361 -151 b 451 -280 361 -248 400 -280 b 545 -229 500 -280 536 -241 l 534 -216 b 484 -241 519 -232 502 -241 b 430 -172 451 -241 430 -216 b 505 -12 430 -133 444 -90 l 516 1 l 547 1 l 547 16 b 475 68 490 18 475 34 l 475 642 l 301 636 l 301 619 b 373 551 358 618 373 593 l 373 175 b 265 54 343 95 311 54 b 184 198 205 54 184 108 l 184 642 l 11 636 l 11 619 b 81 551 68 618 81 593 l 81 157 b 209 -5 81 52 130 -5 "},"€":{"x_min":27.59375,"x_max":612.3125,"ha":639,"o":"m 447 383 l 447 412 l 223 412 b 222 469 222 430 222 450 l 222 522 l 447 522 l 447 550 l 223 550 b 412 907 235 793 302 907 b 516 847 456 907 503 874 b 467 757 485 828 467 792 b 535 675 467 704 495 675 b 601 767 574 675 601 715 b 408 932 601 859 519 932 b 113 551 266 932 142 775 l 27 551 l 27 522 l 109 522 b 106 448 108 499 106 473 l 106 412 l 27 412 l 27 383 l 108 383 b 377 -15 123 162 219 -15 b 612 201 488 -15 559 59 l 590 209 b 424 45 534 90 492 45 b 224 383 320 45 241 169 l 447 383 "},"Ŭ":{"x_min":16.671875,"x_max":747.21875,"ha":750,"o":"m 390 -19 b 636 283 565 -19 636 98 l 636 782 b 747 952 636 890 652 932 l 747 968 l 476 968 l 476 952 b 605 782 576 935 605 890 l 605 298 b 556 87 605 195 590 136 b 431 26 530 50 480 26 b 234 282 302 26 234 104 l 234 852 b 334 952 234 914 250 947 l 334 968 l 16 968 l 16 952 b 123 852 102 947 123 911 l 123 254 b 390 -19 123 70 220 -19 m 402 1077 b 537 1284 479 1077 534 1137 l 509 1284 b 404 1152 501 1206 463 1152 b 297 1284 341 1152 305 1206 l 269 1284 b 402 1077 272 1137 327 1077 "},"ß":{"x_min":17.6875,"x_max":562.140625,"ha":581,"o":"m 405 -11 b 562 183 512 -11 562 90 b 448 380 562 279 505 337 b 351 518 396 419 351 460 b 392 611 351 555 362 578 b 499 808 477 703 499 747 b 312 1004 499 920 434 1004 b 102 699 170 1004 102 881 l 102 636 l 17 612 l 17 599 l 102 599 l 102 72 b 31 16 102 25 89 18 l 31 0 l 203 0 l 203 783 b 301 981 203 924 232 981 b 396 800 360 981 396 924 b 348 604 396 699 385 651 b 282 457 305 550 282 507 b 395 280 282 372 327 332 b 484 130 442 246 484 204 b 405 13 484 58 455 13 b 331 48 369 13 345 27 b 363 109 351 61 363 84 b 314 172 363 143 345 172 b 260 104 280 172 260 143 b 405 -11 260 37 331 -11 "},"s":{"x_min":41.671875,"x_max":386.109375,"ha":422,"o":"m 41 -11 l 63 -11 l 97 36 b 218 -11 127 6 181 -11 b 386 197 327 -11 386 86 b 240 382 386 315 311 350 b 115 515 176 411 115 439 b 201 624 115 581 154 624 b 340 454 252 624 284 574 l 362 454 l 362 649 l 341 649 l 319 610 b 215 649 295 629 254 649 b 44 451 112 649 44 564 b 187 276 44 337 116 308 b 318 125 254 246 318 212 b 229 13 318 73 286 13 b 65 202 169 13 136 56 l 41 202 l 41 -11 "},"Ű":{"x_min":16.671875,"x_max":747.21875,"ha":750,"o":"m 390 -19 b 636 283 565 -19 636 98 l 636 782 b 747 952 636 890 652 932 l 747 968 l 476 968 l 476 952 b 605 782 576 935 605 890 l 605 298 b 556 87 605 195 590 136 b 431 26 530 50 480 26 b 234 282 302 26 234 104 l 234 852 b 334 952 234 914 250 947 l 334 968 l 16 968 l 16 952 b 123 852 102 947 123 911 l 123 254 b 390 -19 123 70 220 -19 m 475 1070 l 508 1070 l 580 1170 b 650 1294 637 1249 650 1278 b 598 1342 650 1319 626 1342 b 516 1202 565 1342 554 1321 l 475 1070 m 305 1070 l 338 1070 l 411 1170 b 480 1294 468 1249 480 1278 b 429 1342 480 1319 456 1342 b 347 1202 395 1342 384 1321 l 305 1070 "},"?":{"x_min":22.3125,"x_max":450.09375,"ha":476,"o":"m 188 258 l 226 258 l 226 457 b 450 760 380 501 450 600 b 229 1002 450 879 372 1002 b 22 817 109 1002 22 931 b 94 724 22 765 52 724 b 159 810 137 724 159 765 b 107 900 159 846 141 884 b 219 977 115 938 162 977 b 340 751 298 977 340 897 b 188 475 340 604 302 508 l 188 258 m 209 -19 b 277 61 250 -19 277 16 b 209 141 277 105 251 141 b 140 61 169 141 140 105 b 209 -19 140 16 168 -19 "},"c":{"x_min":35.265625,"x_max":450.546875,"ha":464,"o":"m 256 -11 b 450 144 357 -11 410 59 l 433 155 b 296 37 393 79 350 37 b 144 337 190 37 144 172 b 271 624 144 514 199 624 b 346 582 307 624 331 610 b 313 508 332 571 313 546 b 376 439 313 467 336 439 b 433 518 413 439 433 473 b 268 649 433 579 383 649 b 35 312 138 649 35 505 b 256 -11 35 127 121 -11 "},"Ņ":{"x_min":33.328125,"x_max":770.828125,"ha":776,"o":"m 623 -11 l 661 -11 l 661 782 b 770 951 661 890 677 932 l 770 968 l 501 968 l 501 951 b 630 782 600 935 630 890 l 630 213 l 629 213 l 236 968 l 33 968 l 33 951 b 150 793 118 948 150 878 l 150 187 b 33 17 150 78 126 35 l 33 0 l 301 0 l 301 17 b 180 187 200 34 180 78 l 180 832 l 181 832 l 623 -11 m 359 -377 b 483 -183 445 -325 483 -260 b 413 -83 483 -121 454 -83 b 350 -156 375 -83 350 -117 b 400 -220 350 -190 369 -220 b 427 -208 413 -220 420 -215 l 433 -210 b 347 -360 433 -260 408 -315 l 359 -377 "},"¶":{"x_min":54.171875,"x_max":631.9375,"ha":671,"o":"m 356 -139 l 394 -139 l 394 889 l 484 889 l 484 -139 l 519 -139 l 519 808 b 631 900 519 872 545 895 l 631 917 l 361 917 b 54 586 159 917 54 777 b 356 254 54 380 181 259 l 356 -139 "},"Ī":{"x_min":40.28125,"x_max":370.828125,"ha":411,"o":"m 40 0 l 370 0 l 370 18 b 261 118 280 22 261 56 l 261 852 b 370 952 261 911 280 947 l 370 968 l 40 968 l 40 952 b 151 852 131 947 151 911 l 151 118 b 40 18 151 56 131 22 l 40 0 m 77 1111 l 334 1111 l 334 1166 l 77 1166 l 77 1111 "},"•":{"x_min":102.78125,"x_max":372.21875,"ha":475,"o":"m 238 279 b 372 454 318 279 372 354 b 236 633 372 560 320 633 b 102 457 156 633 102 557 b 238 279 102 351 154 279 "},"(":{"x_min":77.78125,"x_max":415.28125,"ha":397,"o":"m 405 -231 l 415 -215 b 184 416 275 -107 184 62 b 415 1046 184 771 275 938 l 405 1062 b 77 414 245 968 77 763 b 405 -231 77 65 245 -137 "},"Ħ":{"x_min":33.328125,"x_max":781.953125,"ha":815,"o":"m 33 0 l 352 0 l 352 18 b 252 116 265 22 252 52 l 252 489 l 565 489 l 565 116 b 465 18 565 52 551 22 l 465 0 l 781 0 l 781 18 b 675 116 695 22 675 55 l 675 710 l 777 710 l 777 743 l 675 743 l 675 853 b 781 952 675 913 695 947 l 781 968 l 465 968 l 465 952 b 565 853 551 947 565 916 l 565 743 l 252 743 l 252 853 b 352 952 252 916 265 947 l 352 968 l 33 968 l 33 952 b 141 853 119 947 141 913 l 141 743 l 38 743 l 38 710 l 141 710 l 141 116 b 33 18 141 55 119 22 l 33 0 m 252 517 l 252 710 l 565 710 l 565 517 l 252 517 "},":":{"x_min":58.328125,"x_max":195.828125,"ha":254,"o":"m 127 396 b 195 476 168 396 195 432 b 127 557 195 521 169 557 b 58 476 87 557 58 521 b 127 396 58 432 86 396 m 127 -19 b 195 61 168 -19 195 16 b 127 141 195 105 169 141 b 58 61 87 141 58 105 b 127 -19 58 16 86 -19 "},"Û":{"x_min":16.671875,"x_max":747.21875,"ha":750,"o":"m 390 -19 b 636 283 565 -19 636 98 l 636 782 b 747 952 636 890 652 932 l 747 968 l 476 968 l 476 952 b 605 782 576 935 605 890 l 605 298 b 556 87 605 195 590 136 b 431 26 530 50 480 26 b 234 282 302 26 234 104 l 234 852 b 334 952 234 914 250 947 l 334 968 l 16 968 l 16 952 b 123 852 102 947 123 911 l 123 254 b 390 -19 123 70 220 -19 m 262 1070 l 290 1070 l 402 1203 l 515 1070 l 543 1070 l 418 1324 l 388 1324 l 262 1070 "},"ś":{"x_min":41.671875,"x_max":386.109375,"ha":422,"o":"m 41 -11 l 63 -11 l 97 36 b 218 -11 127 6 181 -11 b 386 197 327 -11 386 86 b 240 382 386 315 311 350 b 115 515 176 411 115 439 b 201 624 115 581 154 624 b 340 454 252 624 284 574 l 362 454 l 362 649 l 341 649 l 319 610 b 215 649 295 629 254 649 b 44 451 112 649 44 564 b 187 276 44 337 116 308 b 318 125 254 246 318 212 b 229 13 318 73 286 13 b 65 202 169 13 136 56 l 41 202 l 41 -11 m 188 736 l 222 736 l 294 836 b 363 960 351 916 363 945 b 312 1009 363 985 340 1009 b 230 868 279 1009 268 988 l 188 736 "},"V":{"x_min":-6.40625,"x_max":723.40625,"ha":703,"o":"m 336 -22 l 380 -22 l 594 768 b 723 952 628 896 655 936 l 723 968 l 494 968 l 494 952 b 566 789 583 932 592 890 l 400 158 l 396 158 l 221 829 b 309 952 200 910 215 945 l 309 968 l -6 968 l -6 952 b 114 806 67 935 86 909 l 336 -22 "},"Ŗ":{"x_min":33.328125,"x_max":727.78125,"ha":701,"o":"m 252 498 l 252 940 l 323 940 b 500 729 459 940 500 857 b 336 498 500 591 472 498 l 252 498 m 252 470 l 330 470 b 483 302 445 470 475 441 l 493 170 b 626 -8 501 42 523 -8 b 727 10 659 -8 695 -1 l 727 26 b 612 174 643 26 623 42 l 605 231 b 411 481 591 381 558 470 l 411 486 b 620 733 563 516 620 612 b 340 968 620 866 541 968 l 33 968 l 33 951 b 141 851 119 947 141 911 l 141 117 b 33 17 141 56 119 21 l 33 0 l 356 0 l 356 17 b 252 117 269 21 252 53 l 252 470 m 297 -377 b 420 -183 383 -325 420 -260 b 351 -83 420 -121 391 -83 b 287 -156 312 -83 287 -117 b 337 -220 287 -190 306 -220 b 365 -208 351 -220 358 -215 l 370 -210 b 284 -360 370 -260 345 -315 l 297 -377 "}," ":{"x_min":0,"x_max":0,"ha":186},"@":{"x_min":58.53125,"x_max":830.75,"ha":889,"o":"m 461 -202 b 719 -80 576 -202 644 -154 l 704 -61 b 465 -175 633 -130 572 -175 b 90 369 227 -175 90 59 b 475 924 90 675 239 924 b 798 479 666 924 798 728 b 634 116 798 259 718 116 b 583 275 575 116 571 194 l 615 472 l 655 664 l 565 651 l 552 592 l 550 592 b 459 661 533 631 508 661 b 243 279 341 661 243 462 b 366 84 243 141 297 84 b 491 205 416 84 459 132 l 496 205 b 611 84 501 129 525 84 b 830 480 733 84 830 223 b 479 950 830 753 679 950 b 58 362 225 950 58 701 b 461 -202 58 20 223 -202 m 404 134 b 337 284 364 134 337 177 b 472 632 337 404 383 632 b 540 540 504 632 529 596 l 490 262 b 404 134 465 189 437 134 "},"i":{"x_min":26.390625,"x_max":275,"ha":292,"o":"m 144 767 b 209 846 184 767 209 800 b 145 924 209 892 184 924 b 80 843 105 924 80 889 b 144 767 80 797 105 767 m 26 1 l 275 1 l 275 18 b 200 73 212 19 200 26 l 200 642 l 26 636 l 26 619 b 98 549 83 618 98 590 l 98 73 b 26 18 98 26 83 19 l 26 1 "},"Ģ":{"x_min":48.609375,"x_max":715.28125,"ha":732,"o":"m 394 -19 b 638 77 475 -19 569 14 l 638 349 b 715 444 638 427 651 438 l 715 462 l 412 462 l 412 444 b 529 349 498 440 529 409 l 529 70 b 398 6 498 31 458 6 b 173 484 284 6 173 146 b 391 961 173 823 277 961 b 606 675 486 961 537 862 l 625 675 l 625 996 l 608 996 l 569 933 b 400 987 525 967 477 987 b 48 481 215 987 48 777 b 394 -19 48 153 208 -19 m 352 -377 b 476 -183 438 -325 476 -260 b 406 -83 476 -121 447 -83 b 343 -156 368 -83 343 -117 b 393 -220 343 -190 362 -220 b 420 -208 406 -220 413 -215 l 426 -210 b 340 -360 426 -260 401 -315 l 352 -377 "},"m":{"x_min":22.21875,"x_max":836.109375,"ha":843,"o":"m 319 1 l 545 1 l 545 18 b 480 73 493 19 480 26 l 480 483 b 587 586 511 554 552 586 b 662 442 644 586 662 532 l 662 73 b 608 18 662 26 655 19 l 608 1 l 836 1 l 836 18 b 765 73 777 19 765 26 l 765 483 b 644 646 765 587 720 646 b 477 522 583 646 520 603 b 361 646 468 601 427 646 b 193 507 294 646 234 601 l 193 642 l 22 636 l 22 619 b 94 549 80 618 94 590 l 94 73 b 22 18 94 26 80 19 l 22 1 l 248 1 l 248 18 b 195 73 202 19 195 26 l 195 465 b 301 586 225 544 256 586 b 377 442 358 586 377 532 l 377 73 b 319 18 377 26 366 19 l 319 1 "},"ĕ":{"x_min":34.9375,"x_max":453.671875,"ha":479,"o":"m 259 -11 b 451 152 361 -11 414 61 l 434 164 b 296 37 398 82 350 37 b 144 326 190 37 144 169 l 144 336 l 453 336 b 257 649 461 497 393 649 b 34 312 134 649 34 503 b 259 -11 34 129 125 -11 m 250 624 b 346 358 326 624 355 508 l 144 358 b 250 624 147 535 187 624 m 257 743 b 391 950 333 743 389 803 l 364 950 b 258 818 355 872 318 818 b 151 950 196 818 159 872 l 123 950 b 257 743 126 803 182 743 "},"ﬃ":{"x_min":17.640625,"x_max":873.984375,"ha":893,"o":"m 339 1 l 570 1 l 570 18 b 502 73 517 19 502 26 l 502 600 l 699 600 l 699 73 b 638 18 699 26 683 19 l 638 1 l 873 1 l 873 18 b 800 73 812 19 800 26 l 800 642 l 664 636 l 502 636 l 502 779 b 538 946 502 888 517 918 b 618 982 556 971 586 982 b 703 935 658 982 687 964 b 675 870 687 917 675 890 b 737 796 675 821 700 796 b 797 871 772 796 797 824 b 622 1006 797 943 724 1006 b 457 929 536 1006 488 971 b 313 1000 434 971 381 1000 b 157 927 242 1000 191 972 b 102 688 119 872 102 783 l 102 638 l 17 614 l 17 600 l 102 600 l 102 73 b 31 18 102 26 89 19 l 31 1 l 271 1 l 271 18 b 203 73 219 19 203 26 l 203 600 l 400 600 l 400 73 b 339 18 400 26 385 19 l 339 1 m 400 693 l 400 636 l 203 636 l 203 770 b 237 942 203 839 217 916 b 307 977 253 966 278 977 b 381 936 339 977 369 961 b 356 871 367 920 356 893 b 406 800 356 828 377 804 b 400 693 402 771 400 735 "},"ż":{"x_min":31.9375,"x_max":444.4375,"ha":472,"o":"m 31 0 l 426 0 l 440 219 l 418 222 b 261 27 362 77 326 27 l 148 27 l 444 621 l 444 638 l 66 638 l 52 428 l 75 425 b 225 610 134 567 165 610 l 329 610 l 31 16 l 31 0 m 256 743 b 320 822 297 743 320 777 b 258 900 320 868 297 900 b 194 820 218 900 194 865 b 256 743 194 774 218 743 "},"ő":{"x_min":34.71875,"x_max":512.5,"ha":532,"o":"m 266 -11 b 495 322 391 -11 495 127 b 266 649 495 515 395 649 b 34 316 138 649 34 510 b 266 -11 34 122 133 -11 m 270 13 b 145 319 193 13 145 90 b 261 624 145 549 184 624 b 384 319 338 624 384 549 b 270 13 384 90 345 13 m 337 736 l 370 736 l 443 836 b 512 960 500 916 512 945 b 461 1009 512 985 488 1009 b 379 868 427 1009 416 988 l 337 736 m 168 736 l 201 736 l 273 836 b 343 960 330 916 343 945 b 291 1009 343 985 319 1009 b 209 868 258 1009 247 988 l 168 736 "},"ž":{"x_min":32.140625,"x_max":444.9375,"ha":472,"o":"m 32 0 l 426 0 l 440 219 l 418 222 b 261 27 362 77 326 27 l 148 27 l 444 621 l 444 638 l 66 638 l 52 428 l 75 425 b 225 610 134 567 165 610 l 329 610 l 32 16 l 32 0 m 241 736 l 271 736 l 397 991 l 369 991 l 257 857 l 144 991 l 116 991 l 241 736 "},"á":{"x_min":39.765625,"x_max":492.546875,"ha":488,"o":"m 166 -7 b 311 93 224 -7 273 31 l 316 93 b 403 -6 323 17 357 -6 b 492 31 435 -6 457 5 l 488 45 b 413 118 423 21 413 50 l 413 467 b 243 645 413 592 355 645 b 53 514 134 645 53 595 b 111 441 53 474 74 441 b 173 514 149 441 173 473 b 149 581 173 539 163 559 b 228 621 166 610 198 621 b 311 470 288 621 311 570 l 311 373 b 102 275 291 356 177 334 b 39 138 60 243 39 193 b 166 -7 39 63 78 -7 m 223 51 b 145 168 170 51 145 102 b 311 350 145 260 180 304 l 311 131 b 223 51 292 88 260 51 m 223 737 l 256 737 l 328 837 b 398 961 385 916 398 945 b 346 1009 398 986 374 1009 b 264 869 313 1009 302 988 l 223 737 "},"Ŏ":{"x_min":48.609375,"x_max":687.5,"ha":736,"o":"m 368 -19 b 687 486 543 -19 687 197 b 368 988 687 778 547 988 b 48 482 193 988 48 771 b 368 -19 48 190 187 -19 m 372 6 b 173 485 248 6 173 136 b 362 961 173 831 238 961 b 562 483 487 961 562 832 b 372 6 562 137 495 6 m 368 1077 b 502 1284 444 1077 500 1137 l 475 1284 b 369 1152 466 1206 429 1152 b 262 1284 306 1152 270 1206 l 234 1284 b 368 1077 237 1137 293 1077 "},"×":{"x_min":83,"x_max":497,"ha":578,"o":"m 469 762 l 290 479 l 110 762 l 83 743 l 270 449 l 83 156 l 110 138 l 290 418 l 469 138 l 497 156 l 309 449 l 497 743 l 469 762 "},"İ":{"x_min":40.28125,"x_max":370.828125,"ha":411,"o":"m 40 0 l 370 0 l 370 18 b 261 118 280 22 261 56 l 261 852 b 370 952 261 911 280 947 l 370 968 l 40 968 l 40 952 b 151 852 131 947 151 911 l 151 118 b 40 18 151 56 131 22 l 40 0 m 205 1077 b 269 1156 245 1077 269 1110 b 206 1234 269 1202 245 1234 b 143 1153 166 1234 143 1199 b 205 1077 143 1107 166 1077 "},"Ě":{"x_min":33.328125,"x_max":636.109375,"ha":690,"o":"m 33 0 l 631 0 l 636 294 l 616 296 b 372 27 555 97 512 27 l 252 27 l 252 483 l 298 483 b 445 312 380 483 418 465 l 465 312 l 465 682 l 445 682 b 298 511 418 529 380 511 l 252 511 l 252 941 l 373 941 b 587 681 491 941 527 867 l 606 682 l 602 968 l 33 968 l 33 952 b 141 852 119 947 141 911 l 141 118 b 33 18 141 56 119 22 l 33 0 m 345 1070 l 375 1070 l 501 1324 l 473 1324 l 361 1191 l 248 1324 l 220 1324 l 345 1070 "},"Ǻ":{"x_min":-24.8125,"x_max":701.40625,"ha":675,"o":"m 344 993 b 291 1115 301 993 291 1042 b 343 1238 291 1203 301 1238 b 396 1115 386 1238 396 1203 b 344 993 396 1042 386 993 m 183 373 l 415 373 l 473 140 b 383 17 494 56 479 23 l 383 0 l 701 0 l 701 17 b 581 162 625 31 606 58 b 371 974 581 162 371 975 b 459 1115 426 989 459 1049 b 343 1260 459 1192 414 1260 b 227 1115 273 1260 227 1192 b 319 974 227 1049 264 987 l 104 201 b -24 17 71 84 44 28 l -24 0 l 204 0 l 204 17 b 139 210 105 34 102 78 l 183 373 m 408 399 l 190 399 l 300 809 l 304 809 l 408 399 m 300 1276 l 333 1276 l 405 1377 b 475 1500 462 1456 475 1485 b 423 1549 475 1525 451 1549 b 341 1409 390 1549 379 1528 l 300 1276 "},"K":{"x_min":33.21875,"x_max":738.75,"ha":740,"o":"m 252 440 l 252 853 b 352 952 252 916 265 947 l 352 968 l 33 968 l 33 952 b 141 853 119 947 141 913 l 141 116 b 33 18 141 55 119 22 l 33 0 l 342 0 l 342 18 b 252 116 262 22 252 52 l 252 393 l 322 492 l 488 145 b 463 18 533 54 536 26 l 463 0 l 738 0 l 738 18 b 587 193 666 36 652 55 l 395 594 l 506 751 b 715 952 602 886 631 928 l 715 968 l 462 968 l 462 952 b 490 778 562 934 549 863 l 252 440 "},"7":{"x_min":51.390625,"x_max":493.0625,"ha":515,"o":"m 108 -13 l 213 -13 l 330 354 l 493 895 l 493 917 l 58 917 l 51 643 l 70 643 b 181 814 90 783 108 814 l 438 814 l 108 -5 l 108 -13 "},"¨":{"x_min":23.609375,"x_max":336.109375,"ha":360,"o":"m 275 743 b 336 820 309 743 336 772 b 275 897 336 867 311 897 b 215 820 240 897 215 867 b 275 743 215 772 240 743 m 83 743 b 144 820 118 743 144 772 b 83 897 144 867 119 897 b 23 820 48 897 23 867 b 83 743 23 772 48 743 "},"Y":{"x_min":-8.421875,"x_max":684.640625,"ha":674,"o":"m 369 478 l 224 828 b 302 952 194 902 205 943 l 302 968 l -8 968 l -8 952 b 105 836 56 936 69 921 l 276 429 l 276 118 b 165 18 276 56 256 22 l 165 0 l 495 0 l 495 18 b 384 118 405 22 384 56 l 384 430 l 537 796 b 684 952 587 914 619 935 l 684 968 l 449 968 l 449 952 b 504 802 545 931 545 900 l 369 478 "},"E":{"x_min":33.328125,"x_max":636.109375,"ha":690,"o":"m 33 0 l 631 0 l 636 294 l 616 296 b 372 27 555 97 512 27 l 252 27 l 252 483 l 298 483 b 445 312 380 483 418 465 l 465 312 l 465 682 l 445 682 b 298 511 418 529 380 511 l 252 511 l 252 941 l 373 941 b 587 681 491 941 527 867 l 606 682 l 602 968 l 33 968 l 33 952 b 141 852 119 947 141 911 l 141 118 b 33 18 141 56 119 22 l 33 0 "},"Ô":{"x_min":48.609375,"x_max":687.5,"ha":736,"o":"m 368 -19 b 687 486 543 -19 687 197 b 368 988 687 778 547 988 b 48 482 193 988 48 771 b 368 -19 48 190 187 -19 m 372 6 b 173 485 248 6 173 136 b 362 961 173 831 238 961 b 562 483 487 961 562 832 b 372 6 562 137 495 6 m 227 1070 l 255 1070 l 368 1203 l 480 1070 l 508 1070 l 383 1324 l 354 1324 l 227 1070 "},"‹":{"x_min":38.140625,"x_max":255,"ha":303,"o":"m 235 40 l 255 52 l 122 311 l 255 569 l 235 582 l 58 347 b 38 311 45 329 38 317 b 58 274 38 304 45 292 l 235 40 "},"Ï":{"x_min":40.28125,"x_max":370.828125,"ha":411,"o":"m 40 0 l 370 0 l 370 18 b 261 118 280 22 261 56 l 261 852 b 370 952 261 911 280 947 l 370 968 l 40 968 l 40 952 b 151 852 131 947 151 911 l 151 118 b 40 18 151 56 131 22 l 40 0 m 301 1077 b 362 1153 336 1077 362 1106 b 301 1231 362 1200 337 1231 b 241 1153 266 1231 241 1200 b 301 1077 241 1106 266 1077 m 109 1077 b 170 1153 144 1077 170 1106 b 109 1231 170 1200 145 1231 b 50 1153 75 1231 50 1200 b 109 1077 50 1106 75 1077 "},"ġ":{"x_min":16.859375,"x_max":487.390625,"ha":474,"o":"m 247 -242 b 94 -109 140 -242 94 -182 b 171 4 94 -53 119 -14 l 270 4 b 399 -96 367 4 399 -32 b 247 -242 399 -188 332 -242 m 238 232 b 146 427 181 232 146 299 b 229 622 146 555 172 622 b 321 427 289 622 321 541 b 238 232 321 299 295 232 m 235 645 b 41 424 138 645 41 558 b 130 239 41 335 79 274 b 52 120 79 206 52 162 b 140 10 52 63 76 32 l 140 6 b 16 -131 64 -7 16 -67 b 221 -264 16 -211 97 -264 b 467 -60 383 -264 467 -170 b 282 105 467 63 403 105 l 207 105 b 109 163 125 105 109 135 b 154 227 109 188 123 207 b 235 209 179 214 207 209 b 427 430 330 209 427 295 b 349 602 427 508 394 566 b 397 666 359 630 377 661 b 445 608 397 624 422 608 b 487 661 470 608 487 630 b 429 720 487 695 469 720 b 328 617 380 720 349 676 b 235 645 298 636 266 645 m 242 744 b 306 823 282 744 306 777 b 243 901 306 869 282 901 b 179 820 203 901 179 866 b 242 744 179 775 203 744 "},"ķ":{"x_min":3.0625,"x_max":540.15625,"ha":524,"o":"m 185 259 l 235 324 l 348 92 b 312 16 372 45 365 24 l 312 0 l 540 0 l 540 16 b 441 126 497 23 486 37 l 300 412 l 365 498 b 508 620 433 588 454 609 l 508 637 l 294 637 l 294 620 b 334 509 363 608 373 563 l 185 298 l 185 996 l 3 990 l 3 973 b 83 903 73 971 83 953 l 83 71 b 11 16 83 24 68 17 l 11 0 l 236 0 l 236 16 b 185 71 198 17 185 24 l 185 259 m 186 -377 b 309 -183 272 -325 309 -260 b 240 -83 309 -121 280 -83 b 176 -156 201 -83 176 -117 b 226 -220 176 -190 196 -220 b 254 -208 240 -220 247 -215 l 260 -210 b 173 -360 260 -260 235 -315 l 186 -377 "}," ":{"x_min":0,"x_max":0,"ha":463},"±":{"x_min":58.328125,"x_max":500,"ha":558,"o":"m 58 436 l 262 436 l 262 164 l 298 164 l 298 436 l 500 436 l 500 467 l 298 467 l 298 735 l 262 735 l 262 467 l 58 467 l 58 436 m 58 0 l 500 0 l 500 30 l 58 30 l 58 0 "},"ì":{"x_min":-6.828125,"x_max":275.109375,"ha":292,"o":"m 26 1 l 275 1 l 275 18 b 200 73 212 19 200 26 l 200 642 l 26 636 l 26 619 b 98 549 83 618 98 590 l 98 73 b 26 18 98 26 83 19 l 26 1 m 134 738 l 168 738 l 126 870 b 44 1010 89 989 77 1010 b -6 961 16 1010 -6 986 b 62 838 -6 946 5 917 l 134 738 "},"|":{"x_min":133.328125,"x_max":169.4375,"ha":303,"o":"m 133 -298 l 169 -298 l 169 1036 l 133 1036 l 133 -298 "},"§":{"x_min":75.796875,"x_max":487.46875,"ha":561,"o":"m 77 355 b 262 132 77 236 146 194 b 415 -40 379 69 415 27 b 284 -166 415 -126 356 -166 b 159 -116 214 -166 171 -139 b 191 -50 178 -101 191 -79 b 131 20 191 -12 167 20 b 75 -54 96 20 75 -6 b 277 -194 75 -129 157 -194 b 484 16 398 -194 484 -115 b 365 214 484 112 430 170 l 365 218 b 487 400 447 264 487 328 b 305 617 487 519 424 557 b 154 777 181 678 154 710 b 276 903 154 856 203 903 b 377 853 338 903 365 875 b 349 786 358 838 349 815 b 405 715 349 749 369 715 b 461 790 440 715 461 743 b 283 931 461 864 380 931 b 85 720 162 931 85 845 b 195 536 85 626 134 575 l 195 532 b 77 355 121 489 77 429 m 338 227 b 302 248 329 233 313 243 b 138 405 203 298 138 340 b 220 522 138 448 167 489 l 278 493 b 426 350 352 460 426 417 b 338 227 426 311 399 264 "},"q":{"x_min":34.71875,"x_max":540.28125,"ha":543,"o":"m 273 -252 l 540 -252 l 540 -236 b 469 -180 483 -234 469 -227 l 469 532 l 472 654 l 455 654 l 406 581 b 255 649 354 633 308 649 b 34 300 125 649 34 482 b 225 -11 34 118 106 -11 b 368 68 286 -11 326 19 l 368 -180 b 273 -236 368 -227 348 -236 l 273 -252 m 273 37 b 144 307 186 37 144 141 b 270 624 144 492 179 624 b 368 503 313 624 347 583 l 368 100 b 273 37 337 62 312 37 "},"b":{"x_min":-12.5,"x_max":504.171875,"ha":542,"o":"m 66 -16 l 83 -16 l 131 56 b 293 -11 184 4 240 -11 b 504 336 423 -11 504 150 b 319 649 504 522 437 649 b 170 569 258 649 213 617 l 170 996 l -12 991 l -12 974 b 69 903 58 971 69 953 l 69 105 l 66 -16 m 277 13 b 170 134 234 13 191 54 l 170 537 b 270 600 202 574 231 600 b 395 329 358 600 395 499 b 277 13 395 140 369 13 "},"ﬂ":{"x_min":18.0625,"x_max":575,"ha":596,"o":"m 401 600 l 401 73 b 340 18 401 26 386 19 l 340 1 l 575 1 l 575 18 b 502 73 515 19 502 26 l 502 1005 l 412 979 b 313 1005 386 994 352 1005 b 158 931 243 1005 191 977 b 102 693 119 877 102 788 l 102 637 l 18 614 l 18 600 l 102 600 l 102 73 b 31 18 102 26 90 19 l 31 1 l 272 1 l 272 18 b 204 73 219 19 204 26 l 204 600 l 401 600 m 401 806 l 401 636 l 204 636 l 204 774 b 237 945 204 843 218 919 b 308 980 254 969 279 980 b 381 940 340 980 369 965 b 356 876 368 923 356 896 b 401 806 356 835 375 813 "},"®":{"x_min":48.609375,"x_max":400,"ha":449,"o":"m 225 555 b 400 788 323 555 400 647 b 225 1016 400 928 323 1016 b 48 788 127 1016 48 928 b 225 555 48 647 127 555 m 225 571 b 68 788 134 571 68 658 b 225 1000 68 916 134 1000 b 380 788 313 1000 380 916 b 225 571 380 658 313 571 m 204 800 l 204 904 l 219 904 b 265 854 252 904 265 889 b 222 800 265 815 255 800 l 204 800 m 204 788 l 220 788 b 261 739 250 788 261 777 l 261 713 b 309 667 262 681 269 667 b 330 669 315 667 323 668 l 330 679 b 302 708 311 679 304 685 l 301 740 b 250 793 298 774 284 792 l 250 799 b 305 856 288 806 305 825 b 227 916 305 888 286 916 l 138 916 l 138 904 b 166 888 161 904 166 900 l 166 699 b 138 679 166 686 161 679 l 138 669 l 230 669 l 230 679 b 204 699 209 679 204 685 l 204 788 "},"L":{"x_min":33.328125,"x_max":604.171875,"ha":618,"o":"m 33 0 l 595 0 l 604 289 l 583 290 b 333 27 527 73 466 27 l 252 27 l 252 852 b 355 952 252 914 262 947 l 355 968 l 33 968 l 33 952 b 141 852 119 947 141 911 l 141 118 b 33 18 141 56 119 22 l 33 0 "},"ď":{"x_min":34.71875,"x_max":658.328125,"ha":544,"o":"m 230 -11 b 366 68 288 -11 333 22 l 366 -5 l 538 0 l 538 15 b 466 66 481 16 466 33 l 466 996 l 284 990 l 284 974 b 365 903 355 971 365 953 l 365 624 b 266 649 337 639 313 649 b 34 312 130 649 34 505 b 230 -11 34 133 106 -11 m 275 38 b 144 312 183 38 144 155 b 270 624 144 501 184 624 b 365 565 315 624 338 604 l 365 101 b 275 38 343 65 318 38 m 561 736 l 575 736 l 633 900 b 658 1002 650 949 658 981 b 608 1049 658 1035 633 1049 b 556 977 580 1049 556 1038 b 558 888 556 957 558 911 l 561 736 "}," ":{"x_min":0,"x_max":0,"ha":186},"Ĭ":{"x_min":40.28125,"x_max":370.828125,"ha":411,"o":"m 40 0 l 370 0 l 370 18 b 261 118 280 22 261 56 l 261 852 b 370 952 261 911 280 947 l 370 968 l 40 968 l 40 952 b 151 852 131 947 151 911 l 151 118 b 40 18 151 56 131 22 l 40 0 m 205 1077 b 340 1284 281 1077 337 1137 l 312 1284 b 206 1152 304 1206 266 1152 b 100 1284 144 1152 108 1206 l 72 1284 b 205 1077 75 1137 130 1077 "},"À":{"x_min":-24.96875,"x_max":701.40625,"ha":675,"o":"m 473 140 b 383 18 494 56 479 23 l 383 0 l 701 0 l 701 18 b 581 162 625 31 606 58 l 366 992 l 325 992 l 104 201 b -24 18 70 84 44 29 l -24 0 l 204 0 l 204 18 b 138 211 105 34 102 79 l 181 373 l 413 373 l 473 140 m 188 400 l 300 810 l 304 810 l 406 400 l 188 400 m 343 1070 l 376 1070 l 334 1202 b 252 1342 297 1321 286 1342 b 201 1294 225 1342 201 1319 b 270 1170 201 1278 213 1249 l 343 1070 "},"ẃ":{"x_min":-7.78125,"x_max":747.78125,"ha":735,"o":"m 371 444 l 279 137 l 274 137 l 176 524 b 169 569 172 542 169 557 b 225 621 169 600 185 617 l 225 638 l -7 638 l -7 621 b 79 510 43 615 56 600 l 217 -12 l 261 -12 l 383 393 l 481 -12 l 528 -12 l 654 493 b 747 621 674 571 708 615 l 747 638 l 565 638 l 565 621 b 631 546 610 612 631 592 b 615 451 631 521 625 490 l 540 144 l 536 144 l 450 524 b 443 571 446 543 443 562 b 503 621 443 604 460 617 l 503 638 l 275 638 l 275 621 b 356 510 321 615 333 603 l 371 444 m 363 736 l 396 736 l 468 836 b 538 960 525 916 538 945 b 486 1009 538 985 514 1009 b 404 868 453 1009 442 988 l 363 736 "},"+":{"x_min":54.171875,"x_max":523.609375,"ha":578,"o":"m 54 436 l 272 436 l 272 139 l 308 139 l 308 436 l 523 436 l 523 467 l 308 467 l 308 760 l 272 760 l 272 467 l 54 467 l 54 436 "},"Ë":{"x_min":33.328125,"x_max":636.109375,"ha":690,"o":"m 33 0 l 631 0 l 636 294 l 616 296 b 372 27 555 97 512 27 l 252 27 l 252 483 l 298 483 b 445 312 380 483 418 465 l 465 312 l 465 682 l 445 682 b 298 511 418 529 380 511 l 252 511 l 252 941 l 373 941 b 587 681 491 941 527 867 l 606 682 l 602 968 l 33 968 l 33 952 b 141 852 119 947 141 911 l 141 118 b 33 18 141 56 119 22 l 33 0 m 456 1077 b 518 1153 491 1077 518 1106 b 456 1231 518 1200 493 1231 b 397 1153 422 1231 397 1200 b 456 1077 397 1106 422 1077 m 265 1077 b 326 1153 300 1077 326 1106 b 265 1231 326 1200 301 1231 b 205 1153 230 1231 205 1200 b 265 1077 205 1106 230 1077 "},"'":{"x_min":62.5,"x_max":218.0625,"ha":246,"o":"m 80 615 l 134 726 b 211 892 175 810 195 849 b 218 927 215 903 218 917 b 162 972 218 956 191 972 b 113 929 137 972 122 956 b 81 742 105 902 98 847 l 62 621 l 80 615 "},"Š":{"x_min":56.9375,"x_max":538.890625,"ha":583,"o":"m 56 -25 l 76 -25 l 131 40 b 295 -19 173 8 238 -19 b 538 293 473 -19 538 148 b 344 549 538 426 441 496 b 156 779 251 600 156 650 b 290 961 156 900 220 961 b 484 694 372 961 430 871 l 505 694 l 505 996 l 486 996 l 454 946 b 305 988 420 967 365 988 b 69 696 170 988 69 878 b 268 439 69 554 169 492 b 458 197 362 390 458 334 b 308 8 458 97 409 8 b 77 309 198 8 137 133 l 56 309 l 56 -25 m 283 1070 l 312 1070 l 438 1324 l 411 1324 l 298 1191 l 186 1324 l 158 1324 l 283 1070 "},"˛":{"x_min":55.5625,"x_max":240.28125,"ha":275,"o":"m 145 -282 b 240 -230 194 -282 230 -243 l 229 -218 b 179 -243 213 -233 197 -243 b 125 -173 145 -243 125 -218 b 200 -13 125 -134 138 -91 l 226 19 l 200 19 l 154 -29 b 55 -193 72 -116 55 -152 b 145 -282 55 -250 94 -282 "},"ð":{"x_min":40.265625,"x_max":497.765625,"ha":536,"o":"m 446 911 l 432 934 l 337 875 b 154 999 283 931 220 971 l 144 981 b 283 842 201 945 247 897 l 161 768 l 175 742 l 298 818 b 380 560 344 739 371 649 l 376 558 b 257 649 353 615 315 649 b 40 308 147 649 40 501 b 259 -11 40 129 144 -11 b 497 432 403 -11 497 158 b 355 854 497 618 440 757 l 446 911 m 276 13 b 150 315 193 13 150 132 b 272 624 150 546 197 624 b 385 343 340 624 385 536 b 276 13 385 111 343 13 "},"ş":{"x_min":41.390625,"x_max":385.828125,"ha":422,"o":"m 201 -307 b 303 -198 265 -307 303 -259 b 194 -105 303 -140 263 -101 l 191 -98 l 256 -6 b 385 197 341 12 385 100 b 240 382 385 315 310 350 b 115 515 176 411 115 439 b 201 624 115 581 153 624 b 340 454 252 624 284 574 l 362 454 l 362 649 l 341 649 l 319 610 b 214 649 295 629 253 649 b 44 451 112 649 44 564 b 187 276 44 337 116 308 b 317 125 253 246 317 212 b 228 13 317 73 285 13 b 65 202 169 13 135 56 l 41 202 l 41 -11 l 63 -11 l 96 36 b 217 -11 127 6 181 -11 l 221 -11 l 142 -123 l 151 -133 b 181 -126 160 -129 171 -126 b 234 -205 217 -126 234 -152 b 184 -283 234 -250 217 -283 b 127 -247 165 -283 144 -269 l 112 -261 b 201 -307 131 -289 162 -307 "},"ı":{"x_min":26.390625,"x_max":275,"ha":292,"o":"m 26 1 l 275 1 l 275 18 b 200 73 212 19 200 26 l 200 642 l 26 636 l 26 619 b 98 549 83 618 98 590 l 98 73 b 26 18 98 26 83 19 l 26 1 "},"Ć":{"x_min":48.609375,"x_max":633.328125,"ha":667,"o":"m 366 -19 b 633 301 527 -19 590 115 l 609 309 b 400 23 566 132 505 23 b 173 494 284 23 173 180 b 375 961 173 833 276 961 b 583 664 462 961 523 861 l 602 664 l 602 996 l 586 996 l 547 924 b 379 988 494 967 448 988 b 48 472 219 988 48 768 b 366 -19 48 166 204 -19 m 355 1070 l 388 1070 l 461 1170 b 530 1294 518 1249 530 1278 b 479 1342 530 1319 506 1342 b 397 1202 445 1342 434 1321 l 355 1070 "},"ä":{"x_min":39.90625,"x_max":492.6875,"ha":488,"o":"m 166 -7 b 312 93 224 -7 273 31 l 316 93 b 403 -6 323 17 357 -6 b 492 31 435 -6 457 5 l 488 45 b 413 118 423 21 413 50 l 413 467 b 244 645 413 592 355 645 b 53 514 134 645 53 595 b 112 441 53 474 74 441 b 173 514 149 441 173 473 b 149 581 173 539 163 559 b 228 621 166 610 198 621 b 312 470 288 621 312 570 l 312 373 b 102 275 291 356 177 334 b 39 138 60 243 39 193 b 166 -7 39 63 78 -7 m 223 51 b 145 168 170 51 145 102 b 312 350 145 260 180 304 l 312 131 b 223 51 292 88 260 51 m 345 744 b 406 820 380 744 406 773 b 345 898 406 867 381 898 b 285 820 310 898 285 867 b 345 744 285 773 310 744 m 153 744 b 214 820 188 744 214 773 b 153 898 214 867 189 898 b 94 820 119 898 94 867 b 153 744 94 773 119 744 "},"£":{"x_min":47.6875,"x_max":555.4375,"ha":593,"o":"m 463 492 l 282 492 b 226 720 258 568 226 640 b 343 907 226 852 276 907 b 436 863 390 907 417 888 b 399 774 411 835 399 806 b 466 690 399 718 426 690 b 526 774 504 690 526 726 b 348 932 526 870 451 932 b 124 674 215 932 124 835 b 162 492 124 603 142 546 l 50 492 l 50 462 l 174 462 b 221 261 197 401 221 340 b 208 145 221 215 216 177 b 190 147 201 147 196 147 b 47 48 117 147 47 100 b 111 -15 47 9 72 -15 b 218 115 154 -15 194 26 b 418 -15 284 36 344 -15 b 555 254 505 -15 555 86 l 530 255 b 433 97 522 133 488 97 b 236 141 370 97 300 129 b 311 337 287 197 311 258 b 291 462 311 380 302 422 l 463 462 l 463 492 "},"ů":{"x_min":11.109375,"x_max":547.21875,"ha":557,"o":"m 209 -5 b 376 133 275 -5 334 40 l 376 1 l 547 1 l 547 16 b 475 68 490 18 475 34 l 475 642 l 301 636 l 301 619 b 373 551 358 618 373 593 l 373 175 b 265 54 343 95 311 54 b 184 198 205 54 184 108 l 184 642 l 11 636 l 11 619 b 81 551 68 618 81 593 l 81 157 b 209 -5 81 52 130 -5 m 279 745 b 394 889 350 745 394 813 b 277 1034 394 966 348 1034 b 162 889 208 1034 162 966 b 279 745 162 813 208 745 m 279 767 b 226 889 236 767 226 815 b 277 1011 226 977 236 1011 b 330 889 320 1011 330 977 b 279 767 330 815 320 767 "},"Ō":{"x_min":48.609375,"x_max":687.5,"ha":736,"o":"m 368 -19 b 687 486 543 -19 687 197 b 368 988 687 778 547 988 b 48 482 193 988 48 771 b 368 -19 48 190 187 -19 m 372 6 b 173 485 248 6 173 136 b 362 961 173 831 238 961 b 562 483 487 961 562 832 b 372 6 562 137 495 6 m 240 1111 l 497 1111 l 497 1166 l 240 1166 l 240 1111 "},"W":{"x_min":-6.421875,"x_max":1019.859375,"ha":999,"o":"m 504 726 l 356 183 l 352 183 l 218 831 b 292 952 203 904 213 945 l 292 968 l -6 968 l -6 952 b 110 807 67 935 88 910 l 293 -22 l 337 -22 l 518 663 l 675 -22 l 718 -22 l 894 771 b 1019 952 921 886 946 935 l 1019 968 l 785 968 l 785 952 b 865 782 861 932 890 892 l 733 187 l 729 187 l 592 831 b 667 952 572 918 585 945 l 667 968 l 370 968 l 370 952 b 486 807 437 941 458 925 l 504 726 "},"Ğ":{"x_min":48.609375,"x_max":715.28125,"ha":732,"o":"m 394 -19 b 638 77 475 -19 569 15 l 638 350 b 715 444 638 428 651 439 l 715 462 l 412 462 l 412 444 b 529 350 498 440 529 410 l 529 70 b 398 6 498 31 458 6 b 173 485 284 6 173 147 b 391 961 173 824 277 961 b 606 675 486 961 537 863 l 625 675 l 625 996 l 608 996 l 569 934 b 400 988 525 967 477 988 b 48 482 215 988 48 778 b 394 -19 48 154 208 -19 m 402 1077 b 537 1284 479 1077 534 1137 l 509 1284 b 404 1152 501 1206 463 1152 b 297 1284 341 1152 305 1206 l 269 1284 b 402 1077 272 1137 327 1077 "},"v":{"x_min":-9.71875,"x_max":505.5625,"ha":492,"o":"m 229 -12 l 269 -12 l 422 493 b 505 621 445 574 475 615 l 505 638 l 336 638 l 336 621 b 400 558 380 614 400 597 b 377 447 400 530 390 492 l 286 134 l 281 134 l 184 505 b 172 568 176 535 172 553 b 233 621 172 594 187 617 l 233 638 l -9 638 l -9 621 b 76 510 37 615 54 586 l 229 -12 "},">":{"x_min":83.71875,"x_max":480.9375,"ha":564,"o":"m 480 437 l 480 464 l 83 763 l 83 724 l 449 451 l 83 176 l 83 138 l 480 437 "},"û":{"x_min":11.28125,"x_max":547.453125,"ha":557,"o":"m 209 -5 b 376 133 275 -5 334 40 l 376 1 l 547 1 l 547 16 b 475 68 490 18 475 34 l 475 642 l 301 636 l 301 619 b 373 551 358 618 373 593 l 373 175 b 265 54 343 95 311 54 b 184 198 205 54 184 108 l 184 642 l 11 636 l 11 619 b 82 551 68 618 82 593 l 82 157 b 209 -5 82 52 130 -5 m 137 738 l 165 738 l 277 871 l 390 738 l 418 738 l 293 992 l 264 992 l 137 738 "},"Ź":{"x_min":42.9375,"x_max":608.140625,"ha":643,"o":"m 42 0 l 592 0 l 608 305 l 585 308 b 372 27 508 98 455 27 l 170 27 l 606 947 l 606 968 l 83 968 l 65 674 l 87 671 b 299 941 158 871 226 941 l 478 941 l 42 20 l 42 0 m 313 1070 l 347 1070 l 419 1170 b 488 1294 476 1249 488 1278 b 437 1342 488 1319 465 1342 b 355 1202 403 1342 392 1321 l 313 1070 "},"Ų":{"x_min":16.671875,"x_max":747.21875,"ha":750,"o":"m 390 -19 l 398 -19 l 390 -29 b 291 -193 308 -116 291 -152 b 381 -282 291 -250 330 -282 b 476 -230 430 -282 466 -243 l 465 -218 b 415 -243 450 -233 433 -243 b 361 -173 381 -243 361 -218 b 433 -16 361 -134 375 -91 b 636 283 576 1 636 113 l 636 782 b 747 952 636 890 652 932 l 747 968 l 476 968 l 476 952 b 605 782 576 935 605 890 l 605 298 b 556 87 605 195 590 136 b 431 26 530 50 480 26 b 234 282 302 26 234 104 l 234 852 b 334 952 234 914 250 947 l 334 968 l 16 968 l 16 952 b 123 852 102 947 123 911 l 123 254 b 390 -19 123 70 220 -19 "},"Ŵ":{"x_min":-6.421875,"x_max":1019.859375,"ha":999,"o":"m 504 726 l 357 183 l 352 183 l 218 831 b 292 952 203 904 213 945 l 292 968 l -6 968 l -6 952 b 110 807 67 935 88 910 l 294 -22 l 337 -22 l 518 663 l 675 -22 l 718 -22 l 894 771 b 1019 952 921 886 946 935 l 1019 968 l 785 968 l 785 952 b 865 782 861 932 890 892 l 733 187 l 729 187 l 592 831 b 667 952 572 918 585 945 l 667 968 l 370 968 l 370 952 b 486 807 437 941 458 925 l 504 726 m 380 1070 l 408 1070 l 521 1203 l 633 1070 l 661 1070 l 536 1324 l 507 1324 l 380 1070 "},"Ð":{"x_min":33.328125,"x_max":706.953125,"ha":756,"o":"m 33 0 l 345 0 b 706 500 597 0 706 254 b 334 968 706 757 579 968 l 33 968 l 33 952 b 141 852 119 947 141 911 l 141 522 l 38 522 l 38 486 l 141 486 l 141 118 b 33 18 141 56 119 22 l 33 0 m 252 27 l 252 486 l 398 486 l 398 522 l 252 522 l 252 941 l 318 941 b 581 492 494 941 581 849 b 313 27 581 140 516 27 l 252 27 "},"Ĺ":{"x_min":33.640625,"x_max":604.484375,"ha":618,"o":"m 33 0 l 596 0 l 604 289 l 583 290 b 333 27 528 73 466 27 l 253 27 l 253 852 b 355 952 253 914 262 947 l 355 968 l 33 968 l 33 952 b 141 852 119 947 141 911 l 141 118 b 33 18 141 56 119 22 l 33 0 m 161 1070 l 194 1070 l 266 1170 b 336 1294 323 1249 336 1278 b 285 1342 336 1319 312 1342 b 203 1202 251 1342 240 1321 l 161 1070 "},"r":{"x_min":22.734375,"x_max":406.0625,"ha":408,"o":"m 22 0 l 282 0 l 282 16 b 196 72 215 18 196 25 l 196 457 b 292 593 224 535 254 580 b 288 560 289 583 288 571 b 347 488 288 513 311 488 b 406 563 381 488 406 518 b 326 649 406 611 379 649 b 193 504 275 649 231 595 l 193 642 l 22 636 l 22 619 b 94 548 81 618 94 590 l 94 72 b 22 16 94 25 81 18 l 22 0 "},"Č":{"x_min":48.609375,"x_max":633.328125,"ha":667,"o":"m 366 -19 b 633 301 527 -19 590 115 l 609 309 b 400 23 566 132 505 23 b 173 494 284 23 173 180 b 375 961 173 833 276 961 b 583 664 462 961 523 861 l 602 664 l 602 996 l 586 996 l 547 924 b 379 988 494 967 448 988 b 48 472 219 988 48 768 b 366 -19 48 166 204 -19 m 366 1070 l 395 1070 l 522 1324 l 494 1324 l 381 1191 l 269 1324 l 241 1324 l 366 1070 "},"x":{"x_min":0.640625,"x_max":515,"ha":511,"o":"m 275 378 l 193 555 b 239 621 177 592 174 610 l 239 638 l 2 638 l 2 621 b 85 550 47 612 61 596 l 218 297 l 139 155 b 0 16 82 52 50 30 l 0 0 l 207 0 l 207 16 b 178 164 138 31 129 73 l 235 269 l 323 82 b 277 16 339 45 342 27 l 277 0 l 515 0 l 515 16 b 431 87 469 25 455 41 l 292 348 l 369 482 b 506 621 424 578 451 607 l 506 638 l 303 638 l 303 621 b 330 473 364 607 376 555 l 275 378 "},"è":{"x_min":34.9375,"x_max":453.671875,"ha":479,"o":"m 259 -11 b 451 152 361 -11 414 61 l 434 164 b 296 37 398 82 350 37 b 144 326 190 37 144 169 l 144 336 l 453 336 b 257 649 461 497 393 649 b 34 312 134 649 34 503 b 259 -11 34 129 125 -11 m 250 624 b 346 358 326 624 355 508 l 144 358 b 250 624 147 535 187 624 m 253 736 l 286 736 l 244 868 b 162 1009 207 988 196 1009 b 111 960 134 1009 111 985 b 180 836 111 945 123 916 l 253 736 "},"Ø":{"x_min":43.984375,"x_max":691.015625,"ha":736,"o":"m 367 -19 b 691 486 542 -19 691 176 b 596 854 691 642 654 768 l 682 1012 l 641 1012 l 571 886 b 367 988 516 952 445 988 b 43 482 192 988 43 792 b 138 114 43 325 80 200 l 52 -43 l 93 -43 l 162 80 b 367 -19 217 15 289 -19 m 361 961 b 529 810 436 961 495 923 l 192 201 b 168 485 175 271 168 364 b 361 961 168 852 238 961 m 371 7 b 205 157 296 7 239 45 l 542 767 b 566 483 557 696 566 603 b 371 7 566 116 495 7 "},"Ń":{"x_min":33.328125,"x_max":770.828125,"ha":776,"o":"m 623 -11 l 661 -11 l 661 782 b 770 952 661 890 677 932 l 770 968 l 501 968 l 501 952 b 630 782 600 935 630 890 l 630 214 l 629 214 l 236 968 l 33 968 l 33 952 b 150 793 118 949 150 878 l 150 187 b 33 18 150 79 126 36 l 33 0 l 301 0 l 301 18 b 180 187 200 34 180 79 l 180 832 l 181 832 l 623 -11 m 383 1070 l 416 1070 l 488 1170 b 558 1294 545 1249 558 1278 b 506 1342 558 1319 534 1342 b 425 1202 473 1342 462 1321 l 383 1070 "},"Ỳ":{"x_min":-8.421875,"x_max":684.640625,"ha":674,"o":"m 369 478 l 224 828 b 302 952 194 902 205 943 l 302 968 l -8 968 l -8 952 b 105 836 56 936 69 921 l 276 429 l 276 118 b 165 18 276 56 256 22 l 165 0 l 495 0 l 495 18 b 384 118 405 22 384 56 l 384 430 l 537 796 b 684 952 587 914 619 935 l 684 968 l 449 968 l 449 952 b 504 802 545 931 545 900 l 369 478 m 361 1070 l 394 1070 l 352 1202 b 270 1342 315 1321 304 1342 b 219 1294 242 1342 219 1319 b 288 1170 219 1278 231 1249 l 361 1070 "},"÷":{"x_min":54.171875,"x_max":537.5,"ha":592,"o":"m 54 436 l 537 436 l 537 467 l 54 467 l 54 436 m 297 572 b 365 653 337 572 365 608 b 297 733 365 697 338 733 b 227 653 256 733 227 697 b 297 572 227 608 255 572 m 297 169 b 365 250 337 169 365 205 b 297 330 365 294 338 330 b 227 250 256 330 227 294 b 297 169 227 205 255 169 "},"h":{"x_min":2.78125,"x_max":548.609375,"ha":556,"o":"m 11 0 l 244 0 l 244 16 b 184 72 198 18 184 25 l 184 464 b 295 585 215 543 252 585 b 376 440 356 585 376 530 l 376 72 b 315 16 376 25 362 18 l 315 0 l 548 0 l 548 16 b 477 72 490 18 477 25 l 477 482 b 355 644 477 586 433 644 b 184 505 288 644 227 599 l 184 996 l 2 991 l 2 974 b 83 903 73 971 83 953 l 83 72 b 11 16 83 25 68 18 l 11 0 "},".":{"x_min":51.390625,"x_max":188.890625,"ha":240,"o":"m 120 -19 b 188 61 161 -19 188 16 b 120 141 188 105 162 141 b 51 61 80 141 51 105 b 120 -19 51 16 79 -19 "},"f":{"x_min":18.265625,"x_max":412.71875,"ha":325,"o":"m 32 1 l 300 1 l 300 18 b 204 73 228 19 204 26 l 204 600 l 333 600 l 333 636 l 204 636 l 204 778 b 233 957 204 886 215 932 b 278 982 246 975 258 982 b 311 963 291 982 303 975 b 296 906 304 949 296 921 b 355 836 296 857 322 836 b 412 907 390 836 412 863 b 284 1006 412 960 369 1006 b 159 939 237 1006 193 984 b 103 693 123 889 103 813 l 103 638 l 18 614 l 18 600 l 103 600 l 103 73 b 32 18 103 26 90 19 l 32 1 "},"“":{"x_min":45.828125,"x_max":416.671875,"ha":438,"o":"m 323 648 b 391 729 363 648 391 685 b 334 799 391 776 361 799 b 304 787 323 799 311 795 l 300 790 b 416 969 304 850 344 926 l 404 989 b 243 752 287 926 243 850 b 323 648 243 690 275 648 m 126 648 b 194 729 166 648 194 685 b 137 799 194 776 163 799 b 106 787 126 799 113 795 l 102 790 b 219 969 106 850 147 926 l 206 989 b 45 752 90 926 45 850 b 126 648 45 690 77 648 "},"A":{"x_min":-24.96875,"x_max":701.40625,"ha":675,"o":"m 473 140 b 383 18 494 56 479 23 l 383 0 l 701 0 l 701 18 b 581 162 625 31 606 58 l 366 992 l 325 992 l 104 201 b -24 18 70 84 44 29 l -24 0 l 204 0 l 204 18 b 138 211 105 34 102 79 l 181 373 l 413 373 l 473 140 m 188 400 l 300 810 l 304 810 l 406 400 l 188 400 "},"‘":{"x_min":45.828125,"x_max":219.4375,"ha":240,"o":"m 126 648 b 194 729 166 648 194 685 b 137 799 194 776 163 799 b 106 787 126 799 113 795 l 102 790 b 219 969 106 850 147 926 l 206 989 b 45 752 90 926 45 850 b 126 648 45 690 77 648 "},"O":{"x_min":48.609375,"x_max":687.5,"ha":736,"o":"m 368 -19 b 687 486 543 -19 687 197 b 368 988 687 778 547 988 b 48 482 193 988 48 771 b 368 -19 48 190 187 -19 m 372 6 b 173 485 248 6 173 136 b 362 961 173 831 238 961 b 562 483 487 961 562 832 b 372 6 562 137 495 6 "},"Đ":{"x_min":33.328125,"x_max":706.953125,"ha":756,"o":"m 33 0 l 345 0 b 706 500 597 0 706 254 b 334 968 706 757 579 968 l 33 968 l 33 952 b 141 852 119 947 141 911 l 141 522 l 38 522 l 38 486 l 141 486 l 141 118 b 33 18 141 56 119 22 l 33 0 m 252 27 l 252 486 l 398 486 l 398 522 l 252 522 l 252 941 l 318 941 b 581 492 494 941 581 849 b 313 27 581 140 516 27 l 252 27 "},"3":{"x_min":41.078125,"x_max":509.125,"ha":551,"o":"m 260 -15 b 509 248 423 -15 509 105 b 281 469 509 386 424 461 l 281 473 b 492 715 431 518 492 619 b 271 932 492 836 418 932 b 61 758 163 932 61 854 b 128 675 61 711 88 675 b 191 758 171 675 191 715 b 143 843 191 802 171 832 b 257 907 170 885 209 907 b 377 711 342 907 377 850 b 210 485 377 557 343 485 l 195 485 l 195 457 l 223 457 b 392 239 345 457 392 391 b 257 9 392 83 356 9 b 129 76 192 9 149 41 b 174 159 150 88 174 116 b 110 243 174 202 150 243 b 41 152 66 243 41 202 b 260 -15 41 52 149 -15 "},"9":{"x_min":37.5,"x_max":518.0625,"ha":563,"o":"m 86 -23 b 415 179 245 8 338 70 b 518 558 481 271 518 396 b 283 931 518 770 433 931 b 37 609 136 931 37 773 b 244 317 37 427 125 317 b 397 450 306 317 368 352 l 402 449 b 86 -6 386 168 252 47 l 86 -23 m 280 348 b 154 616 201 348 154 430 b 277 908 154 797 190 908 b 400 637 352 908 400 819 b 280 348 400 441 336 348 "},"Ǿ":{"x_min":43.984375,"x_max":691.015625,"ha":736,"o":"m 367 -19 b 162 80 289 -19 217 15 l 93 -42 l 52 -42 l 138 114 b 43 482 80 200 43 325 b 367 988 43 792 192 988 b 571 887 445 988 516 952 l 641 1012 l 682 1012 l 596 855 b 691 486 654 768 691 642 b 367 -19 691 176 542 -19 m 361 962 b 168 485 238 962 168 852 b 192 201 168 364 175 271 l 529 810 b 361 962 495 923 436 962 m 371 7 b 566 483 495 7 566 116 b 542 767 566 603 557 696 l 205 157 b 371 7 239 45 296 7 m 341 1070 l 374 1070 l 446 1170 b 516 1294 503 1249 516 1279 b 464 1342 516 1319 492 1342 b 382 1202 431 1342 420 1322 l 341 1070 "},"l":{"x_min":15.28125,"x_max":270.828125,"ha":292,"o":"m 25 0 l 270 0 l 270 16 b 198 72 211 18 198 25 l 198 996 l 15 991 l 15 974 b 97 903 87 971 97 953 l 97 72 b 25 16 97 25 83 18 l 25 0 "},"4":{"x_min":25,"x_max":563.890625,"ha":576,"o":"m 563 298 l 563 373 l 420 373 l 420 920 l 352 920 l 25 351 l 25 298 l 313 298 l 313 108 b 212 18 313 30 279 19 l 212 0 l 513 0 l 513 18 b 420 108 452 19 420 30 l 420 298 l 563 298 m 306 786 l 313 786 l 313 373 l 70 373 l 306 786 "},"Ẁ":{"x_min":-6.421875,"x_max":1019.859375,"ha":999,"o":"m 504 726 l 356 183 l 352 183 l 218 831 b 292 952 203 904 213 945 l 292 968 l -6 968 l -6 952 b 110 807 67 935 88 910 l 293 -22 l 337 -22 l 518 663 l 675 -22 l 718 -22 l 894 771 b 1019 952 921 886 946 935 l 1019 968 l 785 968 l 785 952 b 865 782 861 932 890 892 l 733 187 l 729 187 l 592 831 b 667 952 572 918 585 945 l 667 968 l 370 968 l 370 952 b 486 807 437 941 458 925 l 504 726 m 517 1070 l 550 1070 l 508 1202 b 426 1342 471 1321 459 1342 b 374 1294 398 1342 374 1319 b 444 1170 374 1278 387 1249 l 517 1070 "}," ":{"x_min":0,"x_max":0,"ha":104},"Ť":{"x_min":36.109375,"x_max":652.78125,"ha":686,"o":"m 172 0 l 516 0 l 516 18 b 400 118 429 22 400 56 l 400 941 l 441 941 b 633 672 518 941 580 836 l 652 674 l 647 968 l 43 968 l 36 674 l 56 672 b 248 941 112 847 176 941 l 288 941 l 288 118 b 172 18 288 56 261 22 l 172 0 m 329 1070 l 358 1070 l 484 1324 l 456 1324 l 344 1191 l 231 1324 l 204 1324 l 329 1070 "},"Ü":{"x_min":16.671875,"x_max":747.21875,"ha":750,"o":"m 390 -19 b 636 283 565 -19 636 98 l 636 782 b 747 952 636 890 652 932 l 747 968 l 476 968 l 476 952 b 605 782 576 935 605 890 l 605 298 b 556 87 605 195 590 136 b 431 26 530 50 480 26 b 234 282 302 26 234 104 l 234 852 b 334 952 234 914 250 947 l 334 968 l 16 968 l 16 952 b 123 852 102 947 123 911 l 123 254 b 390 -19 123 70 220 -19 m 498 1077 b 559 1153 533 1077 559 1106 b 498 1231 559 1200 534 1231 b 438 1153 463 1231 438 1200 b 498 1077 438 1106 463 1077 m 306 1077 b 368 1153 341 1077 368 1106 b 306 1231 368 1200 343 1231 b 247 1153 272 1231 247 1200 b 306 1077 247 1106 272 1077 "},"à":{"x_min":39.765625,"x_max":492.546875,"ha":488,"o":"m 166 -7 b 311 93 224 -7 273 31 l 316 93 b 403 -6 323 17 357 -6 b 492 31 435 -6 457 5 l 488 45 b 413 118 423 21 413 50 l 413 467 b 243 645 413 592 355 645 b 53 514 134 645 53 595 b 111 441 53 474 74 441 b 173 514 149 441 173 473 b 149 581 173 539 163 559 b 228 621 166 610 198 621 b 311 470 288 621 311 570 l 311 373 b 102 275 291 356 177 334 b 39 138 60 243 39 193 b 166 -7 39 63 78 -7 m 223 51 b 145 168 170 51 145 102 b 311 350 145 260 180 304 l 311 131 b 223 51 292 88 260 51 m 245 737 l 278 737 l 236 869 b 155 1009 199 988 188 1009 b 103 961 127 1009 103 986 b 173 837 103 945 116 916 l 245 737 "},"Ś":{"x_min":56.9375,"x_max":538.890625,"ha":583,"o":"m 56 -25 l 76 -25 l 131 40 b 295 -19 173 8 238 -19 b 538 293 473 -19 538 148 b 344 549 538 426 441 496 b 156 779 251 600 156 650 b 290 961 156 900 220 961 b 484 694 372 961 430 871 l 505 694 l 505 996 l 486 996 l 454 946 b 305 988 420 967 365 988 b 69 696 170 988 69 878 b 268 439 69 554 169 492 b 458 197 362 390 458 334 b 308 8 458 97 409 8 b 77 309 198 8 137 133 l 56 309 l 56 -25 m 272 1070 l 305 1070 l 377 1170 b 447 1294 434 1249 447 1278 b 395 1342 447 1319 423 1342 b 313 1202 362 1342 351 1321 l 272 1070 "},"ó":{"x_min":34.71875,"x_max":495.828125,"ha":532,"o":"m 266 -11 b 495 322 391 -11 495 127 b 266 649 495 515 395 649 b 34 316 138 649 34 510 b 266 -11 34 122 133 -11 m 270 13 b 145 319 193 13 145 90 b 261 624 145 549 184 624 b 384 319 338 624 384 549 b 270 13 384 90 345 13 m 238 736 l 272 736 l 344 836 b 413 960 401 916 413 945 b 362 1009 413 985 390 1009 b 280 868 329 1009 318 988 l 238 736 "},"ŗ":{"x_min":22.734375,"x_max":406.0625,"ha":408,"o":"m 22 0 l 282 0 l 282 16 b 196 72 215 17 196 24 l 196 457 b 292 593 224 535 254 580 b 288 560 289 583 288 571 b 347 488 288 513 311 488 b 406 563 381 488 406 518 b 326 649 406 611 379 649 b 193 504 275 649 231 595 l 193 642 l 22 636 l 22 619 b 94 548 81 618 94 590 l 94 72 b 22 16 94 24 81 17 l 22 0 m 89 -377 b 213 -183 175 -325 213 -260 b 143 -83 213 -121 183 -83 b 79 -156 104 -83 79 -117 b 129 -220 79 -190 99 -220 b 157 -208 143 -220 150 -215 l 163 -210 b 76 -360 163 -260 138 -315 l 89 -377 "}}}
